<?xml version="1.0" encoding="utf-8"?>
<!-- Generator: Adobe Illustrator 26.0.3, SVG Export Plug-In . SVG Version: 6.00 Build 0)  -->
<svg version="1.1" id="Layer_1" xmlns="http://www.w3.org/2000/svg" xmlns:xlink="http://www.w3.org/1999/xlink" x="0px" y="0px"
	 viewBox="0 0 171.67 158.71" style="enable-background:new 0 0 171.67 158.71;" xml:space="preserve">
<style type="text/css">
	.st0{fill:#FEE5C6;}
	.st1{fill:#FBC160;}
</style>
<path id="Rectangle_449" class="st0" d="M66.3,21.88h36c22.09,0,40,17.91,40,40v31c0,22.09-17.91,40-40,40h-36
	c-22.09,0-40-17.91-40-40v-31C26.3,39.79,44.21,21.88,66.3,21.88z"/>
<g>
	<g>
		<path class="st1" d="M76.43,80.14c0-1.24,0.4-2.4,1.2-3.48c0.8-1.08,1.8-2.1,3-3.06c1.2-0.96,2.88-2.16,5.04-3.6l2.16-1.5
			c0.16-0.4,0.35-1.04,0.57-1.92c0.22-0.88,0.33-1.74,0.33-2.58c0-1.64-0.46-3.2-1.38-4.68c-0.92-1.48-2.3-2.68-4.14-3.6
			c-1.84-0.92-4.1-1.38-6.78-1.38c-1.64,0-3.14,0.34-4.5,1.02l-1.26-4.74c0.8-0.44,1.99-0.82,3.57-1.14
			c1.58-0.32,3.35-0.48,5.31-0.48c3.96,0,7.25,0.65,9.87,1.95s4.53,3.03,5.73,5.19s1.8,4.56,1.8,7.2c0,1.96-0.4,3.66-1.2,5.1
			c-0.8,1.44-1.75,2.62-2.85,3.54c-1.1,0.92-2.51,1.92-4.23,3c-1.24,0.8-2.22,1.48-2.94,2.04c-0.72,0.56-1.3,1.16-1.74,1.8
			c-0.2,0.6-0.28,1.2-0.24,1.8c0,3.16,0.16,5.68,0.48,7.56h-5.22C77.41,85.26,76.55,82.58,76.43,80.14z M77.39,102.7
			c-0.92-0.84-1.38-1.92-1.38-3.24c0-1.44,0.54-2.64,1.62-3.6c1.08-0.96,2.36-1.44,3.84-1.44c1.48,0,2.65,0.45,3.51,1.35
			c0.86,0.9,1.29,1.97,1.29,3.21c0,1.52-0.53,2.73-1.59,3.63c-1.06,0.9-2.41,1.35-4.05,1.35C79.39,103.96,78.31,103.54,77.39,102.7z
			"/>
	</g>
</g>
</svg>
