<?xml version="1.0" encoding="utf-8"?>
<!-- Generator: Adobe Illustrator 26.0.3, SVG Export Plug-In . SVG Version: 6.00 Build 0)  -->
<svg version="1.1" id="Layer_1" xmlns="http://www.w3.org/2000/svg" xmlns:xlink="http://www.w3.org/1999/xlink" x="0px" y="0px"
	 viewBox="0 0 595.3 259.9" style="enable-background:new 0 0 595.3 259.9;" xml:space="preserve">
<style type="text/css">
	.st0{fill:#A7A9AC;}
</style>
<polygon class="st0" points="585.6,190.3 568.4,173.2 568.4,149 544.2,149 527.1,131.8 509.9,149 485.7,149 485.7,173.2 
	468.6,190.3 485.7,207.5 485.7,231.7 509.9,231.7 527.1,248.8 544.2,231.7 568.4,231.7 568.4,207.5 "/>
<g>
	<polygon points="574.4,65.9 585.8,58.2 572.7,53.6 581.7,43.2 568,42.1 574,29.7 560.4,32.2 563,18.7 550.5,24.7 549.5,10.9 
		539,19.9 534.5,6.9 526.7,18.3 519,6.9 514.4,19.9 503.9,10.9 502.9,24.7 490.5,18.7 493,32.2 479.5,29.7 485.4,42.1 471.7,43.2 
		480.7,53.6 467.7,58.2 479.1,65.9 467.7,73.7 480.7,78.3 471.7,88.7 485.4,89.8 479.5,102.2 493,99.7 490.5,113.2 502.9,107.2 
		503.9,121 514.4,112 519,125 526.7,113.6 534.5,125 539,112 549.5,121 550.5,107.2 563,113.2 560.4,99.7 574,102.2 568,89.8 
		581.7,88.7 572.7,78.3 585.8,73.7 	"/>
	<path d="M84.3,85.9c0-4.2-1.6-5.5-3.6-5.5c-2,0-3.6,1.3-3.6,5.5c0,4,1.6,5.3,3.6,5.3C82.7,91.2,84.3,89.9,84.3,85.9z"/>
	<path d="M96.2,113.7c-2.8,0-3.9,2.1-3.9,5.8c0,3.7,1.4,5.7,3.8,5.7c2.8,0,4-2.2,4-5.7C100.2,115.5,98.9,113.7,96.2,113.7z"/>
	<path d="M37.5,57.9c2.8,0,4-2.2,4-5.7c0-4-1.3-5.8-4-5.8c-2.8,0-3.9,2.1-3.9,5.8C33.7,55.8,35.1,57.9,37.5,57.9z"/>
	<path d="M63,46c-2.2,0-3.2,1.5-3.4,3.6h6.3C65.8,47.5,64.3,46,63,46z"/>
	<path d="M117.8,51.1c1.8,0,2.8-0.9,2.8-2.8c0-1.8-0.9-2.7-2.8-2.7c-1.9,0-2.8,1-2.8,2.7C115,49.9,115.7,51.1,117.8,51.1z"/>
	<path d="M116.2,79.7c-2.2,0-3.2,1.5-3.4,3.6h6.3C119,81.2,117.6,79.7,116.2,79.7z"/>
	<path d="M117.9,65.5c3.5,0,4.4-0.9,4.4-2.1c0-0.5-0.2-1.1-1.6-1.1h-5.2c-1.2,0-1.7,0.4-1.7,1.3C113.8,65,115,65.5,117.9,65.5z"/>
	<path d="M60.2,114.1c-2,0-3.6,1.3-3.6,5.5c0,4,1.6,5.3,3.6,5.3c2,0,3.6-1.3,3.6-5.3C63.8,115.4,62.2,114.1,60.2,114.1z"/>
	<path d="M469.9,15.6H372l-47.5,80v-80h-96.4v63.3c-6.1-40.1-34.4-63.3-86.8-63.3H10v223.9h131.6c49.1,0,80.1-23.8,86.5-64.6v64.6
		h96.4v-64.7l12.7-21.9l32.5,86.5l100.3,0l-57.2-133L469.9,15.6z M131,41.6h7.6v3.2h0.2c0.6-1.1,2.4-3.8,6.2-3.8
		c3.3,0,7.3,1.4,7.3,7.6v14h-7.6V48.5c0-1.7-0.9-2.5-2.6-2.5c-2.5,0-3.3,2-3.3,5.1v11.5H131V41.6z M129.8,75.2h7.6v3.2h0.2
		c0.6-1.1,2.4-3.8,6.2-3.8c3.3,0,7.3,1.4,7.3,7.6v14h-7.6V82.2c0-1.7-0.9-2.5-2.6-2.5c-2.5,0-3.3,2-3.3,5.1v11.5h-7.7V75.2z
		 M110.9,60.8v-0.2c-2.1-0.9-2.7-2.3-2.7-3.7c0-1.4,0.9-2.9,2.7-3.5v-0.1c-1.7-1.2-2.6-3-2.6-5.2c0-5,4.3-7.3,9.6-7.3
		c1.7,0,3.3,0.3,4.6,0.7c1-2.2,3.5-3.2,6-3.2h0.9v5.2c-1.4,0-2.5,0-3.1,0.6c0.8,1.1,1.3,2.4,1.3,4c0,4.9-4.1,7.3-9.6,7.3
		c-1.1,0-2.1-0.2-3.1-0.4c-0.4,0.2-0.6,0.6-0.6,1c0,0.7,0.7,1,2.1,1h5.7c4.6,0,7.2,1.7,7.2,5.2c0,5.1-4.9,8-11.7,8
		c-5.5,0-10.3-2.1-10.3-5.7C107.1,62.9,108.1,60.9,110.9,60.8z M97.6,34.1h7.6v5.5h-7.6V34.1z M97.6,41.6h7.6v21.1h-7.6V41.6z
		 M102.2,67.8v28.5h-7.6V67.8H102.2z M76.2,47.7c0-4.9,5.4-6.7,9.3-6.7c3.4,0,6.9,1.4,8.9,4.2L89,48.3c-0.8-1.2-1.9-2.2-3.6-2.2
		c-1.4,0-2.3,0.5-2.3,1.2c0,2.8,12.2,0.9,12.2,8.9c0,5.5-5.5,7-9.9,7c-5.4,0-9.3-1.9-10.2-5.9l6.4-2c0.2,2.1,2,3.1,4.2,3.1
		c1.7,0,2.4-0.9,2.4-1.7C88.2,53.2,76.2,56.1,76.2,47.7z M63,41c8.7,0,10.5,6.3,10.5,12.5H59.4c0.3,3.4,2.1,4.5,3.9,4.5
		c1.5,0,3.3-0.2,4-3l6.1,1.8c-2,4.7-5.4,6.4-10.5,6.4c-7.7,0-11.1-5.3-11.1-11C51.9,46.5,55.3,41,63,41z M62.1,75.2H70l-7.2,8.2
		l7.6,12.9h-8.6L58,88.9l-2.6,3v4.4h-7.6V67.8h7.6v16L62.1,75.2z M35.4,41c3,0,4.9,1,5.8,2.9h0.2v-10H49v28.7h-7.1l-0.4-2.9h-0.2
		c-1.1,2.1-3.8,3.5-6.1,3.5c-5.5,0-9.1-3.5-9.1-11.1C26.1,46.3,29.7,41,35.4,41z M25.4,91l6.4-2c0.2,2.1,2,3.1,4.2,3.1
		c1.7,0,2.4-0.9,2.4-1.7c0-3.5-12-0.6-12-9c0-4.8,5.4-6.7,9.3-6.7c3.4,0,6.9,1.4,8.9,4.2L39.1,82c-0.8-1.2-1.9-2.2-3.6-2.2
		c-1.4,0-2.3,0.5-2.3,1.2c0,2.7,12.2,0.9,12.2,8.9c0,5.5-5.5,7-9.9,7C30.2,96.9,26.3,95,25.4,91z M41.3,130l-3.8-7.4l-2.6,3v4.4
		h-7.6v-28.5h7.6v16l6.7-8.5h7.9l-7.2,8.2L50,130H41.3z M60.2,130.6c-7.7,0-11.1-5.3-11.1-11c0-5.7,3.4-11.2,11.1-11.2
		c7.7,0,11.1,5.5,11.1,11.2C71.3,125.3,67.9,130.6,60.2,130.6z M69.6,85.9c0-5.7,3.4-11.2,11.1-11.2c7.7,0,11.1,5.5,11.1,11.2
		c0,5.7-3.4,11-11.1,11C72.9,96.9,69.6,91.6,69.6,85.9z M81.8,130h-7.6v-28.5h7.6V130z M107.6,130h-7.1l-0.4-2.9H100
		c-1.1,2.1-3.8,3.5-6.1,3.5c-5.5,0-9.1-3.5-9.1-11.1c0-5.8,3.6-11.2,9.3-11.2c3,0,4.9,1,5.8,2.9h0.2v-10h7.6V130z M105.2,85.9
		c0-5.7,3.4-11.2,11.1-11.2c8.7,0,10.5,6.3,10.5,12.5h-14.1c0.3,3.4,2.1,4.5,3.9,4.5c1.5,0,3.3-0.2,4-3l6.1,1.8
		c-2,4.7-5.4,6.4-10.5,6.4C108.5,96.9,105.2,91.6,105.2,85.9z M118.8,130h-7.6v-21.1h7.6V130z M118.8,107h-7.6v-5.5h7.6V107z
		 M143.5,130h-7.6v-14.1c0-1.7-0.9-2.5-2.6-2.5c-2.6,0-3.3,2-3.3,5.1V130h-7.7v-21.1h7.6v3.2h0.2c0.6-1.1,2.4-3.8,6.2-3.8
		c3.4,0,7.3,1.4,7.3,7.6V130z M167.5,110.9c-1.4,0-2.5,0-3.1,0.6c0.8,1.1,1.3,2.4,1.3,4c0,4.9-4.1,7.3-9.6,7.3
		c-1.1,0-2.1-0.2-3.1-0.4c-0.4,0.2-0.6,0.6-0.6,1c0,0.7,0.7,1,2.1,1h5.7c4.6,0,7.2,1.7,7.2,5.2c0,5.1-4.9,8-11.7,8
		c-5.5,0-10.3-2.1-10.3-5.7c0-1.6,1.1-3.6,3.8-3.8V128c-2.1-0.9-2.7-2.3-2.7-3.7c0-1.4,0.9-2.9,2.7-3.5v-0.1c-1.7-1.2-2.6-3-2.6-5.2
		c0-5,4.3-7.3,9.6-7.3c1.7,0,3.3,0.3,4.6,0.7c1-2.2,3.5-3.2,6-3.2h0.9V110.9z"/>
	<path d="M156,112.9c-1.9,0-2.8,1-2.8,2.7c0,1.6,0.7,2.8,2.8,2.8c1.8,0,2.8-0.9,2.8-2.8C158.8,113.9,158,112.9,156,112.9z"/>
	<path d="M156.2,132.9c3.5,0,4.4-0.9,4.4-2.1c0-0.4-0.2-1.1-1.6-1.1h-5.2c-1.2,0-1.7,0.4-1.7,1.3
		C152.1,132.4,153.2,132.9,156.2,132.9z"/>
</g>
</svg>
