<?xml version="1.0" encoding="utf-8"?>
<!-- Generator: Adobe Illustrator 26.0.3, SVG Export Plug-In . SVG Version: 6.00 Build 0)  -->
<svg version="1.1" id="Layer_1" xmlns="http://www.w3.org/2000/svg" xmlns:xlink="http://www.w3.org/1999/xlink" x="0px" y="0px"
	 viewBox="0 0 232.4 26" style="enable-background:new 0 0 232.4 26;" xml:space="preserve">
<style type="text/css">
	.st0{fill:#FFFFFF;}
</style>
<rect y="0" width="232.4" height="26"/>
<g>
	<path class="st0" d="M7.5,7.4h1.1v11.1H7.5V7.4z"/>
	<path class="st0" d="M13.3,8.4H10v-1h7.7v1h-3.3v10.2h-1.1V8.4z"/>
	<path class="st0" d="M16.4,13.7h4v1.1h-4V13.7z"/>
	<path class="st0" d="M30.4,14.7c0,3.3-2.4,4.1-4,4.1c-1.6,0-4-0.8-4-4.1V7.4h1.1v7.2c0,1.8,1,3.1,2.9,3.1c1.9,0,2.9-1.3,2.9-3.1
		V7.4h1.1V14.7z"/>
	<path class="st0" d="M33,7.4h1.4l5.7,9.8h0V7.4h1.1v11.1h-1.5L34.1,9h0v9.6H33V7.4z"/>
	<path class="st0" d="M43.6,7.4h1.1v11.1h-1.1V7.4z"/>
	<path class="st0" d="M51.3,18.6h-1.2L46,7.4h1.2l3.6,10l3.7-10h1.1L51.3,18.6z"/>
	<path class="st0" d="M57,7.4h5.5v1h-4.4v4h4.1v1h-4.1v4.3h4.5v1H57V7.4z"/>
	<path class="st0" d="M65.1,7.4h2.9c2,0,3.3,0.8,3.3,2.9c0,1.4-1.1,2.4-2.5,2.6v0c0.9,0.1,1.1,0.6,1.4,1.3l1.9,4.3h-1.2l-1.6-3.8
		c-0.6-1.4-1.1-1.5-2.2-1.5h-0.9v5.3h-1.1V7.4z M66.2,12.4h1.2c1.3,0,2.8-0.5,2.8-2c0-1.8-1.3-1.9-2.8-1.9h-1.1V12.4z"/>
	<path class="st0" d="M73.6,17.1c0.7,0.4,1.4,0.7,2.5,0.7c1.4,0,2.5-0.7,2.5-2.3c0-2.2-5.1-2.5-5.1-5.4c0-1.8,1.6-2.9,3.5-2.9
		c0.5,0,1.4,0.1,2.2,0.4l-0.2,1c-0.5-0.3-1.3-0.4-2-0.4c-1.1,0-2.4,0.5-2.4,1.9c0,2.2,5.1,2.2,5.1,5.5c0,2.2-1.9,3.1-3.7,3.1
		c-1.1,0-1.9-0.2-2.5-0.5L73.6,17.1z"/>
	<path class="st0" d="M81.7,7.4h1.1v11.1h-1.1V7.4z"/>
	<path class="st0" d="M87.5,8.4h-3.3v-1h7.7v1h-3.3v10.2h-1.1V8.4z"/>
	<path class="st0" d="M93.4,7.4h5.5v1h-4.4v4h4.1v1h-4.1v4.3h4.5v1h-5.7V7.4z"/>
	<path class="st0" d="M103.5,8.4h-3.3v-1h7.7v1h-3.3v10.2h-1.1V8.4z"/>
	<path class="st0" d="M109.4,7.4h5.5v1h-4.4v4h4.1v1h-4.1v4.3h4.5v1h-5.7V7.4z"/>
	<path class="st0" d="M119.4,8.4h-3.3v-1h7.7v1h-3.3v10.2h-1.1V8.4z"/>
	<path class="st0" d="M129.6,7.4h1.1v11.1h-1.1V7.4z"/>
	<path class="st0" d="M137.9,7.4h1.1v5l5-5h1.4l-5.4,5.3l5.9,5.9h-1.5L139,13v5.6h-1.1V7.4z"/>
	<path class="st0" d="M157.2,7.5l-1.5,1.7c0.7,1,1.1,2.4,1.1,3.8c0,3.4-1.7,5.8-4.9,5.8c-1.5,0-2.6-0.5-3.4-1.3l-1.3,1.5l-0.6-0.5
		l1.4-1.6c-0.7-1-1-2.3-1-3.8c0-3,1.5-5.8,4.9-5.8c1.4,0,2.5,0.5,3.3,1.3l1.4-1.6L157.2,7.5z M154.5,9.4c-0.6-0.7-1.5-1.2-2.6-1.2
		c-2.6,0-3.8,2.4-3.8,4.8c0,1,0.2,2,0.7,2.9L154.5,9.4z M149.3,16.6c0.6,0.7,1.5,1.2,2.6,1.2c2.6,0,3.8-2.4,3.8-4.8
		c0-1-0.2-2.1-0.7-3L149.3,16.6z"/>
	<path class="st0" d="M159,7.4h2.6c1.8,0,3.5,0.6,3.5,2.7c0,1.4-0.7,2.3-2,2.5v0c1.4,0.3,2.4,1.2,2.4,2.6c0,2.4-2,3.2-4.3,3.2H159
		V7.4z M160.1,12.3h1.2c1.2,0,2.7-0.3,2.7-2.1c0-1.6-1.5-1.8-2.4-1.8h-1.5V12.3z M160.1,17.6h1.1c1.5,0,3.2-0.4,3.2-2.2
		c0-2-1.7-2.2-3.3-2.2h-1V17.6z"/>
	<path class="st0" d="M167.9,7.4h5.5v1H169v4h4.1v1H169v4.3h4.5v1h-5.7V7.4z"/>
	<path class="st0" d="M175.8,7.4h1.4l5.7,9.8h0V7.4h1.1v11.1h-1.5L176.9,9h0v9.6h-1.1V7.4z"/>
	<path class="st0" d="M186.6,7.4h1.1v4.9h5.6V7.4h1.1v11.1h-1.1v-5.3h-5.6v5.3h-1.1V7.4z"/>
	<path class="st0" d="M200.6,7.4h1.2l4.4,11.1h-1.1l-1.2-3h-5.6l-1.2,3h-1.1L200.6,7.4z M201.2,8.5l-2.4,6.1h4.8L201.2,8.5z"/>
	<path class="st0" d="M211.1,18.6h-1.2l-4.1-11.1h1.2l3.6,10l3.7-10h1.1L211.1,18.6z"/>
	<path class="st0" d="M216.7,7.4h1.4l5.7,9.8h0V7.4h1.1v11.1h-1.5L217.8,9h0v9.6h-1.1V7.4z"/>
</g>
</svg>
