<?xml version="1.0" encoding="utf-8"?>
<!-- Generator: Adobe Illustrator 26.0.3, SVG Export Plug-In . SVG Version: 6.00 Build 0)  -->
<svg version="1.1" id="Layer_1" xmlns="http://www.w3.org/2000/svg" xmlns:xlink="http://www.w3.org/1999/xlink" x="0px" y="0px"
	 viewBox="0 0 58.2 64.4" style="enable-background:new 0 0 58.2 64.4;" xml:space="preserve">
<style type="text/css">
	.st0{fill:#FABE5A;}
	.st1{fill:#FFFFFF;}
</style>
<g>
	<path class="st0" d="M31.6,38h-4.4c-0.3,0-0.5-0.2-0.5-0.5v-1.6c-0.2-0.1-0.4-0.2-0.6-0.2l-1.3,1.3c-0.2,0.2-0.5,0.2-0.7,0L21,33.8
		c-0.2-0.2-0.2-0.5,0-0.7l1.2-1.2c-0.1-0.2-0.2-0.4-0.3-0.7h-1.7c-0.3,0-0.5-0.2-0.5-0.5v-4.4c0-0.3,0.2-0.5,0.5-0.5h1.7l0.2-0.6
		l-1.3-1.3c-0.1-0.1-0.1-0.2-0.1-0.4s0.1-0.3,0.1-0.4L24,20c0.2-0.2,0.5-0.2,0.7,0l1.3,1.3l0.6-0.3v-1.8c0-0.3,0.2-0.5,0.5-0.5h4.4
		c0.3,0,0.5,0.2,0.5,0.5V21l0.6,0.3l1.3-1.3c0.2-0.2,0.5-0.2,0.7,0l3.1,3.1c0.2,0.2,0.2,0.5,0,0.7l-1.3,1.3l0.2,0.6h1.5
		c0.3,0,0.5,0.2,0.5,0.5v4.4c0,0.3-0.2,0.5-0.5,0.5h-1.5c-0.1,0.2-0.2,0.4-0.3,0.7l1.2,1.2c0.1,0.1,0.1,0.2,0.1,0.4
		s-0.1,0.3-0.1,0.4l-3.1,3.1c-0.2,0.2-0.5,0.2-0.7,0l-1.2-1.2c-0.2,0.1-0.4,0.2-0.6,0.2v1.7C32.1,37.8,31.8,38,31.6,38z M27.6,37
		h3.4v-1.5c0-0.2,0.1-0.4,0.4-0.5c0.4-0.1,0.7-0.3,1.1-0.5c0.2-0.1,0.4-0.1,0.6,0.1l1.1,1.1l2.4-2.4l-1.1-1.1
		c-0.2-0.2-0.2-0.4-0.1-0.6c0.2-0.4,0.4-0.8,0.5-1.2c0.1-0.2,0.3-0.3,0.5-0.3h1.4v-3.4h-1.4c-0.2,0-0.4-0.1-0.5-0.3l-0.5-1.2
		c-0.1-0.2,0-0.4,0.1-0.5l1.2-1.2l-2.4-2.4l-1.2,1.2c-0.1,0.1-0.4,0.2-0.6,0.1l-1.2-0.5c-0.2-0.1-0.3-0.3-0.3-0.5v-1.6h-3.4v1.6
		c0,0.2-0.1,0.4-0.3,0.5l-1.2,0.5c-0.2,0.1-0.4,0-0.6-0.1l-1.2-1.2l-2.4,2.4l1.2,1.2c0.1,0.1,0.2,0.4,0.1,0.5l-0.5,1.2
		c-0.1,0.2-0.3,0.3-0.5,0.3h-1.5v3.4h1.5c0.2,0,0.4,0.1,0.5,0.3c0.1,0.4,0.3,0.8,0.5,1.2c0.1,0.2,0.1,0.4-0.1,0.6L22,33.4l2.4,2.4
		l1.1-1.1c0.1-0.2,0.4-0.2,0.6-0.1c0.4,0.2,0.7,0.3,1.1,0.5c0.2,0.1,0.4,0.3,0.4,0.5V37z"/>
</g>
<g>
	<path class="st0" d="M37.5,45.2H21v-4.4c-4.2-2.8-6.7-7.4-6.7-12.5c0-8.2,6.7-14.9,14.9-14.9s14.9,6.7,14.9,14.9
		c0,5-2.5,9.7-6.7,12.5V45.2z M22,44.2h14.4v-3.9l0.2-0.1c4.1-2.6,6.5-7,6.5-11.8c0-7.7-6.2-13.9-13.9-13.9s-13.9,6.2-13.9,13.9
		c0,4.8,2.4,9.2,6.5,11.8l0.2,0.1V44.2z"/>
</g>
<g>
	<rect x="21.6" y="46.8" class="st0" width="15.4" height="1"/>
</g>
<g>
	<path class="st0" d="M35.4,54.1H23.2c-0.6,0-1.1-0.2-1.5-0.6c-0.4-0.4-0.6-0.9-0.6-1.5l0-4.3c-0.7-0.2-1.2-0.9-1.2-1.7
		c0-1,0.7-1.8,1.7-1.8v1c-0.4,0-0.7,0.4-0.7,0.8s0.3,0.8,0.7,0.8h0.5l0,5.2c0,0.3,0.1,0.6,0.3,0.8c0.2,0.2,0.5,0.3,0.8,0.3h12.2
		c0.6,0,1.1-0.5,1.1-1.1v-5.2H37c0.4,0,0.7-0.4,0.7-0.8s-0.3-0.8-0.7-0.8v-1c0.9,0,1.7,0.8,1.7,1.8c0,0.8-0.5,1.5-1.2,1.7V52
		C37.5,53.2,36.5,54.1,35.4,54.1z"/>
</g>
<g>
	<path class="st0" d="M33.7,56.6h-8.6c-1.3,0-2.4-1.1-2.4-2.4v-1h13.4v1C36.1,55.5,35,56.6,33.7,56.6z M23.8,54.1L23.8,54.1
		c0,0.8,0.6,1.4,1.4,1.4h8.6c0.8,0,1.4-0.6,1.4-1.4v0H23.8z"/>
</g>
<g>
	<path class="st0" d="M15.3,13.9c-1.7,0-3.1-1.4-3.1-3.1c0-1.7,1.4-3.1,3.1-3.1c1.7,0,3.1,1.4,3.1,3.1C18.4,12.6,17,13.9,15.3,13.9z
		 M15.3,8.8c-1.1,0-2.1,0.9-2.1,2.1s0.9,2.1,2.1,2.1s2.1-0.9,2.1-2.1S16.5,8.8,15.3,8.8z"/>
</g>
<g>
	<path class="st0" d="M49.2,42.6c-1.7,0-3.1-1.4-3.1-3.1c0-1.7,1.4-3.1,3.1-3.1c1.7,0,3.1,1.4,3.1,3.1
		C52.3,41.2,50.9,42.6,49.2,42.6z M49.2,37.4c-1.1,0-2.1,0.9-2.1,2.1s0.9,2.1,2.1,2.1s2.1-0.9,2.1-2.1S50.4,37.4,49.2,37.4z"/>
</g>
<g>
	<path class="st0" d="M43.9,13c-1.2,0-2.1-0.9-2.1-2.1s0.9-2.1,2.1-2.1S46,9.7,46,10.9S45.1,13,43.9,13z M43.9,9.8
		c-0.6,0-1.1,0.5-1.1,1.1c0,0.6,0.5,1.1,1.1,1.1c0.6,0,1.1-0.5,1.1-1.1C45,10.3,44.5,9.8,43.9,9.8z"/>
</g>
<g>
	<path class="st0" d="M13.2,46.3c-1.2,0-2.1-0.9-2.1-2.1s0.9-2.1,2.1-2.1s2.1,0.9,2.1,2.1S14.4,46.3,13.2,46.3z M13.2,43.1
		c-0.6,0-1.1,0.5-1.1,1.1c0,0.6,0.5,1.1,1.1,1.1s1.1-0.5,1.1-1.1C14.3,43.6,13.8,43.1,13.2,43.1z"/>
</g>
<g>
	<path class="st0" d="M5.3,32.5c-0.3,0-0.5-0.2-0.5-0.5v-0.8c0-2.1-1.7-3.8-3.8-3.8c-0.3,0-0.5-0.2-0.5-0.5s0.2-0.5,0.5-0.5
		c2.1,0,3.8-1.7,3.8-3.8v-0.8c0-0.3,0.2-0.5,0.5-0.5s0.5,0.2,0.5,0.5v0.8c0,2.1,1.7,3.8,3.8,3.8c0.3,0,0.5,0.2,0.5,0.5
		s-0.2,0.5-0.5,0.5c-2.1,0-3.8,1.7-3.8,3.8V32C5.8,32.3,5.6,32.5,5.3,32.5z M3.1,26.8C4,27.3,4.8,28.1,5.3,29
		c0.5-0.9,1.2-1.7,2.2-2.2c-0.9-0.5-1.7-1.2-2.2-2.2C4.8,25.6,4,26.4,3.1,26.8z"/>
</g>
<g>
	<path class="st0" d="M52.9,26c-0.3,0-0.5-0.2-0.5-0.5v-0.8c0-2.1-1.7-3.8-3.8-3.8c-0.3,0-0.5-0.2-0.5-0.5s0.2-0.5,0.5-0.5
		c2.1,0,3.8-1.7,3.8-3.8v-0.8c0-0.3,0.2-0.5,0.5-0.5s0.5,0.2,0.5,0.5v0.8c0,2.1,1.7,3.8,3.8,3.8c0.3,0,0.5,0.2,0.5,0.5
		s-0.2,0.5-0.5,0.5c-2.1,0-3.8,1.7-3.8,3.8v0.8C53.4,25.8,53.2,26,52.9,26z M50.7,20.4c0.9,0.5,1.7,1.2,2.2,2.2
		c0.5-0.9,1.2-1.7,2.2-2.2c-0.9-0.5-1.7-1.2-2.2-2.2C52.4,19.1,51.6,19.9,50.7,20.4z"/>
</g>
<g>
	<circle class="st1" cx="29.3" cy="28.4" r="4.1"/>
	<path class="st0" d="M29.3,33c-2.6,0-4.6-2.1-4.6-4.6s2.1-4.6,4.6-4.6s4.6,2.1,4.6,4.6S31.8,33,29.3,33z M29.3,24.7
		c-2,0-3.6,1.6-3.6,3.6s1.6,3.6,3.6,3.6s3.6-1.6,3.6-3.6S31.3,24.7,29.3,24.7z"/>
</g>
</svg>
