<?xml version="1.0" encoding="utf-8"?>
<!-- Generator: Adobe Illustrator 26.0.3, SVG Export Plug-In . SVG Version: 6.00 Build 0)  -->
<svg version="1.1" id="Layer_1" xmlns="http://www.w3.org/2000/svg" xmlns:xlink="http://www.w3.org/1999/xlink" x="0px" y="0px"
	 viewBox="0 0 70.2 64.4" style="enable-background:new 0 0 70.2 64.4;" xml:space="preserve">
<style type="text/css">
	.st0{fill:#48A88F;}
	.st1{fill:#FFFFFF;}
</style>
<g>
	<g>
		<path class="st0" d="M47.8,45.7c-0.1,0-0.2,0-0.3-0.1c-0.2-0.2-0.2-0.5,0-0.7c2.3-2.5,3.9-5.6,4.5-9c0.8-4.7-0.2-9.4-2.9-13.3
			c-2.7-3.9-6.8-6.5-11.5-7.4c-7.1-1.3-14.3,1.8-18.2,8c-0.1,0.2-0.5,0.3-0.7,0.2c-0.2-0.1-0.3-0.5-0.2-0.7
			c4.1-6.5,11.7-9.8,19.2-8.4c5,0.9,9.3,3.7,12.1,7.8s4,9.1,3.1,14.1c-0.6,3.6-2.3,6.8-4.7,9.5C48.1,45.6,48,45.7,47.8,45.7z"/>
	</g>
	<g>
		<g>
			<polygon class="st0" points="48,42.6 48,45 50.4,44.9 49.4,45.9 47,46 47,43.6 			"/>
		</g>
	</g>
</g>
<g>
	<circle class="st0" cx="18.1" cy="24.2" r="0.6"/>
</g>
<g>
	<path class="st0" d="M61.8,40.6c-1.7,0-3.1-1.4-3.1-3.1c0-1.7,1.4-3.1,3.1-3.1c1.7,0,3.1,1.4,3.1,3.1
		C64.9,39.2,63.5,40.6,61.8,40.6z M61.8,35.5c-1.1,0-2.1,0.9-2.1,2.1s0.9,2.1,2.1,2.1s2.1-0.9,2.1-2.1S63,35.5,61.8,35.5z"/>
</g>
<g>
	<path class="st0" d="M7.4,23.4c-1.2,0-2.1-0.9-2.1-2.1s0.9-2.1,2.1-2.1s2.1,0.9,2.1,2.1S8.6,23.4,7.4,23.4z M7.4,20.2
		c-0.6,0-1.1,0.5-1.1,1.1c0,0.6,0.5,1.1,1.1,1.1s1.1-0.5,1.1-1.1C8.6,20.7,8.1,20.2,7.4,20.2z"/>
</g>
<g>
	<path class="st0" d="M22.1,12.3c-1.2,0-2.1-0.9-2.1-2.1s0.9-2.1,2.1-2.1s2.1,0.9,2.1,2.1S23.3,12.3,22.1,12.3z M22.1,9.1
		c-0.6,0-1.1,0.5-1.1,1.1c0,0.6,0.5,1.1,1.1,1.1c0.6,0,1.1-0.5,1.1-1.1C23.2,9.6,22.7,9.1,22.1,9.1z"/>
</g>
<g>
	<path class="st0" d="M12,17.6c-0.3,0-0.5-0.2-0.5-0.5v-0.7c0-1.7-1.4-3.1-3.1-3.1c-0.3,0-0.5-0.2-0.5-0.5s0.2-0.5,0.5-0.5
		c1.7,0,3.1-1.4,3.1-3.1V8.5C11.5,8.2,11.7,8,12,8s0.5,0.2,0.5,0.5v0.7c0,1.7,1.4,3.1,3.1,3.1c0.3,0,0.5,0.2,0.5,0.5
		s-0.2,0.5-0.5,0.5c-1.7,0-3.1,1.4-3.1,3.1v0.7C12.5,17.4,12.3,17.6,12,17.6z M10.4,12.8c0.7,0.4,1.3,0.9,1.6,1.6
		c0.4-0.7,0.9-1.3,1.6-1.6c-0.7-0.4-1.3-0.9-1.6-1.6C11.6,11.9,11.1,12.4,10.4,12.8z"/>
</g>
<g>
	<path class="st0" d="M56,52.9c-0.3,0-0.5-0.2-0.5-0.5v-0.6c0-1.4-1.1-2.6-2.6-2.6c-0.3,0-0.5-0.2-0.5-0.5s0.2-0.5,0.5-0.5
		c1.4,0,2.6-1.1,2.6-2.6v-0.6c0-0.3,0.2-0.5,0.5-0.5s0.5,0.2,0.5,0.5v0.6c0,1.4,1.1,2.6,2.6,2.6c0.3,0,0.5,0.2,0.5,0.5
		s-0.2,0.5-0.5,0.5c-1.4,0-2.6,1.1-2.6,2.6v0.6C56.5,52.7,56.3,52.9,56,52.9z M54.8,48.7c0.5,0.3,0.9,0.7,1.2,1.2
		c0.3-0.5,0.7-0.9,1.2-1.2c-0.5-0.3-0.9-0.7-1.2-1.2C55.7,48,55.3,48.4,54.8,48.7z"/>
</g>
<g>
	<path class="st0" d="M25.7,46.1H8.6c-0.3,0-0.5-0.2-0.5-0.5V28.5c0-0.3,0.2-0.5,0.5-0.5h17.1c0.3,0,0.5,0.2,0.5,0.5v17.1
		C26.2,45.9,25.9,46.1,25.7,46.1z M9.1,45.1h16.1V29H9.1V45.1z"/>
</g>
<g>
	<circle class="st1" cx="33.2" cy="43.9" r="10"/>
	<path class="st0" d="M33.2,54.4c-5.8,0-10.5-4.7-10.5-10.5s4.7-10.5,10.5-10.5c5.8,0,10.5,4.7,10.5,10.5S39,54.4,33.2,54.4z
		 M33.2,34.5c-5.2,0-9.5,4.2-9.5,9.5s4.2,9.5,9.5,9.5s9.5-4.2,9.5-9.5S38.4,34.5,33.2,34.5z"/>
</g>
<g>
	<polygon class="st1" points="7.4,55.9 30.2,55.9 18.8,36.7 	"/>
	<path class="st0" d="M30.2,56.4H7.4c-0.2,0-0.3-0.1-0.4-0.3s-0.1-0.3,0-0.5l11.4-19.2c0.2-0.3,0.7-0.3,0.9,0l11.4,19.2
		c0.1,0.2,0.1,0.3,0,0.5S30.4,56.4,30.2,56.4z M8.3,55.4h21L18.8,37.7L8.3,55.4z"/>
</g>
<g>
	<path class="st1" d="M35.2,27.5h13.7V18H32v9.5v2.8C32,30.3,35.2,30,35.2,27.5z"/>
	<path class="st0" d="M32,30.8c-0.1,0-0.2,0-0.3-0.1c-0.1-0.1-0.2-0.2-0.2-0.4V18c0-0.3,0.2-0.5,0.5-0.5h17c0.3,0,0.5,0.2,0.5,0.5
		v9.5c0,0.3-0.2,0.5-0.5,0.5H35.6C35.3,30,33.2,30.7,32,30.8C32,30.8,32,30.8,32,30.8z M32.5,18.5v11.2c0.8-0.2,2.2-0.7,2.2-2.2
		c0-0.3,0.2-0.5,0.5-0.5h13.2v-8.5H32.5z"/>
</g>
<g>
	<path class="st0" d="M45.3,21.8h-9.5c-0.3,0-0.5-0.2-0.5-0.5s0.2-0.5,0.5-0.5h9.5c0.3,0,0.5,0.2,0.5,0.5S45.6,21.8,45.3,21.8z"/>
</g>
<g>
	<path class="st0" d="M45.3,24.9h-9.5c-0.3,0-0.5-0.2-0.5-0.5s0.2-0.5,0.5-0.5h9.5c0.3,0,0.5,0.2,0.5,0.5S45.6,24.9,45.3,24.9z"/>
</g>
<g>
	<path class="st1" d="M59.8,19.6H45.7V9.8h17.4v9.8v2.9C63.1,22.4,59.8,22.1,59.8,19.6z"/>
	<path class="st0" d="M63.1,22.9C63.1,22.9,63.1,22.9,63.1,22.9c-1.2-0.1-3.4-0.9-3.8-2.9H45.7c-0.3,0-0.5-0.2-0.5-0.5V9.8
		c0-0.3,0.2-0.5,0.5-0.5h17.4c0.3,0,0.5,0.2,0.5,0.5v12.6c0,0.1-0.1,0.3-0.2,0.4C63.3,22.9,63.2,22.9,63.1,22.9z M46.2,19.1h13.6
		c0.3,0,0.5,0.2,0.5,0.5c0,1.5,1.5,2.1,2.3,2.3V10.3H46.2V19.1z"/>
</g>
<g>
	<path class="st0" d="M59.2,13.7h-9.8c-0.3,0-0.5-0.2-0.5-0.5s0.2-0.5,0.5-0.5h9.8c0.3,0,0.5,0.2,0.5,0.5S59.4,13.7,59.2,13.7z"/>
</g>
<g>
	<path class="st0" d="M59.2,16.9h-9.8c-0.3,0-0.5-0.2-0.5-0.5s0.2-0.5,0.5-0.5h9.8c0.3,0,0.5,0.2,0.5,0.5S59.4,16.9,59.2,16.9z"/>
</g>
</svg>
