<?xml version="1.0" encoding="utf-8"?>
<!-- Generator: Adobe Illustrator 26.0.3, SVG Export Plug-In . SVG Version: 6.00 Build 0)  -->
<svg version="1.1" id="Layer_1" xmlns="http://www.w3.org/2000/svg" xmlns:xlink="http://www.w3.org/1999/xlink" x="0px" y="0px"
	 viewBox="0 0 70.2 64.4" style="enable-background:new 0 0 70.2 64.4;" xml:space="preserve">
<style type="text/css">
	.st0{fill:#FABE5A;}
	.st1{fill:#FFFFFF;}
</style>
<g>
	<circle class="st0" cx="24" cy="23.5" r="0.6"/>
</g>
<g>
	<path class="st0" d="M5.1,22.2c-1.7,0-3.1-1.4-3.1-3.1s1.4-3.1,3.1-3.1s3.1,1.4,3.1,3.1S6.8,22.2,5.1,22.2z M5.1,17.1
		c-1.1,0-2.1,0.9-2.1,2.1s0.9,2.1,2.1,2.1s2.1-0.9,2.1-2.1S6.3,17.1,5.1,17.1z"/>
</g>
<g>
	<path class="st0" d="M65.1,39.5c-1.7,0-3.1-1.4-3.1-3.1c0-1.7,1.4-3.1,3.1-3.1s3.1,1.4,3.1,3.1C68.2,38.1,66.8,39.5,65.1,39.5z
		 M65.1,34.4c-1.1,0-2.1,0.9-2.1,2.1s0.9,2.1,2.1,2.1s2.1-0.9,2.1-2.1S66.3,34.4,65.1,34.4z"/>
</g>
<g>
	<path class="st0" d="M28.1,11c-1.2,0-2.1-0.9-2.1-2.1s0.9-2.1,2.1-2.1s2.1,0.9,2.1,2.1S29.2,11,28.1,11z M28.1,7.8
		c-0.6,0-1.1,0.5-1.1,1.1c0,0.6,0.5,1.1,1.1,1.1c0.6,0,1.1-0.5,1.1-1.1C29.2,8.3,28.7,7.8,28.1,7.8z"/>
</g>
<g>
	<path class="st0" d="M14.4,20.1c-0.3,0-0.5-0.2-0.5-0.5V19c0-1.7-1.4-3.1-3.1-3.1c-0.3,0-0.5-0.2-0.5-0.5s0.2-0.5,0.5-0.5
		c1.7,0,3.1-1.4,3.1-3.1v-0.7c0-0.3,0.2-0.5,0.5-0.5s0.5,0.2,0.5,0.5v0.7c0,1.7,1.4,3.1,3.1,3.1c0.3,0,0.5,0.2,0.5,0.5
		s-0.2,0.5-0.5,0.5c-1.7,0-3.1,1.4-3.1,3.1v0.7C14.9,19.9,14.7,20.1,14.4,20.1z M12.7,15.4c0.7,0.4,1.3,0.9,1.6,1.6
		c0.4-0.7,0.9-1.3,1.6-1.6c-0.7-0.4-1.3-0.9-1.6-1.6C14,14.4,13.4,15,12.7,15.4z"/>
</g>
<g>
	<path class="st0" d="M62,51.8c-0.3,0-0.5-0.2-0.5-0.5v-0.6c0-1.4-1.1-2.6-2.6-2.6c-0.3,0-0.5-0.2-0.5-0.5s0.2-0.5,0.5-0.5
		c1.4,0,2.6-1.1,2.6-2.6V44c0-0.3,0.2-0.5,0.5-0.5s0.5,0.2,0.5,0.5v0.6c0,1.4,1.1,2.6,2.6,2.6c0.3,0,0.5,0.2,0.5,0.5
		s-0.2,0.5-0.5,0.5c-1.4,0-2.6,1.1-2.6,2.6v0.6C62.5,51.6,62.3,51.8,62,51.8z M60.7,47.7c0.5,0.3,0.9,0.7,1.2,1.2
		c0.3-0.5,0.7-0.9,1.2-1.2c-0.5-0.3-0.9-0.7-1.2-1.2C61.7,46.9,61.3,47.4,60.7,47.7z"/>
</g>
<g>
	<path class="st0" d="M20.5,52.2H5.9c-0.3,0-0.5-0.2-0.5-0.5V25.4c0-0.3,0.2-0.5,0.5-0.5h18.9c0.2,0,0.4,0.1,0.5,0.3l0.4,0.8
		c0,0.1,0,0.1,0,0.2v24.3c0,0.2-0.1,0.4-0.3,0.5L24,51.6C22.9,52,21.7,52.2,20.5,52.2z M6.4,51.2h14.2c1.1,0,2.1-0.2,3.1-0.6l1-0.4
		V26.3l-0.2-0.4H6.4V51.2z"/>
</g>
<g>
	<path class="st0" d="M44.4,52.2H29.5c-1,0-2.1-0.2-3-0.6L24.9,51c-0.2-0.1-0.3-0.3-0.3-0.5V26.2c0-0.1,0-0.1,0-0.2l0.4-0.8
		c0.1-0.2,0.3-0.3,0.5-0.3h18.9c0.3,0,0.5,0.2,0.5,0.5v26.3C44.9,52,44.6,52.2,44.4,52.2z M25.6,50.2l1.2,0.5
		c0.8,0.4,1.7,0.5,2.6,0.5h14.4V25.9H25.8l-0.2,0.4V50.2z"/>
</g>
<g>
	<path class="st0" d="M25.3,55.4c-1.3,0-2.5-0.6-3.2-1.2H3.9c-0.3,0-0.5-0.2-0.5-0.5V27.6c0-0.2,0.1-0.3,0.2-0.4l1.9-1.3
		c0.2-0.2,0.5-0.1,0.7,0.1c0.2,0.2,0.1,0.5-0.1,0.7l-1.7,1.2v25.3h17.9c0.1,0,0.2,0,0.3,0.1c0.1,0.1,2.7,2.4,5.1,0
		c0.1-0.1,0.2-0.1,0.4-0.1h15.8v-1.4c0-0.3,0.2-0.5,0.5-0.5s0.5,0.2,0.5,0.5v1.9c0,0.3-0.2,0.5-0.5,0.5H28.3
		C27.3,55.1,26.3,55.4,25.3,55.4z"/>
</g>
<g>
	<path class="st0" d="M21.9,48.2h-13c-0.3,0-0.5-0.2-0.5-0.5v-10c0-0.3,0.2-0.5,0.5-0.5h13c0.3,0,0.5,0.2,0.5,0.5v10
		C22.4,48,22.2,48.2,21.9,48.2z M9.4,47.2h12v-9h-12V47.2z"/>
</g>
<g>
	<circle class="st1" cx="40.3" cy="36.6" r="10.3"/>
	<path class="st0" d="M40.3,47.4c-6,0-10.8-4.9-10.8-10.8c0-6,4.9-10.8,10.8-10.8s10.8,4.9,10.8,10.8C51.2,42.6,46.3,47.4,40.3,47.4
		z M40.3,26.7c-5.4,0-9.8,4.4-9.8,9.8s4.4,9.8,9.8,9.8s9.8-4.4,9.8-9.8S45.8,26.7,40.3,26.7z"/>
</g>
<g>
	<circle class="st1" cx="40.3" cy="36.6" r="6"/>
	<path class="st0" d="M40.3,43.1c-3.6,0-6.5-2.9-6.5-6.5s2.9-6.5,6.5-6.5s6.5,2.9,6.5,6.5S43.9,43.1,40.3,43.1z M40.3,31.1
		c-3,0-5.5,2.5-5.5,5.5s2.5,5.5,5.5,5.5s5.5-2.5,5.5-5.5S43.4,31.1,40.3,31.1z"/>
</g>
<g>
	<path class="st0" d="M53.1,57.6c-0.2,0-0.3,0-0.5,0c-0.8-0.1-1.5-0.6-1.9-1.3L44,46.4l0.8-0.6l6.7,9.9c0.3,0.4,0.8,0.7,1.3,0.8
		c0.5,0.1,1.1,0,1.5-0.3c0.9-0.6,1.1-1.8,0.5-2.7l-6.8-10.1l0.8-0.6L55.6,53c0.9,1.3,0.6,3.1-0.7,4.1C54.4,57.4,53.8,57.6,53.1,57.6
		z"/>
</g>
<g>
	<g>
		<path class="st0" d="M56.9,39.3c-0.1,0-0.2,0-0.3-0.1c-0.2-0.1-0.3-0.5-0.2-0.7c1.8-2.9,2.8-6.2,2.8-9.6c0-9.8-8-17.8-17.8-17.8
			c-7.3,0-13.7,4.3-16.5,11.1c-0.1,0.3-0.4,0.4-0.7,0.3c-0.3-0.1-0.4-0.4-0.3-0.7c2.9-7.1,9.8-11.7,17.4-11.7
			c10.4,0,18.8,8.5,18.8,18.8c0,3.6-1,7.1-3,10.1C57.2,39.2,57.1,39.3,56.9,39.3z"/>
	</g>
	<g>
		<g>
			<polygon class="st0" points="56.6,36.2 57.1,38.6 59.4,38.1 58.6,39.3 56.3,39.8 55.8,37.4 			"/>
		</g>
	</g>
</g>
<g>
	<path class="st0" d="M21.6,35.5H9.2c-0.4,0-0.8-0.4-0.8-0.8v-1.2c0-0.4,0.4-0.8,0.8-0.8h12.4c0.4,0,0.8,0.4,0.8,0.8v1.2
		C22.4,35.1,22.1,35.5,21.6,35.5z M9.4,34.5h12v-0.8h-12V34.5z"/>
</g>
<g>
	<path class="st0" d="M21.6,30.8H9.2c-0.4,0-0.8-0.4-0.8-0.8v-1.2c0-0.4,0.4-0.8,0.8-0.8h12.4c0.4,0,0.8,0.4,0.8,0.8V30
		C22.4,30.4,22.1,30.8,21.6,30.8z M9.4,29.8h12V29h-12V29.8z"/>
</g>
<g>
	<g>
		<circle class="st0" cx="37.6" cy="36.7" r="0.6"/>
	</g>
	<g>
		<circle class="st0" cx="43.1" cy="36.7" r="0.6"/>
	</g>
	<g>
		<circle class="st0" cx="40.3" cy="36.7" r="0.6"/>
	</g>
</g>
</svg>
