<?xml version="1.0" encoding="utf-8"?>
<!-- Generator: Adobe Illustrator 26.0.3, SVG Export Plug-In . SVG Version: 6.00 Build 0)  -->
<svg version="1.1" id="Layer_1" xmlns="http://www.w3.org/2000/svg" xmlns:xlink="http://www.w3.org/1999/xlink" x="0px" y="0px"
	 viewBox="0 0 70.2 64.4" style="enable-background:new 0 0 70.2 64.4;" xml:space="preserve">
<style type="text/css">
	.st0{fill:#48A88F;}
	.st1{fill:#FFFFFF;}
</style>
<g>
	<path class="st0" d="M36,38.9h-4.1c-0.3,0-0.5-0.2-0.5-0.5v-1.5c-0.2-0.1-0.3-0.1-0.5-0.2l-1.1,1.1c-0.2,0.2-0.5,0.2-0.7,0L26.1,35
		c-0.2-0.2-0.2-0.5,0-0.7l1.1-1.1c-0.1-0.2-0.2-0.4-0.2-0.6h-1.5c-0.3,0-0.5-0.2-0.5-0.5V28c0-0.3,0.2-0.5,0.5-0.5H27l0.2-0.5
		L26,25.8c-0.2-0.2-0.2-0.5,0-0.7l2.9-2.9c0.2-0.2,0.5-0.2,0.7,0l1.2,1.2l0.5-0.2v-1.6c0-0.3,0.2-0.5,0.5-0.5H36
		c0.3,0,0.5,0.2,0.5,0.5v1.6l0.5,0.2l1.2-1.2c0.2-0.2,0.5-0.2,0.7,0l2.9,2.9c0.2,0.2,0.2,0.5,0,0.7L40.6,27l0.2,0.5h1.4
		c0.3,0,0.5,0.2,0.5,0.5v4.1c0,0.3-0.2,0.5-0.5,0.5h-1.4c-0.1,0.2-0.2,0.4-0.2,0.6l1.1,1.1c0.1,0.1,0.1,0.2,0.1,0.4
		c0,0.1-0.1,0.3-0.1,0.4l-2.9,2.9c-0.2,0.2-0.5,0.2-0.7,0L37,36.7c-0.2,0.1-0.3,0.1-0.5,0.2v1.5C36.5,38.7,36.2,38.9,36,38.9z
		 M32.4,37.9h3.1v-1.4c0-0.2,0.1-0.4,0.3-0.5c0.3-0.1,0.7-0.2,1-0.4c0.2-0.1,0.4-0.1,0.6,0.1l1,1l2.2-2.2l-1-1
		c-0.2-0.2-0.2-0.4-0.1-0.6c0.2-0.3,0.3-0.7,0.5-1.1c0.1-0.2,0.3-0.3,0.5-0.3h1.2v-3.1h-1.2c-0.2,0-0.4-0.1-0.5-0.3L39.5,27
		c-0.1-0.2,0-0.4,0.1-0.5l1.1-1.1l-2.2-2.2l-1.1,1.1c-0.1,0.1-0.4,0.2-0.6,0.1l-1.1-0.5c-0.2-0.1-0.3-0.3-0.3-0.5V22h-3.1v1.5
		c0,0.2-0.1,0.4-0.3,0.5l-1.1,0.5c-0.2,0.1-0.4,0-0.6-0.1l-1.1-1.1l-2.2,2.2l1.1,1.1c0.1,0.1,0.2,0.4,0.1,0.5l-0.4,1.1
		c-0.1,0.2-0.3,0.3-0.5,0.3H26v3.1h1.4c0.2,0,0.4,0.1,0.5,0.3c0.1,0.4,0.3,0.7,0.5,1.1c0.1,0.2,0.1,0.4-0.1,0.6l-1,1l2.2,2.2l1-1
		c0.2-0.2,0.4-0.2,0.6-0.1c0.3,0.2,0.7,0.3,1,0.4c0.2,0.1,0.4,0.3,0.4,0.5V37.9z"/>
</g>
<g>
	<path class="st0" d="M19.8,10.4c-1.6,0-2.9-1.3-2.9-2.9s1.3-2.9,2.9-2.9s2.9,1.3,2.9,2.9S21.4,10.4,19.8,10.4z M19.8,5.6
		c-1,0-1.9,0.8-1.9,1.9s0.8,1.9,1.9,1.9s1.9-0.8,1.9-1.9S20.8,5.6,19.8,5.6z"/>
</g>
<g>
	<path class="st0" d="M54,53.7c-1.6,0-2.9-1.3-2.9-2.9s1.3-2.9,2.9-2.9s2.9,1.3,2.9,2.9S55.6,53.7,54,53.7z M54,48.9
		c-1,0-1.9,0.8-1.9,1.9s0.8,1.9,1.9,1.9s1.9-0.8,1.9-1.9S55.1,48.9,54,48.9z"/>
</g>
<g>
	<path class="st0" d="M26.5,9c-1.1,0-2-0.9-2-2s0.9-2,2-2s2,0.9,2,2S27.6,9,26.5,9z M26.5,6c-0.5,0-1,0.4-1,1s0.4,1,1,1s1-0.4,1-1
		S27.1,6,26.5,6z"/>
</g>
<g>
	<path class="st0" d="M41.4,55.8c-0.6,0-1.1-0.2-1.5-0.7c-0.3-0.3-0.5-0.8-0.5-1.3c0-1.1,0.9-1.9,1.9-1.9s1.9,0.9,1.9,1.9
		S42.4,55.8,41.4,55.8z M41.4,53c-0.5,0-0.9,0.4-0.9,0.9c0,0.2,0.1,0.4,0.2,0.6c0.2,0.2,0.4,0.3,0.7,0.3c0.5,0,0.9-0.4,0.9-0.9
		S41.9,53,41.4,53z"/>
</g>
<g>
	<path class="st0" d="M12.4,21.3c-0.3,0-0.5-0.2-0.5-0.5v-0.6c0-1.5-1.2-2.6-2.6-2.6c-0.3,0-0.5-0.2-0.5-0.5s0.2-0.5,0.5-0.5
		c1.5,0,2.6-1.2,2.6-2.6v-0.6c0-0.3,0.2-0.5,0.5-0.5s0.5,0.2,0.5,0.5v0.6c0,1.5,1.2,2.6,2.6,2.6c0.3,0,0.5,0.2,0.5,0.5
		s-0.2,0.5-0.5,0.5c-1.5,0-2.6,1.2-2.6,2.6v0.6C12.9,21.1,12.7,21.3,12.4,21.3z M11.1,17.1c0.5,0.3,1,0.8,1.3,1.3
		c0.3-0.5,0.8-1,1.3-1.3c-0.5-0.3-1-0.8-1.3-1.3C12.1,16.3,11.6,16.8,11.1,17.1z"/>
</g>
<g>
	<path class="st0" d="M58.8,47.9c-0.3,0-0.5-0.2-0.5-0.5v-0.5c0-1.1-0.9-2-2-2c-0.3,0-0.5-0.2-0.5-0.5s0.2-0.5,0.5-0.5
		c1.1,0,2-0.9,2-2v-0.5c0-0.3,0.2-0.5,0.5-0.5s0.5,0.2,0.5,0.5v0.5c0,1.1,0.9,2,2,2c0.3,0,0.5,0.2,0.5,0.5s-0.2,0.5-0.5,0.5
		c-1.1,0-2,0.9-2,2v0.5C59.3,47.7,59,47.9,58.8,47.9z M57.9,44.4c0.3,0.2,0.6,0.5,0.8,0.8c0.2-0.3,0.5-0.6,0.8-0.8
		c-0.3-0.2-0.6-0.5-0.8-0.8C58.5,43.9,58.2,44.2,57.9,44.4z"/>
</g>
<g>
	<path class="st0" d="M41.4,59.8c-2.7,0-5-2.2-5-5c0-2.7,2.2-5,5-5s5,2.2,5,5C46.3,57.5,44.1,59.8,41.4,59.8z M41.4,50.8
		c-2.2,0-4,1.8-4,4c0,2.2,1.8,4,4,4s4-1.8,4-4C45.3,52.6,43.5,50.8,41.4,50.8z"/>
</g>
<g>
	<g>
		<path class="st0" d="M13.7,45.9c-2.9,0-5.2-2.3-5.2-5.2s2.3-5.2,5.2-5.2s5.2,2.3,5.2,5.2S16.6,45.9,13.7,45.9z M13.7,36.5
			c-2.3,0-4.2,1.9-4.2,4.2s1.9,4.2,4.2,4.2s4.2-1.9,4.2-4.2S16,36.5,13.7,36.5z"/>
	</g>
	<g>
		<path class="st0" d="M13.7,39.6c-1.5,0-2.9-0.6-3.9-1.7l0.7-0.7c0.8,0.9,1.9,1.4,3.1,1.4s2.3-0.5,3.1-1.4l0.7,0.7
			C16.6,38.9,15.2,39.6,13.7,39.6z"/>
	</g>
	<g>
		<path class="st0" d="M16.8,44.6c-0.8-0.9-1.9-1.4-3.1-1.4s-2.3,0.5-3.1,1.4l-0.7-0.7c1-1.1,2.4-1.7,3.9-1.7s2.9,0.6,3.9,1.7
			L16.8,44.6z"/>
	</g>
	<g>
		<path class="st0" d="M13.7,45.5c-1.4,0-2-2.5-2-4.9s0.6-4.9,2-4.9s2,2.5,2,4.9S15.1,45.5,13.7,45.5z M13.7,36.8
			c-0.3,0-1,1.4-1,3.9s0.7,3.9,1,3.9s1-1.4,1-3.9S14,36.8,13.7,36.8z"/>
	</g>
	<g>
		<rect x="9" y="40.2" class="st0" width="9.4" height="1"/>
	</g>
</g>
<g>
	<path class="st0" d="M39,59c0-0.1-0.3-2.3,0.7-3.4c0.4-0.5,1-0.7,1.7-0.7v1c-0.4,0-0.7,0.1-0.9,0.4c-0.6,0.7-0.5,2.1-0.4,2.6L39,59
		z"/>
</g>
<g>
	<path class="st0" d="M43.5,59l-1-0.2c0.1-0.5,0.1-2-0.4-2.6c-0.2-0.3-0.5-0.4-0.9-0.4v-1c0.7,0,1.3,0.3,1.7,0.7
		C43.8,56.7,43.5,58.9,43.5,59z"/>
</g>
<g>
	<path class="st0" d="M41.8,15.3c-0.1,0-0.2,0-0.3-0.1c-0.1-0.1-0.2-0.2-0.2-0.4V6.6c0-0.3,0.2-0.5,0.5-0.5h11.2
		c0.3,0,0.5,0.2,0.5,0.5v6.3c0,0.3-0.2,0.5-0.5,0.5h-8.7C44.1,14.7,42.7,15.2,41.8,15.3C41.9,15.3,41.8,15.3,41.8,15.3z M42.3,7.1v7
		c0.5-0.2,1.1-0.5,1.1-1.2c0-0.3,0.2-0.5,0.5-0.5h8.6V7.1H42.3z"/>
</g>
<g>
	<path class="st0" d="M50.7,9.3h-6.3c-0.3,0-0.5-0.2-0.5-0.5s0.2-0.5,0.5-0.5h6.3c0.3,0,0.5,0.2,0.5,0.5S51,9.3,50.7,9.3z"/>
</g>
<g>
	<path class="st0" d="M50.7,11.4h-6.3c-0.3,0-0.5-0.2-0.5-0.5s0.2-0.5,0.5-0.5h6.3c0.3,0,0.5,0.2,0.5,0.5S51,11.4,50.7,11.4z"/>
</g>
<g>
	<path class="st0" d="M13.7,30.4c-0.3,0-0.5-0.2-0.5-0.5c0-11.4,9.3-20.7,20.7-20.7c0.3,0,0.5,0.2,0.5,0.5s-0.2,0.5-0.5,0.5
		c-10.8,0-19.7,8.8-19.7,19.7C14.2,30.2,14,30.4,13.7,30.4z"/>
</g>
<g>
	<path class="st0" d="M47.5,50.5c-0.2,0-0.3-0.1-0.4-0.2c-0.1-0.2-0.1-0.5,0.2-0.7c5.8-3.6,9.3-9.9,9.3-16.7c0-4.6-1.6-9-4.5-12.5
		c-0.2-0.2-0.1-0.5,0.1-0.7c0.2-0.2,0.5-0.1,0.7,0.1c3.1,3.7,4.7,8.4,4.7,13.2c0,7.2-3.7,13.8-9.8,17.6
		C47.6,50.5,47.6,50.5,47.5,50.5z"/>
</g>
<g>
	<path class="st0" d="M34.2,43.3C34.2,43.3,34.2,43.3,34.2,43.3c-7.5,0-13.7-6-13.7-13.3s6.1-13.3,13.7-13.3c7.7,0,16.7,4,16.7,15.3
		c0,0.3-0.2,0.5-0.5,0.5s-0.5-0.2-0.5-0.5c0-10.6-8.5-14.3-15.7-14.3c-7,0-12.7,5.5-12.7,12.3c0,6.8,5.7,12.3,12.7,12.3c0,0,0,0,0,0
		c0.3,0,6.9-0.1,9.2-6.4c0.1-0.3,0.4-0.4,0.6-0.3s0.4,0.4,0.3,0.6C41.8,43.2,34.3,43.3,34.2,43.3z"/>
</g>
<g>
	<circle class="st0" cx="44.3" cy="34.4" r="0.5"/>
</g>
<g>
	<circle class="st0" cx="13.7" cy="31.6" r="0.5"/>
</g>
<g>
	<path class="st0" d="M33,49.8c-3.6,0-7-1-9.9-3c-0.2-0.2-0.3-0.5-0.1-0.7c0.2-0.2,0.5-0.3,0.7-0.1c2.8,1.8,6,2.8,9.4,2.8
		c9.3,0,16.9-7.6,16.9-16.9c0-0.3,0.2-0.5,0.5-0.5s0.5,0.2,0.5,0.5C50.9,41.8,42.9,49.8,33,49.8z"/>
</g>
<g>
	<circle class="st1" cx="33.8" cy="29.9" r="3.8"/>
	<path class="st0" d="M33.8,34.3c-2.4,0-4.3-1.9-4.3-4.3c0-2.4,1.9-4.3,4.3-4.3c2.4,0,4.3,1.9,4.3,4.3
		C38.2,32.3,36.2,34.3,33.8,34.3z M33.8,26.6c-1.8,0-3.3,1.5-3.3,3.3s1.5,3.3,3.3,3.3s3.3-1.5,3.3-3.3S35.7,26.6,33.8,26.6z"/>
</g>
</svg>
