<svg id="Layer_1" data-name="Layer 1" xmlns="http://www.w3.org/2000/svg" viewBox="0 0 575.73 241.94"><defs><style>.cls-1{fill:#a7a9ac;}.cls-2{fill:#231f20;}</style></defs><polygon class="cls-1" points="575.51 183.45 558.38 166.32 558.38 142.09 534.16 142.09 517.02 124.94 499.88 142.09 475.66 142.09 475.66 166.32 458.52 183.45 475.66 200.57 475.66 224.81 499.88 224.81 517.02 241.94 534.16 224.81 558.38 224.81 558.38 200.57 575.51 183.45"/><polygon class="cls-2" points="564.34 59.05 575.73 51.28 562.7 46.73 571.7 36.26 557.94 35.23 563.93 22.8 550.37 25.35 552.95 11.8 540.49 17.8 539.48 4.04 529.01 13.05 524.46 0 516.69 11.41 508.91 0 504.36 13.05 493.89 4.04 492.87 17.8 480.43 11.8 482.99 25.35 469.41 22.8 475.4 35.23 461.65 36.26 470.66 46.73 457.64 51.28 469.05 59.05 457.64 66.83 470.66 71.38 461.65 81.84 475.4 82.87 469.41 95.31 482.99 92.76 480.43 106.3 492.87 100.31 493.89 114.08 504.36 105.08 508.91 118.11 516.69 106.71 524.46 118.11 529.01 105.08 539.48 114.08 540.49 100.31 552.95 106.3 550.37 92.76 563.93 95.31 557.94 82.87 571.7 81.84 562.7 71.38 575.73 66.83 564.34 59.05"/><path class="cls-2" d="M84.26,85.87c0-4.16-1.62-5.5-3.6-5.5s-3.59,1.34-3.59,5.5,1.57,5.34,3.59,5.34S84.26,89.91,84.26,85.87Z" transform="translate(-10.04 -6.89)"/><path class="cls-2" d="M96.18,113.69c-2.83,0-3.88,2.15-3.88,5.79s1.42,5.74,3.84,5.74c2.79,0,4-2.23,4-5.7C100.18,115.51,98.89,113.69,96.18,113.69Z" transform="translate(-10.04 -6.89)"/><path class="cls-2" d="M37.5,57.86c2.78,0,4-2.23,4-5.7,0-4-1.29-5.83-4-5.83s-3.88,2.15-3.88,5.79S35.07,57.86,37.5,57.86Z" transform="translate(-10.04 -6.89)"/><path class="cls-2" d="M63,46c-2.18,0-3.2,1.46-3.44,3.64h6.31C65.75,47.51,64.34,46,63,46Z" transform="translate(-10.04 -6.89)"/><path class="cls-2" d="M117.77,51.06a2.47,2.47,0,0,0,2.78-2.75c0-1.77-.85-2.74-2.78-2.74A2.43,2.43,0,0,0,115,48.31C115,49.93,115.7,51.06,117.77,51.06Z" transform="translate(-10.04 -6.89)"/><path class="cls-2" d="M116.22,79.65c-2.18,0-3.19,1.46-3.43,3.64h6.3C119,81.18,117.59,79.65,116.22,79.65Z" transform="translate(-10.04 -6.89)"/><path class="cls-2" d="M117.89,65.53c3.47,0,4.4-.93,4.4-2.05,0-.46-.24-1.06-1.62-1.06h-5.21c-1.17,0-1.66.44-1.66,1.33C113.8,65,115,65.53,117.89,65.53Z" transform="translate(-10.04 -6.89)"/><path class="cls-2" d="M60.21,114.06c-2,0-3.59,1.34-3.59,5.5s1.58,5.33,3.59,5.33,3.6-1.3,3.6-5.33S62.19,114.06,60.21,114.06Z" transform="translate(-10.04 -6.89)"/><path class="cls-2" d="M469.92,15.55H372l-47.52,80v-80H228.13V78.83C222,38.69,193.76,15.55,141.28,15.55H10V239.46H141.62c49.14,0,80.06-23.78,86.51-64.61v64.61h96.36v-64.7l12.72-21.85,32.51,86.55H470l-57.24-133ZM131,41.57h7.6V44.8h.16A7,7,0,0,1,145,41c3.35,0,7.31,1.37,7.31,7.6v14h-7.64V48.48c0-1.74-.93-2.47-2.63-2.47-2.54,0-3.31,2-3.31,5.1V62.63H131Zm-1.21,33.67h7.6v3.24h.15a7,7,0,0,1,6.19-3.8c3.35,0,7.31,1.37,7.31,7.59v14h-7.64V82.15c0-1.73-.93-2.46-2.62-2.46-2.55,0-3.32,2-3.32,5.09V96.3h-7.67Zm-19-14.48V60.6c-2.1-.93-2.75-2.26-2.75-3.68a3.77,3.77,0,0,1,2.71-3.51v-.08a6.16,6.16,0,0,1-2.63-5.22c0-5,4.29-7.27,9.59-7.27a14.25,14.25,0,0,1,4.56.73c1-2.23,3.52-3.2,6-3.2h.89v5.17a5.21,5.21,0,0,0-3.11.57,6.62,6.62,0,0,1,1.25,4c0,4.93-4.12,7.32-9.61,7.32a14.43,14.43,0,0,1-3.08-.37,1.22,1.22,0,0,0-.57,1c0,.69.73,1,2.11,1H122c4.56,0,7.15,1.75,7.15,5.22,0,5-4.89,8-11.72,8-5.54,0-10.31-2.06-10.31-5.66A3.76,3.76,0,0,1,110.85,60.76ZM97.59,34.09h7.64v5.54H97.59Zm0,7.48h7.64V62.63H97.59Zm4.65,26.2V96.3H94.61V67.77Zm-26-20.06c0-4.85,5.41-6.71,9.29-6.71a11,11,0,0,1,8.94,4.2L89,48.31a4.1,4.1,0,0,0-3.59-2.22c-1.41,0-2.3.49-2.3,1.21,0,2.75,12.25.89,12.25,8.9,0,5.45-5.5,7-9.87,7-5.42,0-9.25-1.86-10.22-5.94l6.38-2c.25,2.06,2,3.07,4.16,3.07,1.75,0,2.39-.89,2.39-1.66C88.18,53.21,76.22,56.08,76.22,47.71ZM63,41c8.69,0,10.51,6.35,10.51,12.49H59.44c.29,3.36,2.07,4.48,3.93,4.48,1.49,0,3.31-.2,4-2.95l6.1,1.78c-2,4.69-5.42,6.43-10.51,6.43-7.72,0-11.11-5.29-11.11-11S55.28,41,63,41Zm-.89,34.24H70L62.8,83.45,70.44,96.3H61.79L58,88.9l-2.63,2.95V96.3H47.73V67.77h7.63v16ZM35.39,41c3,0,4.86,1,5.78,3h.17v-10H49v28.7H41.86l-.36-2.88h-.16a7.14,7.14,0,0,1-6.11,3.48c-5.49,0-9.13-3.51-9.13-11.07C26.1,46.33,29.74,41,35.39,41Zm-10,50,6.39-2c.24,2.07,2,3.08,4.16,3.08,1.74,0,2.39-.89,2.39-1.66,0-3.51-12-.65-12-9,0-4.84,5.41-6.7,9.29-6.7a11,11,0,0,1,8.93,4.2L39.11,82a4.12,4.12,0,0,0-3.59-2.22c-1.41,0-2.31.49-2.31,1.21,0,2.75,12.25.89,12.25,8.89,0,5.46-5.5,7-9.86,7C30.18,96.91,26.35,95.05,25.37,91Zm16,39-3.81-7.4-2.62,3V130H27.27V101.45h7.64v16l6.75-8.49h7.92l-7.24,8.21L50,130Zm18.87.61c-7.72,0-11.07-5.34-11.07-11s3.35-11.2,11.07-11.2,11.08,5.46,11.08,11.2S67.93,130.59,60.21,130.59Zm9.38-44.72c0-5.73,3.35-11.19,11.07-11.19s11.08,5.46,11.08,11.19-3.36,11-11.08,11S69.59,91.57,69.59,85.87ZM81.79,130H74.15V101.45h7.64Zm25.83,0H100.5l-.36-2.87H100a7.13,7.13,0,0,1-6.11,3.48c-5.49,0-9.13-3.52-9.13-11.07,0-5.83,3.64-11.16,9.3-11.16,3,0,4.85,1,5.78,3H100v-10h7.64Zm-2.47-44.11c0-5.69,3.39-11.19,11.11-11.19,8.7,0,10.51,6.34,10.51,12.49H112.71c.28,3.35,2.06,4.48,3.92,4.48,1.49,0,3.31-.2,4-3l6.1,1.78c-2,4.69-5.42,6.43-10.51,6.43C108.54,96.91,105.15,91.62,105.15,85.87ZM118.77,130h-7.63V108.92h7.63Zm0-23h-7.63v-5.54h7.63Zm24.77,23H135.9V115.84c0-1.74-.92-2.47-2.62-2.47-2.55,0-3.32,2-3.32,5.1V130h-7.67V108.92h7.6v3.24h.16a6.94,6.94,0,0,1,6.18-3.8c3.35,0,7.31,1.37,7.31,7.6Zm24-19.07c-1.37,0-2.46,0-3.11.56a6.55,6.55,0,0,1,1.25,4c0,4.93-4.12,7.32-9.61,7.32a15,15,0,0,1-3.08-.36,1.18,1.18,0,0,0-.56,1c0,.69.72,1,2.1,1h5.74c4.56,0,7.16,1.74,7.16,5.22,0,5-4.9,8-11.73,8-5.53,0-10.31-2.06-10.31-5.66a3.74,3.74,0,0,1,3.76-3.76V128c-2.1-.93-2.75-2.26-2.75-3.68a3.77,3.77,0,0,1,2.71-3.51v-.08a6.15,6.15,0,0,1-2.62-5.22c0-5,4.28-7.27,9.58-7.27a14.54,14.54,0,0,1,4.56.72c1-2.22,3.51-3.19,6-3.19h.89Z" transform="translate(-10.04 -6.89)"/><path class="cls-2" d="M156,112.93a2.43,2.43,0,0,0-2.76,2.74c0,1.62.69,2.75,2.76,2.75a2.46,2.46,0,0,0,2.78-2.75C158.82,113.9,158,112.93,156,112.93Z" transform="translate(-10.04 -6.89)"/><path class="cls-2" d="M156.16,132.89c3.47,0,4.4-.93,4.4-2.06,0-.44-.24-1.05-1.61-1.05h-5.22c-1.17,0-1.65.44-1.65,1.33C152.08,132.37,153.25,132.89,156.16,132.89Z" transform="translate(-10.04 -6.89)"/></svg>