<svg xmlns="http://www.w3.org/2000/svg" xmlns:xlink="http://www.w3.org/1999/xlink" version="1.1" x="0px" y="0px" viewBox="0 0 100 125" style="enable-background:new 0 0 100 100;" xml:space="preserve"><path d="M87.3,88.5c5.4-5.9,8.7-13.7,8.6-22.2c0-8.9-3.6-17-9.5-22.9c-2.5,21-20.6,37.2-42.4,37.1l-10.5,0  c5.3,11.1,16.6,18.8,29.7,18.7L99,99L87.3,88.5z"/><path d="M71.4,12C64.5,5,55.2,1.1,45.3,1C24.8,1,8.2,17.6,8.2,38c0,8.4,2.8,16.5,7.8,22.9l0.3,0.4L1,75l44.2,0.1  c20.4,0,37-16.6,37-37C82.3,28.2,78.4,18.9,71.4,12z M45.3,70.4l-31.6-0.1l9.6-8.6l-1.7-1.8c-5.5-6-8.5-13.8-8.5-21.9  c0-17.7,14.4-32.1,32.2-32.1c8.7,0,16.8,3.4,22.8,9.5c6,6.2,9.4,14.3,9.4,22.8C77.5,56,63,70.4,45.3,70.4z"/><rect x="28.8" y="33.6" width="6.3" height="16.9"/><polygon points="47.8,23.2 38.3,33.5 38.3,50.6 59.1,50.6 63,32.7 48.9,32.7 51.8,23.9 "/><text x="0" y="115" fill="#000000" font-size="5px" font-weight="bold" font-family="'Helvetica Neue', Helvetica, Arial-Unicode, Arial, Sans-serif">Created by Aneeque Ahmed</text><text x="0" y="120" fill="#000000" font-size="5px" font-weight="bold" font-family="'Helvetica Neue', Helvetica, Arial-Unicode, Arial, Sans-serif">from the Noun Project</text></svg>