<svg xmlns="http://www.w3.org/2000/svg" xmlns:xlink="http://www.w3.org/1999/xlink" version="1.1" x="0px" y="0px" viewBox="0 0 64 80" style="enable-background:new 0 0 64 64;" xml:space="preserve"><g><circle cx="49" cy="45" r="1"/><path d="M48.586,14L45,10.414l-5.336,5.336c1.571,0.75,3.017,1.719,4.301,2.871L48.586,14z"/><path d="M33.918,19.008C33.946,19.008,33.972,19,34,19c2.757,0,5,2.243,5,5s-2.243,5-5,5h-5v3c0,0.552,0.449,1,1,1h8   c1.654,0,3,1.346,3,3s-1.346,3-3,3H28c-0.551,0-1,0.448-1,1s0.449,1,1,1h2c1.654,0,3,1.346,3,3v5h4c0.203,0,0.401,0.021,0.592,0.06   c1.142-2.807,3.104-4.733,5.014-6.596C45.38,39.759,48,37.203,48,32c0-8.166-6.264-15.008-14.236-15.896   C33.912,16.713,34,17.346,34,18C34,18.34,33.961,18.674,33.918,19.008z"/><path d="M44.176,43.726C44.067,44.141,44,44.567,44,45c0,2.757,2.243,5,5,5s5-2.243,5-5s-2.243-5-5-5   c-0.587,0-1.153,0.117-1.697,0.315C46.361,41.573,45.267,42.661,44.176,43.726z M52,45c0,1.654-1.346,3-3,3s-3-1.346-3-3   s1.346-3,3-3S52,43.346,52,45z"/><path d="M21.394,42.464c1.91,1.863,3.872,3.789,5.014,6.596C26.599,49.021,26.797,49,27,49h4v-5c0-0.552-0.449-1-1-1h-2   c-1.654,0-3-1.346-3-3s1.346-3,3-3h10c0.551,0,1-0.448,1-1s-0.449-1-1-1h-8c-1.654,0-3-1.346-3-3v-3H16.308   C16.121,29.987,16,30.989,16,32C16,37.203,18.62,39.759,21.394,42.464z"/><path d="M48.245,24.341L53.586,19L50,15.414l-4.623,4.623C46.528,21.323,47.496,22.769,48.245,24.341z"/><path d="M59.222,13.364C60.369,12.218,61,10.692,61,9.071C61,5.724,58.276,3,54.929,3c-1.622,0-3.146,0.632-4.293,1.778L49.414,6   L58,14.586L59.222,13.364z"/><rect x="50.379" y="6.429" transform="matrix(0.7071 -0.7071 0.7071 0.7071 6.2451 40.0772)" width="2.243" height="12.142"/><path d="M32,61c1.477,0,2.794-0.786,3.524-2h-7.048C29.206,60.214,30.523,61,32,61z"/><path d="M37,55H27c-0.551,0-1,0.448-1,1s0.449,1,1,1h10c0.551,0,1-0.448,1-1S37.551,55,37,55z"/><path d="M13.414,52L17,55.586l6.979-6.979c-0.842-1.504-1.983-2.738-3.214-3.957L13.414,52z"/><path d="M57.327,41.58c-0.629-1.509-0.299-3.191,0.827-4.318l0.042-0.042l-1.416-1.416l-0.042,0.042   c-1.127,1.128-2.812,1.458-4.287,0.84C50.95,36.066,50,34.646,50,33.055V33h-0.032c-0.117,1.981-0.582,3.609-1.259,5.014   C48.807,38.01,48.902,38,49,38c3.86,0,7,3.141,7,7s-3.14,7-7,7c-3.565,0-6.51-2.681-6.94-6.131c-1.135,1.24-2.11,2.582-2.732,4.262   C39.742,50.646,40,51.29,40,52c0,0.294-0.056,0.572-0.135,0.841l1.355,1.355l0.042-0.042c1.126-1.127,2.808-1.458,4.287-0.841   C47.05,53.935,48,55.354,48,56.945V57h2v-0.055c0-1.591,0.95-3.011,2.42-3.618c1.507-0.632,3.19-0.301,4.319,0.827l0.042,0.042   l1.416-1.416l-0.042-0.042c-1.126-1.127-1.456-2.81-0.84-4.286C57.934,46.95,59.354,46,60.945,46H61v-2h-0.055   C59.354,44,57.934,43.05,57.327,41.58z"/><path d="M37,51H27c-0.551,0-1,0.448-1,1s0.449,1,1,1h10c0.551,0,1-0.448,1-1S37.551,51,37,51z"/><polygon points="4.833,55.419 8.581,59.167 15.205,56.619 7.381,48.795  "/><path d="M7,27h27c1.654,0,3-1.346,3-3s-1.346-3-3-3s-3,1.346-3,3h-2c0-1.956,1.14-3.636,2.78-4.457C31.914,19.041,32,18.526,32,18   c0-3.309-2.691-6-6-6c-3.024,0-5.525,2.25-5.935,5.162C21.752,17.632,23,19.165,23,21h-2c0-1.103-0.897-2-2-2s-2,0.897-2,2h-2   c0-1.877,1.304-3.444,3.05-3.874c0.281-2.571,1.787-4.775,3.919-6.025C20.565,8.59,17.925,7,15,7c-4.411,0-8,3.589-8,8   c0,0.684,0.086,1.359,0.256,2.013C10.445,17.148,13,19.778,13,23h-2c0-2.206-1.794-4-4-4s-4,1.794-4,4S4.794,27,7,27z"/><path d="M12,50.586l7.337-7.337c-1.19-1.174-2.355-2.404-3.293-3.879L8.414,47L12,50.586z"/><path d="M3.045,60.067C3.016,60.146,3,60.229,3,60.313c0,0.464,0.501,0.809,0.934,0.641l2.604-1.002l-2.491-2.491L3.045,60.067z"/></g><text x="0" y="79" fill="#000000" font-size="5px" font-weight="bold" font-family="'Helvetica Neue', Helvetica, Arial-Unicode, Arial, Sans-serif">Created by Eucalyp</text><text x="0" y="84" fill="#000000" font-size="5px" font-weight="bold" font-family="'Helvetica Neue', Helvetica, Arial-Unicode, Arial, Sans-serif">from the Noun Project</text></svg>