<svg xmlns="http://www.w3.org/2000/svg" viewBox="0 0 64 80" x="0px" y="0px"><g data-name="Layer 22"><path d="M18,9a1,1,0,0,0,1-1V4a1,1,0,0,0-2,0V8A1,1,0,0,0,18,9Z"/><path d="M45,43.274a7.954,7.954,0,0,0,0-10.548Z"/><path d="M8,9A1,1,0,0,0,9,8V4A1,1,0,0,0,7,4V8A1,1,0,0,0,8,9Z"/><path d="M38,9a1,1,0,0,0,1-1V4a1,1,0,0,0-2,0V8A1,1,0,0,0,38,9Z"/><path d="M39,26A12,12,0,1,0,51,38,12.013,12.013,0,0,0,39,26Zm0,22A10,10,0,1,1,49,38,10.011,10.011,0,0,1,39,48Z"/><path d="M28,9a1,1,0,0,0,1-1V4a1,1,0,0,0-2,0V8A1,1,0,0,0,28,9Z"/><path d="M47,55a1,1,0,0,1,.293-.707L47.586,54,45,51.414V56a3,3,0,0,1-3,3H9v1a1,1,0,0,0,1,1H48a1,1,0,0,0,1-1V57.414l-1.707-1.707A1,1,0,0,1,47,55Z"/><path d="M50.093,46.507a14.076,14.076,0,0,1-3.77,3.4L49,52.586,52.586,49Z"/><path d="M59.843,54.257,55,49.414,49.414,55l4.843,4.843h0a3.95,3.95,0,0,0,5.585-5.586Z"/><path d="M31,38a7.986,7.986,0,0,0,12,6.918V31.082A7.986,7.986,0,0,0,31,38Z"/><path d="M49,12a1,1,0,0,0-1-1H45V25.37a14.068,14.068,0,0,1,4,2.851Z"/><path d="M43,56V51.41A13.969,13.969,0,0,1,25.939,33H5V31H26.894a14.072,14.072,0,0,1,1.4-2H5V27H30.368A13.9,13.9,0,0,1,43,24.59V8a1,1,0,0,0-1-1H41V8a3,3,0,0,1-6,0V7H31V8a3,3,0,0,1-6,0V7H21V8a3,3,0,0,1-6,0V7H11V8A3,3,0,0,1,5,8V7H4A1,1,0,0,0,3,8V56a1,1,0,0,0,1,1H42A1,1,0,0,0,43,56ZM8,15H38v2H8ZM5,19H41v2H5Zm0,4H31v2H5ZM25.553,53.9l-3.63-1.815-5.607,1.868a1,1,0,0,1-1.211-.5l-2.92-5.841-2.236,6.71A1,1,0,0,1,9,55H5V53H8.279l2.772-8.316a1,1,0,0,1,1.844-.131l3.611,7.224,5.178-1.725a.988.988,0,0,1,.763.053l4,2Z"/></g><text x="0" y="79" fill="#000000" font-size="5px" font-weight="bold" font-family="'Helvetica Neue', Helvetica, Arial-Unicode, Arial, Sans-serif">Created by nareerat jaikaew</text><text x="0" y="84" fill="#000000" font-size="5px" font-weight="bold" font-family="'Helvetica Neue', Helvetica, Arial-Unicode, Arial, Sans-serif">from the Noun Project</text></svg>