<?xml version="1.0" encoding="UTF-8"?>
<svg width="700pt" height="700pt" version="1.1" viewBox="0 0 700 700" xmlns="http://www.w3.org/2000/svg">
 <g>
  <path d="m350 58.332c-57.988 0-105 47.012-105 105v140c0 57.992 47.012 105 105 105s105-47.008 105-105v-140c0-57.988-47.012-105-105-105zm0-35c77.32 0 140 62.68 140 140v140c0 77.32-62.68 140-140 140s-140-62.68-140-140v-140c0-77.32 62.68-140 140-140z"/>
  <path d="m332.5 128.33c0-9.6641 7.8359-17.5 17.5-17.5s17.5 7.8359 17.5 17.5v93.336c0 9.6641-7.8359 17.5-17.5 17.5s-17.5-7.8359-17.5-17.5z"/>
  <path d="m358.68 540.2c-8.3945 4.793-19.082 1.8789-23.879-6.5117-4.793-8.3945-1.8789-19.082 6.5117-23.879l81.668-46.664c8.3906-4.7969 19.082-1.8828 23.875 6.5117 4.7969 8.3906 1.8828 19.078-6.5117 23.875z"/>
  <path d="m358.68 509.8c8.3906 4.7969 11.305 15.484 6.5117 23.879-4.7969 8.3906-15.484 11.305-23.879 6.5117l-81.664-46.668c-8.3945-4.7969-11.309-15.484-6.5117-23.875 4.793-8.3945 15.484-11.309 23.875-6.5117z"/>
 </g>
</svg>
