<svg xmlns="http://www.w3.org/2000/svg" data-name="Layer 1" viewBox="0 0 64 80" x="0px" y="0px"><path d="M37.547,20.393a11.871,11.871,0,0,0-2.017-.834,1.273,1.273,0,0,1-.879-1.222v-.028a1.293,1.293,0,0,0-1.293-1.294H30.611a1.293,1.293,0,0,0-1.293,1.294,1.311,1.311,0,0,1-.906,1.258,11.88,11.88,0,0,0-1.99.826,1.311,1.311,0,0,1-1.535-.247h0a1.293,1.293,0,0,0-1.829,0l-1.942,1.942a1.293,1.293,0,0,0,0,1.829l0,0a1.314,1.314,0,0,1,.247,1.535,11.884,11.884,0,0,0-.827,1.99,1.311,1.311,0,0,1-1.258.906,1.293,1.293,0,0,0-1.293,1.293v1.373h6.461a7.539,7.539,0,0,1,15.077,0h6.462V29.642a1.293,1.293,0,0,0-1.294-1.293,1.311,1.311,0,0,1-1.258-.906,11.88,11.88,0,0,0-.826-1.99,1.311,1.311,0,0,1,.247-1.535v0a1.293,1.293,0,0,0,0-1.829l-1.942-1.942a1.293,1.293,0,0,0-1.829,0h0A1.311,1.311,0,0,1,37.547,20.393Z"/><rect x="31" y="10" width="2" height="4"/><path d="M40,12.414l1.707-1.707L40.293,9.293l-2,2A1,1,0,0,0,38,12v4h2Z"/><path d="M22.293,10.707,24,12.414V16h2V12a1,1,0,0,0-.293-.707l-2-2Z"/><circle cx="32" cy="5" r="3"/><circle cx="45" cy="7" r="3"/><circle cx="19" cy="7" r="3"/><path d="M59.94,34a1.52,1.52,0,0,0-1.36.841L54,44l-3,3-4,2,3.112-5.445a1.919,1.919,0,0,0-3.2-2.1L42,48l-2,6-1,8h9V58.07a2,2,0,0,1,.891-1.664L54,53l4-6,3.394-11.031A1.521,1.521,0,0,0,59.94,34Z"/><path d="M15.109,56.406A2,2,0,0,1,16,58.07V62h9l-1-8-2-6-4.911-6.548a1.919,1.919,0,0,0-3.2,2.1L17,49l-4-2-3-3L5.42,34.841a1.521,1.521,0,0,0-2.814,1.128L6,47l4,6Z"/><path d="M33,39.278v4.265c1.2.029,2.366.108,3.481.235a16.82,16.82,0,0,0,1.8-4.094A45.172,45.172,0,0,0,33,39.278Z"/><path d="M39.334,32.982H33v4.291a46.989,46.989,0,0,1,5.774.452A28,28,0,0,0,39.334,32.982Z"/><path d="M31,32.982H24.666a28,28,0,0,0,.558,4.743A46.989,46.989,0,0,1,31,37.273Z"/><path d="M44,41.008a25.248,25.248,0,0,0-3.715-.991,20.063,20.063,0,0,1-1.64,4.08c.6.11,1.17.237,1.712.377A15.151,15.151,0,0,0,44,41.008Z"/><path d="M32,45.533a36.453,36.453,0,0,0-5.549.408,14.872,14.872,0,0,0,11.1,0A36.453,36.453,0,0,0,32,45.533Z"/><path d="M46.985,32.982H41.339a29.969,29.969,0,0,1-.576,5.082A25.669,25.669,0,0,1,45.121,39.3,14.93,14.93,0,0,0,46.985,32.982Z"/><path d="M23.237,38.064a29.969,29.969,0,0,1-.576-5.082H17.015A14.93,14.93,0,0,0,18.879,39.3,25.669,25.669,0,0,1,23.237,38.064Z"/><path d="M23.648,44.474c.542-.14,1.112-.267,1.712-.377a20.063,20.063,0,0,1-1.64-4.08,25.248,25.248,0,0,0-3.715.991A15.151,15.151,0,0,0,23.648,44.474Z"/><path d="M31,43.543V39.278a45.172,45.172,0,0,0-5.276.406,16.82,16.82,0,0,0,1.795,4.094C28.632,43.651,29.8,43.572,31,43.543Z"/><text x="0" y="79" fill="#000000" font-size="5px" font-weight="bold" font-family="'Helvetica Neue', Helvetica, Arial-Unicode, Arial, Sans-serif">Created by Kamin Ginkaew</text><text x="0" y="84" fill="#000000" font-size="5px" font-weight="bold" font-family="'Helvetica Neue', Helvetica, Arial-Unicode, Arial, Sans-serif">from the Noun Project</text></svg>