<?xml version="1.0" encoding="utf-8"?>
<!-- Generator: Adobe Illustrator 26.0.3, SVG Export Plug-In . SVG Version: 6.00 Build 0)  -->
<svg version="1.1" id="Layer_1" xmlns="http://www.w3.org/2000/svg" xmlns:xlink="http://www.w3.org/1999/xlink" x="0px" y="0px"
	 viewBox="0 0 841.9 595.3" style="enable-background:new 0 0 841.9 595.3;" xml:space="preserve">
<style type="text/css">
	.st0{fill:#1D1A28;}
	.st1{fill:#FFFFFF;}
	.st2{fill:#D2D8EA;}
</style>
<g>
	<path class="st0" d="M245.6,162.1h-23c-2.4,0-4.3-1.9-4.3-4.3v-7.3c-0.3-0.1-0.6-0.2-0.9-0.4l-5.6,5.6c-1.6,1.6-4.5,1.6-6.1,0
		l-16-16c-1.7-1.7-1.7-4.4,0-6.1l5.4-5.4c-0.2-0.4-0.4-0.9-0.6-1.3h-7.5c-2.4,0-4.3-1.9-4.3-4.3v-23c0-2.4,1.9-4.3,4.3-4.3h7.5
		l0.4-1l-5.9-5.9c-1.7-1.7-1.7-4.4,0-6.1l16.2-16.2c1.7-1.7,4.4-1.7,6.1,0l5.8,5.8l1.1-0.5v-8.2c0-2.4,1.9-4.3,4.3-4.3h23
		c2.4,0,4.3,1.9,4.3,4.3v8.2l1.1,0.5l5.8-5.8c1.6-1.6,4.5-1.6,6.1,0L279,82.4c0.8,0.8,1.3,1.9,1.3,3c0,1.1-0.5,2.2-1.3,3l-5.9,5.9
		l0.4,1h6.8c2.4,0,4.3,1.9,4.3,4.3v23c0,2.4-1.9,4.3-4.3,4.3h-6.7c-0.2,0.4-0.4,0.9-0.6,1.3l5.4,5.4c1.7,1.7,1.7,4.4,0,6.1l-16,16
		c-1.7,1.7-4.4,1.7-6.1,0l-5.6-5.6c-0.3,0.1-0.6,0.3-0.9,0.4v7.4C249.9,160.1,248,162.1,245.6,162.1z M226.9,153.5h14.4v-6.1
		c0-1.9,1.2-3.5,3-4.1c1.8-0.6,3.6-1.3,5.4-2.2c1.7-0.9,3.7-0.5,5,0.8l4.7,4.7l9.9-9.9l-4.5-4.5c-1.3-1.3-1.6-3.4-0.7-5.1
		c1-1.8,1.8-3.7,2.4-5.7c0.6-1.8,2.2-3,4.1-3h5.5v-14.4h-5.4c-1.7,0-3.3-1.1-4-2.7l-2.6-6.3c-0.6-1.6-0.3-3.4,0.9-4.6l4.8-4.8
		l-10.2-10.2l-4.8,4.8c-1.2,1.2-3.1,1.6-4.7,0.9l-6.4-2.7c-1.6-0.7-2.6-2.2-2.6-3.9v-6.7h-14.4v6.7c0,1.7-1,3.2-2.6,3.9L218,81
		c-1.6,0.7-3.5,0.4-4.8-0.9l-4.8-4.8l-10.2,10.1l4.8,4.8c1.2,1.2,1.6,3,1,4.6l-2.5,6.3c-0.6,1.6-2.2,2.7-4,2.7h-6.2v14.4h6.3
		c1.9,0,3.5,1.2,4.1,3c0.6,2,1.5,3.9,2.4,5.7c0.9,1.7,0.6,3.7-0.7,5.1l-4.6,4.6l9.9,9.9l4.6-4.6c1.3-1.4,3.4-1.8,5.1-0.9
		c1.8,0.9,3.6,1.7,5.4,2.3c1.8,0.6,3,2.2,3,4.1V153.5z"/>
</g>
<g>
	<circle class="st1" cx="233.7" cy="110.5" r="21.4"/>
	<path class="st0" d="M233.7,136.3c-14.2,0-25.7-11.5-25.7-25.7s11.5-25.7,25.7-25.7s25.7,11.5,25.7,25.7S247.9,136.3,233.7,136.3z
		 M233.7,93.4c-9.5,0-17.1,7.7-17.1,17.1s7.7,17.1,17.1,17.1s17.1-7.7,17.1-17.1S243.2,93.4,233.7,93.4z"/>
</g>
<g id="Rectangle_311_00000031188705592917396990000008870024791393725094_">
	<path class="st2" d="M648.5,81.3v36.9c0,7.6-16,13.8-35.7,13.8H371.5c-19.7,0-35.7-6.2-35.7-13.8V81.3c0-7.6,16-13.8,35.7-13.8
		h241.2C632.5,67.5,648.5,73.7,648.5,81.3z"/>
</g>
<g id="Rectangle_311_00000160876046206308663390000002081890977616059052_">
	<path class="st2" d="M573.6,456.9v47.7c0,9.8-16.1,17.8-35.9,17.8H295.3c-19.8,0-35.9-8-35.9-17.8v-47.7c0-9.8,16.1-17.8,35.9-17.8
		h242.4C557.5,439.1,573.6,447.1,573.6,456.9z"/>
</g>
<g id="Rectangle_312_00000164506199058252981670000013631102390074360721_">
	<path class="st2" d="M669.6,325.7v41c0,12.8-15.8,23.2-35.3,23.2H401.5c-19.5,0-35.3-10.4-35.3-23.2v-41
		c0-12.8,15.8-23.2,35.3-23.2h232.8C653.8,302.5,669.6,312.9,669.6,325.7z"/>
</g>
<g id="Rectangle_312_00000140719231954119970350000005311828050906815162_">
	<path class="st2" d="M486.8,201.6v41c0,12.8-15.8,23.2-35.3,23.2H218.8c-19.5,0-35.3-10.4-35.3-23.2v-41
		c0-12.8,15.8-23.2,35.3-23.2h232.8C471.1,178.4,486.8,188.8,486.8,201.6z"/>
</g>
<g>
	<path class="st0" d="M635.2,145.6H373.9c-15.2,0-27.6-12.4-27.6-27.6v-15c0-15.2,12.4-27.6,27.6-27.6h261.2
		c15.2,0,27.6,12.4,27.6,27.6v15C662.7,133.2,650.4,145.6,635.2,145.6z M373.9,84.1c-10.5,0-19,8.5-19,19v15c0,10.5,8.5,19,19,19
		h261.2c10.5,0,19-8.5,19-19v-15c0-10.5-8.5-19-19-19H373.9z"/>
</g>
<g>
	<g>
		<path class="st0" d="M378.7,102.6v15h-2.8v-12.7h-3.2v-2.3H378.7z"/>
	</g>
	<g>
		<path class="st0" d="M382.1,117.3c-0.3-0.3-0.5-0.8-0.5-1.3c0-0.5,0.2-1,0.5-1.3c0.3-0.3,0.8-0.5,1.3-0.5c0.5,0,0.9,0.2,1.3,0.5
			c0.3,0.3,0.5,0.8,0.5,1.3c0,0.5-0.2,0.9-0.5,1.3c-0.3,0.3-0.8,0.5-1.2,0.5C382.9,117.8,382.5,117.6,382.1,117.3z"/>
	</g>
	<g>
		<path class="st0" d="M397,105h-5v-2.4h12.7v2.4h-5v12.6H397V105z"/>
	</g>
	<g>
		<path class="st0" d="M416.1,112.7h-9c0.2,0.8,0.6,1.5,1.2,2c0.7,0.5,1.5,0.7,2.5,0.7c1.3,0,2.3-0.4,3.1-1.2l1.4,1.7
			c-0.5,0.6-1.2,1.1-2,1.4c-0.8,0.3-1.7,0.5-2.7,0.5c-1.3,0-2.4-0.2-3.3-0.7c-1-0.5-1.7-1.2-2.2-2.1c-0.5-0.9-0.8-1.9-0.8-3
			c0-1.1,0.3-2.1,0.8-3c0.5-0.9,1.2-1.6,2.1-2.1c0.9-0.5,1.9-0.8,3-0.8c1.1,0,2.1,0.2,3,0.7c0.9,0.5,1.6,1.2,2.1,2.1
			s0.7,1.9,0.7,3.1C416.2,112.1,416.1,112.4,416.1,112.7z M408.2,108.9c-0.6,0.5-1,1.2-1.1,2h6.5c-0.1-0.8-0.5-1.5-1-2
			c-0.6-0.5-1.3-0.8-2.2-0.8C409.5,108.2,408.8,108.4,408.2,108.9z"/>
	</g>
	<g>
		<path class="st0" d="M420.8,117c-0.9-0.5-1.7-1.2-2.2-2.1c-0.5-0.9-0.8-1.9-0.8-3s0.3-2.1,0.8-3c0.5-0.9,1.3-1.6,2.2-2.1
			c0.9-0.5,2-0.8,3.2-0.8c1.1,0,2.1,0.2,3,0.7c0.9,0.5,1.5,1.1,1.9,2l-2.1,1.2c-0.3-0.5-0.7-0.9-1.2-1.2c-0.5-0.3-1-0.4-1.6-0.4
			c-1,0-1.8,0.3-2.5,1c-0.7,0.7-1,1.5-1,2.6s0.3,2,1,2.6c0.7,0.7,1.5,1,2.5,1c0.6,0,1.1-0.1,1.6-0.4c0.5-0.3,0.9-0.7,1.2-1.2
			l2.1,1.2c-0.4,0.9-1.1,1.5-1.9,2c-0.9,0.5-1.8,0.7-2.9,0.7C422.8,117.8,421.7,117.5,420.8,117z"/>
	</g>
	<g>
		<path class="st0" d="M441,107.3c0.9,0.8,1.3,2.1,1.3,3.8v6.6h-2.7v-6.2c0-1-0.2-1.8-0.7-2.3c-0.5-0.5-1.1-0.8-2-0.8
			c-1,0-1.8,0.3-2.3,0.9c-0.6,0.6-0.9,1.4-0.9,2.6v5.8h-2.7v-15.9h2.7v5.8c0.4-0.5,1-0.8,1.6-1.1c0.7-0.3,1.4-0.4,2.2-0.4
			C439,106,440.2,106.4,441,107.3z"/>
	</g>
	<g>
		<path class="st0" d="M455.7,107.3c0.9,0.8,1.3,2.1,1.3,3.8v6.6h-2.7v-6.2c0-1-0.2-1.8-0.7-2.3c-0.5-0.5-1.1-0.8-2-0.8
			c-1,0-1.8,0.3-2.3,0.9c-0.6,0.6-0.9,1.4-0.9,2.6v5.8h-2.7v-11.4h2.6v1.5c0.4-0.5,1-0.9,1.7-1.2c0.7-0.3,1.4-0.4,2.3-0.4
			C453.7,106,454.9,106.4,455.7,107.3z"/>
	</g>
	<g>
		<path class="st0" d="M462.6,117c-0.9-0.5-1.7-1.2-2.2-2.1s-0.8-1.9-0.8-3s0.3-2.1,0.8-3c0.5-0.9,1.2-1.6,2.2-2.1
			c0.9-0.5,2-0.8,3.1-0.8c1.2,0,2.2,0.3,3.2,0.8c0.9,0.5,1.7,1.2,2.2,2.1c0.5,0.9,0.8,1.9,0.8,3s-0.3,2.1-0.8,3
			c-0.5,0.9-1.2,1.6-2.2,2.1c-0.9,0.5-2,0.7-3.2,0.7C464.5,117.8,463.5,117.5,462.6,117z M468.1,114.5c0.6-0.7,1-1.5,1-2.6
			c0-1.1-0.3-1.9-1-2.6c-0.6-0.7-1.5-1-2.4-1c-1,0-1.8,0.3-2.4,1c-0.6,0.7-1,1.5-1,2.6c0,1.1,0.3,1.9,1,2.6c0.6,0.7,1.4,1,2.4,1
			C466.7,115.5,467.5,115.1,468.1,114.5z"/>
	</g>
	<g>
		<path class="st0" d="M474.4,101.7h2.7v15.9h-2.7V101.7z"/>
	</g>
	<g>
		<path class="st0" d="M482.6,117c-0.9-0.5-1.7-1.2-2.2-2.1s-0.8-1.9-0.8-3s0.3-2.1,0.8-3c0.5-0.9,1.2-1.6,2.2-2.1
			c0.9-0.5,2-0.8,3.1-0.8c1.2,0,2.2,0.3,3.2,0.8c0.9,0.5,1.7,1.2,2.2,2.1c0.5,0.9,0.8,1.9,0.8,3s-0.3,2.1-0.8,3
			c-0.5,0.9-1.2,1.6-2.2,2.1c-0.9,0.5-2,0.7-3.2,0.7C484.6,117.8,483.5,117.5,482.6,117z M488.2,114.5c0.6-0.7,1-1.5,1-2.6
			c0-1.1-0.3-1.9-1-2.6c-0.6-0.7-1.5-1-2.4-1c-1,0-1.8,0.3-2.4,1c-0.6,0.7-1,1.5-1,2.6c0,1.1,0.3,1.9,1,2.6c0.6,0.7,1.4,1,2.4,1
			C486.7,115.5,487.5,115.1,488.2,114.5z"/>
	</g>
	<g>
		<path class="st0" d="M505.8,106.2v9.7c0,4-2.1,6-6.2,6c-1.1,0-2.1-0.1-3.1-0.4c-1-0.3-1.8-0.7-2.4-1.2l1.2-2
			c0.5,0.4,1.1,0.7,1.9,1c0.8,0.3,1.5,0.4,2.3,0.4c1.3,0,2.2-0.3,2.8-0.9c0.6-0.6,0.9-1.4,0.9-2.6v-0.6c-0.5,0.5-1,0.9-1.7,1.1
			c-0.7,0.3-1.4,0.4-2.2,0.4c-1.1,0-2.1-0.2-2.9-0.7s-1.6-1.1-2.1-2c-0.5-0.8-0.8-1.8-0.8-2.9c0-1.1,0.3-2,0.8-2.9
			c0.5-0.8,1.2-1.5,2.1-1.9c0.9-0.5,1.9-0.7,2.9-0.7c0.8,0,1.6,0.1,2.3,0.4c0.7,0.3,1.2,0.7,1.7,1.2v-1.5H505.8z M502.2,113.9
			c0.7-0.6,1-1.4,1-2.4c0-1-0.3-1.7-1-2.3c-0.7-0.6-1.5-0.9-2.5-0.9c-1,0-1.9,0.3-2.5,0.9c-0.7,0.6-1,1.4-1,2.3c0,1,0.3,1.8,1,2.4
			c0.7,0.6,1.5,0.9,2.5,0.9C500.7,114.8,501.5,114.5,502.2,113.9z"/>
	</g>
	<g>
		<path class="st0" d="M520,106.2l-5.4,12.4c-0.5,1.2-1.1,2.1-1.8,2.6c-0.7,0.5-1.6,0.8-2.6,0.8c-0.6,0-1.1-0.1-1.7-0.3
			c-0.6-0.2-1-0.4-1.4-0.8l1.1-2c0.3,0.2,0.6,0.4,0.9,0.6c0.4,0.1,0.7,0.2,1.1,0.2c0.5,0,0.9-0.1,1.2-0.4c0.3-0.2,0.6-0.7,0.8-1.2
			l0.2-0.5l-5-11.5h2.8l3.6,8.5l3.6-8.5H520z"/>
	</g>
	<g>
		<path class="st0" d="M538.3,112.7h-9c0.2,0.8,0.6,1.5,1.2,2c0.7,0.5,1.5,0.7,2.5,0.7c1.3,0,2.3-0.4,3.1-1.2l1.4,1.7
			c-0.5,0.6-1.2,1.1-2,1.4c-0.8,0.3-1.7,0.5-2.7,0.5c-1.3,0-2.4-0.2-3.3-0.7c-1-0.5-1.7-1.2-2.2-2.1c-0.5-0.9-0.8-1.9-0.8-3
			c0-1.1,0.3-2.1,0.8-3c0.5-0.9,1.2-1.6,2.1-2.1c0.9-0.5,1.9-0.8,3-0.8c1.1,0,2.1,0.2,3,0.7c0.9,0.5,1.6,1.2,2.1,2.1
			c0.5,0.9,0.7,1.9,0.7,3.1C538.4,112.1,538.3,112.4,538.3,112.7z M530.4,108.9c-0.6,0.5-1,1.2-1.1,2h6.5c-0.1-0.8-0.5-1.5-1-2
			c-0.6-0.5-1.3-0.8-2.2-0.8C531.7,108.2,531,108.4,530.4,108.9z"/>
	</g>
	<g>
		<path class="st0" d="M552.1,101.7v15.9h-2.6v-1.5c-0.4,0.5-1,1-1.6,1.2c-0.6,0.3-1.4,0.4-2.2,0.4c-1.1,0-2.1-0.2-3-0.7
			c-0.9-0.5-1.6-1.2-2.1-2.1s-0.8-1.9-0.8-3.1s0.3-2.2,0.8-3.1c0.5-0.9,1.2-1.6,2.1-2.1s1.9-0.7,3-0.7c0.8,0,1.5,0.1,2.1,0.4
			c0.6,0.3,1.2,0.6,1.6,1.2v-5.9H552.1z M547.8,115c0.5-0.3,0.9-0.7,1.2-1.3s0.5-1.2,0.5-1.9s-0.2-1.3-0.5-1.9s-0.7-1-1.2-1.3
			s-1.1-0.4-1.7-0.4c-0.6,0-1.2,0.1-1.7,0.4c-0.5,0.3-0.9,0.7-1.2,1.3c-0.3,0.5-0.5,1.2-0.5,1.9s0.1,1.3,0.5,1.9
			c0.3,0.5,0.7,1,1.2,1.3c0.5,0.3,1.1,0.4,1.7,0.4C546.7,115.5,547.3,115.3,547.8,115z"/>
	</g>
	<g>
		<path class="st0" d="M566.7,106.2v11.4h-2.6v-1.5c-0.4,0.5-1,0.9-1.6,1.2c-0.6,0.3-1.3,0.4-2.1,0.4c-1.5,0-2.7-0.4-3.6-1.3
			c-0.9-0.9-1.3-2.1-1.3-3.8v-6.5h2.7v6.2c0,1,0.2,1.8,0.7,2.3c0.5,0.5,1.1,0.8,2,0.8c1,0,1.7-0.3,2.3-0.9c0.6-0.6,0.8-1.4,0.8-2.6
			v-5.8H566.7z"/>
	</g>
	<g>
		<path class="st0" d="M572.3,117c-0.9-0.5-1.7-1.2-2.2-2.1c-0.5-0.9-0.8-1.9-0.8-3s0.3-2.1,0.8-3c0.5-0.9,1.3-1.6,2.2-2.1
			c0.9-0.5,2-0.8,3.2-0.8c1.1,0,2.1,0.2,3,0.7c0.8,0.5,1.5,1.1,1.9,2l-2.1,1.2c-0.3-0.5-0.7-0.9-1.2-1.2c-0.5-0.3-1-0.4-1.6-0.4
			c-1,0-1.8,0.3-2.5,1c-0.7,0.7-1,1.5-1,2.6s0.3,2,1,2.6c0.6,0.7,1.5,1,2.5,1c0.6,0,1.1-0.1,1.6-0.4c0.5-0.3,0.9-0.7,1.2-1.2
			l2.1,1.2c-0.4,0.9-1.1,1.5-1.9,2c-0.9,0.5-1.8,0.7-2.9,0.7C574.3,117.8,573.3,117.5,572.3,117z"/>
	</g>
	<g>
		<path class="st0" d="M591,107.2c0.9,0.8,1.3,2,1.3,3.7v6.7h-2.5v-1.4c-0.3,0.5-0.8,0.9-1.4,1.1c-0.6,0.3-1.3,0.4-2.2,0.4
			c-0.9,0-1.6-0.1-2.3-0.4c-0.6-0.3-1.1-0.7-1.5-1.2c-0.3-0.5-0.5-1.1-0.5-1.8c0-1,0.4-1.9,1.1-2.5c0.8-0.6,2-0.9,3.6-0.9h3v-0.2
			c0-0.8-0.2-1.4-0.7-1.8c-0.5-0.4-1.2-0.6-2.1-0.6c-0.6,0-1.3,0.1-1.9,0.3c-0.6,0.2-1.1,0.5-1.6,0.8l-1.1-2c0.6-0.5,1.3-0.8,2.2-1
			c0.8-0.2,1.7-0.4,2.7-0.4C588.8,106,590.1,106.4,591,107.2z M588.5,115.3c0.5-0.3,0.9-0.7,1.1-1.3v-1.3h-2.8
			c-1.5,0-2.3,0.5-2.3,1.5c0,0.5,0.2,0.9,0.6,1.2c0.4,0.3,0.9,0.4,1.6,0.4C587.4,115.8,588,115.6,588.5,115.3z"/>
	</g>
	<g>
		<path class="st0" d="M602.6,117c-0.3,0.3-0.7,0.5-1.1,0.6c-0.5,0.1-0.9,0.2-1.4,0.2c-1.3,0-2.2-0.3-2.9-1c-0.7-0.7-1-1.6-1-2.9
			v-5.5h-1.9v-2.1h1.9v-2.6h2.7v2.6h3.1v2.1h-3.1v5.4c0,0.6,0.1,1,0.4,1.3c0.3,0.3,0.7,0.4,1.2,0.4c0.6,0,1.1-0.2,1.5-0.5L602.6,117
			z"/>
	</g>
	<g>
		<path class="st0" d="M604.9,103.8c-0.3-0.3-0.5-0.7-0.5-1.1c0-0.5,0.2-0.8,0.5-1.1c0.3-0.3,0.7-0.5,1.2-0.5s0.9,0.1,1.2,0.4
			c0.3,0.3,0.5,0.7,0.5,1.1c0,0.5-0.2,0.9-0.5,1.2c-0.3,0.3-0.7,0.5-1.2,0.5C605.7,104.3,605.3,104.1,604.9,103.8z M604.8,106.2h2.7
			v11.4h-2.7V106.2z"/>
	</g>
	<g>
		<path class="st0" d="M613,117c-0.9-0.5-1.7-1.2-2.2-2.1s-0.8-1.9-0.8-3s0.3-2.1,0.8-3c0.5-0.9,1.2-1.6,2.2-2.1
			c0.9-0.5,2-0.8,3.1-0.8c1.2,0,2.2,0.3,3.2,0.8c0.9,0.5,1.7,1.2,2.2,2.1c0.5,0.9,0.8,1.9,0.8,3s-0.3,2.1-0.8,3s-1.2,1.6-2.2,2.1
			c-0.9,0.5-2,0.7-3.2,0.7C615,117.8,614,117.5,613,117z M618.6,114.5c0.6-0.7,1-1.5,1-2.6c0-1.1-0.3-1.9-1-2.6
			c-0.6-0.7-1.5-1-2.4-1c-1,0-1.8,0.3-2.4,1c-0.6,0.7-1,1.5-1,2.6c0,1.1,0.3,1.9,1,2.6c0.6,0.7,1.4,1,2.4,1
			C617.1,115.5,618,115.1,618.6,114.5z"/>
	</g>
	<g>
		<path class="st0" d="M634.8,107.3c0.9,0.8,1.3,2.1,1.3,3.8v6.6h-2.7v-6.2c0-1-0.2-1.8-0.7-2.3c-0.5-0.5-1.1-0.8-2-0.8
			c-1,0-1.8,0.3-2.3,0.9c-0.6,0.6-0.9,1.4-0.9,2.6v5.8h-2.7v-11.4h2.5v1.5c0.4-0.5,1-0.9,1.7-1.2c0.7-0.3,1.4-0.4,2.3-0.4
			C632.8,106,633.9,106.4,634.8,107.3z"/>
	</g>
</g>
<g>
	<path class="st0" d="M519.9,278.5H212.2c-1.9,0-3.6-1.3-4.1-3.1l-24.2-86.3c-0.4-1.3-0.1-2.7,0.7-3.7c0.8-1.1,2.1-1.7,3.4-1.7
		h307.8c1.9,0,3.6,1.3,4.1,3.1l24.2,86.3c0.4,1.3,0.1,2.7-0.7,3.7C522.6,277.9,521.3,278.5,519.9,278.5z M215.4,269.9h298.9
		l-21.8-77.7H193.6L215.4,269.9z"/>
</g>
<g>
	<g>
		<path class="st0" d="M239.7,223.4v2.4h-11.1v-1.9l6-5.7c0.7-0.6,1.1-1.2,1.4-1.7c0.2-0.5,0.4-1,0.4-1.4c0-0.7-0.2-1.2-0.7-1.6
			c-0.5-0.4-1.2-0.6-2.1-0.6c-1.5,0-2.7,0.5-3.5,1.6l-2-1.5c0.6-0.8,1.4-1.4,2.4-1.8c1-0.4,2.1-0.7,3.3-0.7c1.6,0,2.9,0.4,3.9,1.2
			c1,0.8,1.5,1.8,1.5,3.2c0,0.8-0.2,1.6-0.5,2.3s-1,1.5-2,2.4l-4,3.8H239.7z"/>
	</g>
	<g>
		<path class="st0" d="M242,225.4c-0.3-0.3-0.5-0.8-0.5-1.3c0-0.5,0.2-1,0.5-1.3c0.3-0.3,0.8-0.5,1.3-0.5c0.5,0,0.9,0.2,1.3,0.5
			c0.3,0.3,0.5,0.8,0.5,1.3c0,0.5-0.2,0.9-0.5,1.3c-0.3,0.3-0.8,0.5-1.2,0.5C242.7,225.9,242.3,225.7,242,225.4z"/>
	</g>
	<g>
		<path class="st0" d="M256.8,213.1h-5v-2.4h12.7v2.4h-5v12.6h-2.8V213.1z"/>
	</g>
	<g>
		<path class="st0" d="M275.9,220.9h-9c0.2,0.8,0.6,1.5,1.2,2c0.7,0.5,1.5,0.7,2.5,0.7c1.3,0,2.3-0.4,3.1-1.2l1.4,1.7
			c-0.5,0.6-1.2,1.1-2,1.4c-0.8,0.3-1.7,0.5-2.7,0.5c-1.3,0-2.4-0.2-3.3-0.7c-1-0.5-1.7-1.2-2.2-2.1c-0.5-0.9-0.8-1.9-0.8-3
			c0-1.1,0.3-2.1,0.8-3c0.5-0.9,1.2-1.6,2.1-2.1c0.9-0.5,1.9-0.8,3-0.8c1.1,0,2.1,0.2,3,0.7c0.9,0.5,1.6,1.2,2.1,2.1
			c0.5,0.9,0.7,1.9,0.7,3.1C276,220.3,276,220.5,275.9,220.9z M268,217.1c-0.6,0.5-1,1.2-1.1,2h6.5c-0.1-0.8-0.5-1.5-1-2
			c-0.6-0.5-1.3-0.8-2.2-0.8C269.3,216.3,268.6,216.6,268,217.1z"/>
	</g>
	<g>
		<path class="st0" d="M286.5,215.4c0.9,0.8,1.3,2,1.3,3.7v6.7h-2.5v-1.4c-0.3,0.5-0.8,0.9-1.4,1.1c-0.6,0.3-1.3,0.4-2.2,0.4
			c-0.9,0-1.6-0.1-2.3-0.4c-0.6-0.3-1.1-0.7-1.5-1.2c-0.4-0.5-0.5-1.1-0.5-1.8c0-1,0.4-1.9,1.1-2.5c0.8-0.6,2-0.9,3.6-0.9h3v-0.2
			c0-0.8-0.2-1.4-0.7-1.8c-0.5-0.4-1.2-0.6-2.1-0.6c-0.6,0-1.3,0.1-1.9,0.3c-0.6,0.2-1.1,0.5-1.6,0.8l-1-2c0.6-0.5,1.3-0.8,2.2-1
			c0.8-0.2,1.7-0.4,2.7-0.4C284.3,214.2,285.6,214.6,286.5,215.4z M284,223.5c0.5-0.3,0.9-0.7,1.1-1.3v-1.3h-2.8
			c-1.5,0-2.3,0.5-2.3,1.5c0,0.5,0.2,0.9,0.6,1.2c0.4,0.3,0.9,0.4,1.6,0.4C282.9,223.9,283.5,223.8,284,223.5z"/>
	</g>
	<g>
		<path class="st0" d="M293.4,225.1c-0.9-0.5-1.7-1.2-2.2-2.1c-0.5-0.9-0.8-1.9-0.8-3s0.3-2.1,0.8-3c0.5-0.9,1.3-1.6,2.2-2.1
			c0.9-0.5,2-0.8,3.2-0.8c1.1,0,2.1,0.2,3,0.7c0.9,0.5,1.5,1.1,1.9,2l-2.1,1.2c-0.3-0.5-0.7-0.9-1.2-1.2c-0.5-0.3-1-0.4-1.6-0.4
			c-1,0-1.8,0.3-2.5,1c-0.7,0.7-1,1.5-1,2.6s0.3,2,1,2.6c0.7,0.7,1.5,1,2.5,1c0.6,0,1.1-0.1,1.6-0.4c0.5-0.3,0.9-0.7,1.2-1.2
			l2.1,1.2c-0.4,0.9-1.1,1.5-1.9,2c-0.9,0.5-1.8,0.7-2.9,0.7C295.4,225.9,294.4,225.6,293.4,225.1z"/>
	</g>
	<g>
		<path class="st0" d="M313.7,215.4c0.9,0.8,1.3,2.1,1.3,3.8v6.6h-2.7v-6.2c0-1-0.2-1.8-0.7-2.3c-0.5-0.5-1.1-0.8-2-0.8
			c-1,0-1.8,0.3-2.3,0.9c-0.6,0.6-0.9,1.4-0.9,2.6v5.8h-2.7v-15.9h2.7v5.8c0.4-0.5,1-0.8,1.6-1.1c0.7-0.3,1.4-0.4,2.2-0.4
			C311.7,214.2,312.8,214.6,313.7,215.4z"/>
	</g>
	<g>
		<path class="st0" d="M329.2,220.9h-9c0.2,0.8,0.6,1.5,1.2,2c0.7,0.5,1.5,0.7,2.5,0.7c1.3,0,2.3-0.4,3.1-1.2l1.4,1.7
			c-0.5,0.6-1.2,1.1-2,1.4c-0.8,0.3-1.7,0.5-2.7,0.5c-1.3,0-2.4-0.2-3.3-0.7c-1-0.5-1.7-1.2-2.2-2.1c-0.5-0.9-0.8-1.9-0.8-3
			c0-1.1,0.3-2.1,0.8-3c0.5-0.9,1.2-1.6,2.1-2.1c0.9-0.5,1.9-0.8,3-0.8c1.1,0,2.1,0.2,3,0.7c0.9,0.5,1.6,1.2,2.1,2.1
			c0.5,0.9,0.7,1.9,0.7,3.1C329.3,220.3,329.3,220.5,329.2,220.9z M321.3,217.1c-0.6,0.5-1,1.2-1.1,2h6.5c-0.1-0.8-0.5-1.5-1-2
			c-0.6-0.5-1.3-0.8-2.2-0.8C322.6,216.3,321.9,216.6,321.3,217.1z"/>
	</g>
	<g>
		<path class="st0" d="M338.5,214.2v2.6c-0.2,0-0.4-0.1-0.6-0.1c-1,0-1.9,0.3-2.4,0.9s-0.9,1.5-0.9,2.6v5.6h-2.7v-11.4h2.6v1.7
			C335.2,214.8,336.5,214.2,338.5,214.2z"/>
	</g>
	<g>
		<path class="st0" d="M356.1,214.9c0.9,0.5,1.6,1.2,2.1,2.1c0.5,0.9,0.8,1.9,0.8,3.1s-0.3,2.2-0.8,3.1c-0.5,0.9-1.2,1.6-2.1,2.1
			c-0.9,0.5-1.9,0.7-3,0.7c-1.5,0-2.8-0.5-3.7-1.5v5.6h-2.7v-15.6h2.6v1.5c0.4-0.5,1-1,1.6-1.2c0.7-0.3,1.4-0.4,2.2-0.4
			C354.2,214.2,355.2,214.4,356.1,214.9z M355.2,222.6c0.6-0.7,1-1.5,1-2.6c0-1.1-0.3-1.9-1-2.6c-0.6-0.7-1.4-1-2.4-1
			c-0.6,0-1.2,0.1-1.7,0.4c-0.5,0.3-0.9,0.7-1.2,1.3c-0.3,0.5-0.5,1.2-0.5,1.9s0.2,1.3,0.5,1.9c0.3,0.5,0.7,1,1.2,1.3
			c0.5,0.3,1.1,0.4,1.7,0.4C353.8,223.6,354.6,223.3,355.2,222.6z"/>
	</g>
	<g>
		<path class="st0" d="M368.1,214.2v2.6c-0.2,0-0.4-0.1-0.6-0.1c-1,0-1.9,0.3-2.4,0.9s-0.9,1.5-0.9,2.6v5.6h-2.7v-11.4h2.6v1.7
			C364.8,214.8,366.1,214.2,368.1,214.2z"/>
	</g>
	<g>
		<path class="st0" d="M372.3,225.1c-0.9-0.5-1.7-1.2-2.2-2.1c-0.5-0.9-0.8-1.9-0.8-3s0.3-2.1,0.8-3c0.5-0.9,1.2-1.6,2.2-2.1
			c0.9-0.5,2-0.8,3.1-0.8c1.2,0,2.2,0.3,3.2,0.8c0.9,0.5,1.7,1.2,2.2,2.1c0.5,0.9,0.8,1.9,0.8,3s-0.3,2.1-0.8,3
			c-0.5,0.9-1.2,1.6-2.2,2.1c-0.9,0.5-2,0.7-3.2,0.7C374.2,225.9,373.2,225.6,372.3,225.1z M377.8,222.6c0.6-0.7,1-1.5,1-2.6
			c0-1.1-0.3-1.9-1-2.6c-0.6-0.7-1.5-1-2.4-1c-1,0-1.8,0.3-2.4,1c-0.6,0.7-1,1.5-1,2.6c0,1.1,0.3,1.9,1,2.6c0.6,0.7,1.4,1,2.4,1
			C376.4,223.6,377.2,223.3,377.8,222.6z"/>
	</g>
	<g>
		<path class="st0" d="M387,213.7v0.7h3.2v2.1h-3.1v9.2h-2.7v-9.2h-1.9v-2.1h1.9v-0.7c0-1.2,0.4-2.2,1.1-2.9c0.7-0.7,1.7-1.1,3-1.1
			c1,0,1.8,0.2,2.4,0.6l-0.7,2c-0.5-0.3-1-0.5-1.5-0.5C387.6,211.8,387,212.5,387,213.7z"/>
	</g>
	<g>
		<path class="st0" d="M402.5,220.9h-9c0.2,0.8,0.6,1.5,1.2,2c0.7,0.5,1.5,0.7,2.5,0.7c1.3,0,2.3-0.4,3.1-1.2l1.4,1.7
			c-0.5,0.6-1.2,1.1-2,1.4c-0.8,0.3-1.7,0.5-2.7,0.5c-1.3,0-2.4-0.2-3.3-0.7c-1-0.5-1.7-1.2-2.2-2.1c-0.5-0.9-0.8-1.9-0.8-3
			c0-1.1,0.3-2.1,0.8-3c0.5-0.9,1.2-1.6,2.1-2.1c0.9-0.5,1.9-0.8,3-0.8c1.1,0,2.1,0.2,3,0.7c0.9,0.5,1.6,1.2,2.1,2.1
			c0.5,0.9,0.7,1.9,0.7,3.1C402.6,220.3,402.6,220.5,402.5,220.9z M394.6,217.1c-0.6,0.5-1,1.2-1.1,2h6.5c-0.1-0.8-0.5-1.5-1-2
			c-0.6-0.5-1.3-0.8-2.2-0.8C395.9,216.3,395.2,216.6,394.6,217.1z"/>
	</g>
	<g>
		<path class="st0" d="M406,225.5c-0.9-0.2-1.6-0.5-2.1-0.9l1-2c0.5,0.3,1.1,0.6,1.9,0.8c0.7,0.2,1.4,0.3,2.1,0.3
			c1.6,0,2.4-0.4,2.4-1.3c0-0.4-0.2-0.7-0.6-0.8c-0.4-0.2-1.1-0.3-2-0.5c-0.9-0.1-1.7-0.3-2.3-0.5c-0.6-0.2-1.1-0.5-1.5-1
			c-0.4-0.5-0.7-1.1-0.7-1.9c0-1.1,0.5-2,1.4-2.6c0.9-0.7,2.1-1,3.7-1c0.8,0,1.6,0.1,2.4,0.3c0.8,0.2,1.4,0.4,1.9,0.7l-1,2
			c-1-0.6-2.1-0.9-3.3-0.9c-0.8,0-1.4,0.1-1.8,0.4c-0.4,0.2-0.6,0.5-0.6,0.9c0,0.4,0.2,0.7,0.7,0.9c0.4,0.2,1.1,0.3,2,0.5
			c0.9,0.1,1.7,0.3,2.3,0.5c0.6,0.2,1.1,0.5,1.5,0.9c0.4,0.4,0.6,1.1,0.6,1.9c0,1.1-0.5,1.9-1.4,2.6c-0.9,0.6-2.2,1-3.8,1
			C407.8,225.9,406.9,225.8,406,225.5z"/>
	</g>
	<g>
		<path class="st0" d="M417,225.5c-0.9-0.2-1.6-0.5-2.1-0.9l1-2c0.5,0.3,1.1,0.6,1.9,0.8c0.7,0.2,1.4,0.3,2.1,0.3
			c1.6,0,2.4-0.4,2.4-1.3c0-0.4-0.2-0.7-0.6-0.8c-0.4-0.2-1.1-0.3-2-0.5c-0.9-0.1-1.7-0.3-2.3-0.5c-0.6-0.2-1.1-0.5-1.5-1
			c-0.4-0.5-0.7-1.1-0.7-1.9c0-1.1,0.5-2,1.4-2.6c0.9-0.7,2.1-1,3.7-1c0.8,0,1.6,0.1,2.4,0.3c0.8,0.2,1.4,0.4,1.9,0.7l-1,2
			c-1-0.6-2.1-0.9-3.3-0.9c-0.8,0-1.4,0.1-1.8,0.4c-0.4,0.2-0.6,0.5-0.6,0.9c0,0.4,0.2,0.7,0.7,0.9c0.4,0.2,1.1,0.3,2,0.5
			c0.9,0.1,1.7,0.3,2.3,0.5c0.6,0.2,1.1,0.5,1.5,0.9s0.6,1.1,0.6,1.9c0,1.1-0.5,1.9-1.4,2.6c-0.9,0.6-2.2,1-3.8,1
			C418.8,225.9,417.9,225.8,417,225.5z"/>
	</g>
	<g>
		<path class="st0" d="M427.4,211.9c-0.3-0.3-0.5-0.7-0.5-1.1c0-0.5,0.2-0.8,0.5-1.1c0.3-0.3,0.7-0.5,1.2-0.5c0.5,0,0.9,0.1,1.2,0.4
			c0.3,0.3,0.5,0.7,0.5,1.1c0,0.5-0.2,0.9-0.5,1.2c-0.3,0.3-0.7,0.5-1.2,0.5C428.1,212.4,427.7,212.3,427.4,211.9z M427.2,214.3h2.7
			v11.4h-2.7V214.3z"/>
	</g>
	<g>
		<path class="st0" d="M435.4,225.1c-0.9-0.5-1.7-1.2-2.2-2.1c-0.5-0.9-0.8-1.9-0.8-3s0.3-2.1,0.8-3c0.5-0.9,1.2-1.6,2.2-2.1
			c0.9-0.5,2-0.8,3.1-0.8c1.2,0,2.2,0.3,3.2,0.8c0.9,0.5,1.7,1.2,2.2,2.1c0.5,0.9,0.8,1.9,0.8,3s-0.3,2.1-0.8,3
			c-0.5,0.9-1.2,1.6-2.2,2.1c-0.9,0.5-2,0.7-3.2,0.7C437.4,225.9,436.4,225.6,435.4,225.1z M441,222.6c0.6-0.7,1-1.5,1-2.6
			c0-1.1-0.3-1.9-1-2.6s-1.5-1-2.4-1c-1,0-1.8,0.3-2.4,1c-0.6,0.7-1,1.5-1,2.6c0,1.1,0.3,1.9,1,2.6c0.6,0.7,1.4,1,2.4,1
			C439.6,223.6,440.4,223.3,441,222.6z"/>
	</g>
	<g>
		<path class="st0" d="M457.2,215.4c0.9,0.8,1.3,2.1,1.3,3.8v6.6h-2.7v-6.2c0-1-0.2-1.8-0.7-2.3c-0.5-0.5-1.1-0.8-2-0.8
			c-1,0-1.8,0.3-2.3,0.9c-0.6,0.6-0.9,1.4-0.9,2.6v5.8h-2.7v-11.4h2.6v1.5c0.4-0.5,1-0.9,1.7-1.2s1.4-0.4,2.3-0.4
			C455.2,214.2,456.4,214.6,457.2,215.4z"/>
	</g>
	<g>
		<path class="st0" d="M470.2,215.4c0.9,0.8,1.3,2,1.3,3.7v6.7H469v-1.4c-0.3,0.5-0.8,0.9-1.4,1.1c-0.6,0.3-1.3,0.4-2.2,0.4
			c-0.9,0-1.6-0.1-2.3-0.4c-0.6-0.3-1.1-0.7-1.5-1.2c-0.4-0.5-0.5-1.1-0.5-1.8c0-1,0.4-1.9,1.1-2.5c0.8-0.6,2-0.9,3.6-0.9h3v-0.2
			c0-0.8-0.2-1.4-0.7-1.8c-0.5-0.4-1.2-0.6-2.1-0.6c-0.6,0-1.3,0.1-1.9,0.3c-0.6,0.2-1.1,0.5-1.6,0.8l-1-2c0.6-0.5,1.3-0.8,2.2-1
			s1.7-0.4,2.7-0.4C468,214.2,469.3,214.6,470.2,215.4z M467.7,223.5c0.5-0.3,0.9-0.7,1.1-1.3v-1.3h-2.8c-1.5,0-2.3,0.5-2.3,1.5
			c0,0.5,0.2,0.9,0.6,1.2c0.4,0.3,0.9,0.4,1.6,0.4C466.6,223.9,467.2,223.8,467.7,223.5z"/>
	</g>
	<g>
		<path class="st0" d="M475,209.8h2.7v15.9H475V209.8z"/>
	</g>
	<g>
		<path class="st0" d="M264.5,235.6v15.9H262V250c-0.4,0.5-1,1-1.6,1.2c-0.7,0.3-1.4,0.4-2.2,0.4c-1.1,0-2.1-0.2-3-0.7
			c-0.9-0.5-1.6-1.2-2.1-2.1c-0.5-0.9-0.8-1.9-0.8-3.1s0.3-2.2,0.8-3.1c0.5-0.9,1.2-1.6,2.1-2.1c0.9-0.5,1.9-0.7,3-0.7
			c0.8,0,1.4,0.1,2.1,0.4c0.6,0.3,1.2,0.6,1.6,1.2v-5.9H264.5z M260.2,248.9c0.5-0.3,0.9-0.7,1.2-1.3c0.3-0.5,0.5-1.2,0.5-1.9
			s-0.1-1.3-0.5-1.9c-0.3-0.5-0.7-1-1.2-1.3c-0.5-0.3-1.1-0.4-1.7-0.4s-1.2,0.1-1.7,0.4c-0.5,0.3-0.9,0.7-1.2,1.3s-0.5,1.2-0.5,1.9
			s0.1,1.3,0.5,1.9s0.7,1,1.2,1.3c0.5,0.3,1.1,0.4,1.7,0.4S259.7,249.2,260.2,248.9z"/>
	</g>
	<g>
		<path class="st0" d="M278.8,246.6h-9c0.2,0.8,0.6,1.5,1.2,2c0.7,0.5,1.5,0.7,2.5,0.7c1.3,0,2.3-0.4,3.1-1.2l1.4,1.7
			c-0.5,0.6-1.2,1.1-2,1.4c-0.8,0.3-1.7,0.5-2.7,0.5c-1.3,0-2.4-0.2-3.3-0.7c-1-0.5-1.7-1.2-2.2-2.1c-0.5-0.9-0.8-1.9-0.8-3
			c0-1.1,0.3-2.1,0.8-3c0.5-0.9,1.2-1.6,2.1-2.1c0.9-0.5,1.9-0.8,3-0.8c1.1,0,2.1,0.2,3,0.7c0.9,0.5,1.6,1.2,2.1,2.1
			c0.5,0.9,0.7,1.9,0.7,3.1C278.8,246,278.8,246.3,278.8,246.6z M270.9,242.8c-0.6,0.5-1,1.2-1.1,2h6.5c-0.1-0.8-0.5-1.5-1-2
			c-0.6-0.5-1.3-0.8-2.2-0.8C272.2,242,271.4,242.3,270.9,242.8z"/>
	</g>
	<g>
		<path class="st0" d="M291.9,240l-4.9,11.4h-2.8l-4.9-11.4h2.8l3.6,8.5l3.7-8.5H291.9z"/>
	</g>
	<g>
		<path class="st0" d="M304,246.6h-9c0.2,0.8,0.6,1.5,1.2,2c0.7,0.5,1.5,0.7,2.5,0.7c1.3,0,2.3-0.4,3.1-1.2l1.4,1.7
			c-0.5,0.6-1.2,1.1-2,1.4c-0.8,0.3-1.7,0.5-2.7,0.5c-1.3,0-2.4-0.2-3.3-0.7c-1-0.5-1.7-1.2-2.2-2.1c-0.5-0.9-0.8-1.9-0.8-3
			c0-1.1,0.3-2.1,0.8-3c0.5-0.9,1.2-1.6,2.1-2.1c0.9-0.5,1.9-0.8,3-0.8c1.1,0,2.1,0.2,3,0.7c0.9,0.5,1.6,1.2,2.1,2.1
			s0.7,1.9,0.7,3.1C304,246,304,246.3,304,246.6z M296,242.8c-0.6,0.5-1,1.2-1.1,2h6.5c-0.1-0.8-0.5-1.5-1-2
			c-0.6-0.5-1.3-0.8-2.2-0.8C297.4,242,296.6,242.3,296,242.8z"/>
	</g>
	<g>
		<path class="st0" d="M306.6,235.6h2.7v15.9h-2.7V235.6z"/>
	</g>
	<g>
		<path class="st0" d="M314.8,250.9c-0.9-0.5-1.7-1.2-2.2-2.1c-0.5-0.9-0.8-1.9-0.8-3s0.3-2.1,0.8-3c0.5-0.9,1.2-1.6,2.2-2.1
			c0.9-0.5,2-0.8,3.1-0.8c1.2,0,2.2,0.3,3.2,0.8c0.9,0.5,1.7,1.2,2.2,2.1c0.5,0.9,0.8,1.9,0.8,3s-0.3,2.1-0.8,3
			c-0.5,0.9-1.2,1.6-2.2,2.1c-0.9,0.5-2,0.7-3.2,0.7C316.8,251.6,315.7,251.4,314.8,250.9z M320.4,248.3c0.6-0.7,1-1.5,1-2.6
			s-0.3-1.9-1-2.6c-0.6-0.7-1.5-1-2.4-1c-1,0-1.8,0.3-2.4,1c-0.6,0.7-1,1.5-1,2.6s0.3,1.9,1,2.6c0.6,0.7,1.4,1,2.4,1
			C318.9,249.3,319.7,249,320.4,248.3z"/>
	</g>
	<g>
		<path class="st0" d="M335.9,240.6c0.9,0.5,1.6,1.2,2.1,2.1c0.5,0.9,0.8,1.9,0.8,3.1s-0.3,2.2-0.8,3.1c-0.5,0.9-1.2,1.6-2.1,2.1
			c-0.9,0.5-1.9,0.7-3,0.7c-1.5,0-2.8-0.5-3.7-1.5v5.6h-2.7V240h2.6v1.5c0.4-0.5,1-1,1.6-1.2s1.4-0.4,2.2-0.4
			C334.1,239.9,335.1,240.1,335.9,240.6z M335.1,248.3c0.6-0.7,1-1.5,1-2.6s-0.3-1.9-1-2.6c-0.6-0.7-1.4-1-2.4-1
			c-0.6,0-1.2,0.1-1.7,0.4c-0.5,0.3-0.9,0.7-1.2,1.3c-0.3,0.5-0.5,1.2-0.5,1.9s0.2,1.3,0.5,1.9c0.3,0.5,0.7,1,1.2,1.3
			c0.5,0.3,1.1,0.4,1.7,0.4C333.6,249.3,334.4,249,335.1,248.3z"/>
	</g>
	<g>
		<path class="st0" d="M359.2,241.1c0.8,0.8,1.3,2.1,1.3,3.8v6.6h-2.7v-6.2c0-1-0.2-1.8-0.7-2.3c-0.4-0.5-1.1-0.8-1.9-0.8
			c-0.9,0-1.6,0.3-2.2,0.9c-0.5,0.6-0.8,1.4-0.8,2.5v5.8h-2.7v-6.2c0-1-0.2-1.8-0.7-2.3c-0.4-0.5-1.1-0.8-1.9-0.8
			c-0.9,0-1.6,0.3-2.2,0.9c-0.5,0.6-0.8,1.4-0.8,2.6v5.8h-2.7V240h2.6v1.5c0.4-0.5,1-0.9,1.6-1.2c0.6-0.3,1.4-0.4,2.1-0.4
			c0.9,0,1.6,0.2,2.3,0.5c0.7,0.3,1.2,0.8,1.6,1.4c0.5-0.6,1.1-1.1,1.8-1.4c0.7-0.3,1.6-0.5,2.5-0.5
			C357.2,239.9,358.3,240.3,359.2,241.1z"/>
	</g>
	<g>
		<path class="st0" d="M374.7,246.6h-9c0.2,0.8,0.6,1.5,1.2,2c0.7,0.5,1.5,0.7,2.5,0.7c1.3,0,2.3-0.4,3.1-1.2l1.4,1.7
			c-0.5,0.6-1.2,1.1-2,1.4c-0.8,0.3-1.7,0.5-2.7,0.5c-1.3,0-2.4-0.2-3.3-0.7c-1-0.5-1.7-1.2-2.2-2.1c-0.5-0.9-0.8-1.9-0.8-3
			c0-1.1,0.3-2.1,0.8-3c0.5-0.9,1.2-1.6,2.1-2.1c0.9-0.5,1.9-0.8,3-0.8c1.1,0,2.1,0.2,3,0.7c0.9,0.5,1.6,1.2,2.1,2.1
			s0.7,1.9,0.7,3.1C374.8,246,374.7,246.3,374.7,246.6z M366.8,242.8c-0.6,0.5-1,1.2-1.1,2h6.5c-0.1-0.8-0.5-1.5-1-2
			c-0.6-0.5-1.3-0.8-2.2-0.8C368.1,242,367.4,242.3,366.8,242.8z"/>
	</g>
	<g>
		<path class="st0" d="M387.3,241.2c0.9,0.8,1.3,2.1,1.3,3.8v6.6h-2.7v-6.2c0-1-0.2-1.8-0.7-2.3c-0.5-0.5-1.1-0.8-2-0.8
			c-1,0-1.8,0.3-2.3,0.9c-0.6,0.6-0.9,1.4-0.9,2.6v5.8h-2.7V240h2.6v1.5c0.4-0.5,1-0.9,1.7-1.2c0.7-0.3,1.4-0.4,2.3-0.4
			C385.3,239.9,386.4,240.3,387.3,241.2z"/>
	</g>
	<g>
		<path class="st0" d="M398.9,250.8c-0.3,0.3-0.7,0.5-1.1,0.6c-0.5,0.1-0.9,0.2-1.4,0.2c-1.3,0-2.2-0.3-2.9-1c-0.7-0.7-1-1.6-1-2.9
			v-5.5h-1.9v-2.1h1.9v-2.6h2.7v2.6h3.1v2.1h-3.1v5.4c0,0.6,0.1,1,0.4,1.3c0.3,0.3,0.7,0.4,1.2,0.4c0.6,0,1.1-0.2,1.5-0.5
			L398.9,250.8z"/>
	</g>
</g>
<g>
	<path class="st0" d="M643.8,405.7H336c-1.3,0-2.5-0.6-3.3-1.6c-0.8-1-1.1-2.3-0.9-3.5l16-84.4c0.4-2,2.2-3.5,4.2-3.5h307.8
		c1.3,0,2.5,0.6,3.3,1.6c0.8,1,1.1,2.3,0.9,3.5l-16,84.4C647.6,404.2,645.8,405.7,643.8,405.7z M341.2,397.1h299l14.4-75.8h-299
		L341.2,397.1z"/>
</g>
<g>
	<g>
		<path class="st0" d="M398.3,347.5c0.7,0.8,1.1,1.7,1.1,2.9c0,0.9-0.2,1.7-0.7,2.4c-0.4,0.7-1.1,1.3-2,1.7c-0.9,0.4-2,0.6-3.3,0.6
			c-1.1,0-2.1-0.2-3.1-0.5c-1-0.3-1.8-0.7-2.5-1.3l1.2-2.2c0.5,0.5,1.2,0.8,2,1.1c0.8,0.3,1.6,0.4,2.4,0.4c1,0,1.8-0.2,2.3-0.6
			c0.6-0.4,0.8-1,0.8-1.7c0-0.7-0.3-1.2-0.8-1.6c-0.5-0.4-1.4-0.6-2.5-0.6H392v-1.9l3.4-4.1h-6.8v-2.3h10.2v1.9l-3.6,4.3
			C396.5,346.2,397.6,346.7,398.3,347.5z"/>
	</g>
	<g>
		<path class="st0" d="M401.7,354.5c-0.3-0.3-0.5-0.8-0.5-1.3c0-0.5,0.2-1,0.5-1.3c0.3-0.3,0.8-0.5,1.3-0.5c0.5,0,0.9,0.2,1.3,0.5
			c0.3,0.3,0.5,0.8,0.5,1.3c0,0.5-0.2,0.9-0.5,1.3c-0.3,0.3-0.8,0.5-1.2,0.5C402.4,355,402,354.8,401.7,354.5z"/>
	</g>
	<g>
		<path class="st0" d="M413.5,339.8h2.8v12.6h7.8v2.4h-10.6V339.8z"/>
	</g>
	<g>
		<path class="st0" d="M436.7,350h-9c0.2,0.8,0.6,1.5,1.2,2c0.7,0.5,1.5,0.7,2.5,0.7c1.3,0,2.3-0.4,3.1-1.2l1.4,1.7
			c-0.5,0.6-1.2,1.1-2,1.4c-0.8,0.3-1.7,0.5-2.7,0.5c-1.3,0-2.4-0.2-3.3-0.7c-1-0.5-1.7-1.2-2.2-2.1c-0.5-0.9-0.8-1.9-0.8-3
			c0-1.1,0.3-2.1,0.8-3c0.5-0.9,1.2-1.6,2.1-2.1c0.9-0.5,1.9-0.8,3-0.8c1.1,0,2.1,0.2,3,0.7c0.9,0.5,1.6,1.2,2.1,2.1
			c0.5,0.9,0.7,1.9,0.7,3.1C436.7,349.4,436.7,349.6,436.7,350z M428.7,346.2c-0.6,0.5-1,1.2-1.1,2h6.5c-0.1-0.8-0.5-1.5-1-2
			c-0.6-0.5-1.3-0.8-2.2-0.8C430.1,345.4,429.3,345.7,428.7,346.2z"/>
	</g>
	<g>
		<path class="st0" d="M447.2,344.5c0.9,0.8,1.3,2,1.3,3.7v6.7H446v-1.4c-0.3,0.5-0.8,0.9-1.4,1.1c-0.6,0.3-1.3,0.4-2.2,0.4
			c-0.9,0-1.6-0.1-2.3-0.4c-0.6-0.3-1.1-0.7-1.5-1.2s-0.5-1.1-0.5-1.8c0-1,0.4-1.9,1.1-2.5c0.8-0.6,2-0.9,3.6-0.9h3V348
			c0-0.8-0.2-1.4-0.7-1.8c-0.5-0.4-1.2-0.6-2.1-0.6c-0.6,0-1.3,0.1-1.9,0.3c-0.6,0.2-1.1,0.5-1.6,0.8l-1.1-2
			c0.6-0.5,1.3-0.8,2.2-1.1c0.8-0.2,1.7-0.4,2.7-0.4C445,343.3,446.3,343.7,447.2,344.5z M444.8,352.6c0.5-0.3,0.9-0.7,1.1-1.3v-1.3
			h-2.8c-1.5,0-2.3,0.5-2.3,1.5c0,0.5,0.2,0.9,0.6,1.2c0.4,0.3,0.9,0.4,1.6,0.4C443.6,353,444.2,352.9,444.8,352.6z"/>
	</g>
	<g>
		<path class="st0" d="M458.6,343.3v2.6c-0.2,0-0.4-0.1-0.6-0.1c-1,0-1.9,0.3-2.4,0.9s-0.9,1.5-0.9,2.6v5.6H452v-11.4h2.5v1.7
			C455.3,343.9,456.7,343.3,458.6,343.3z"/>
	</g>
	<g>
		<path class="st0" d="M470.8,344.5c0.9,0.8,1.3,2.1,1.3,3.8v6.6h-2.7v-6.2c0-1-0.2-1.8-0.7-2.3c-0.5-0.5-1.1-0.8-2-0.8
			c-1,0-1.8,0.3-2.3,0.9c-0.6,0.6-0.9,1.4-0.9,2.6v5.8h-2.7v-11.4h2.6v1.5c0.4-0.5,1-0.9,1.7-1.2c0.7-0.3,1.4-0.4,2.3-0.4
			C468.8,343.3,470,343.7,470.8,344.5z"/>
	</g>
	<g>
		<path class="st0" d="M475.7,341.1c-0.3-0.3-0.5-0.7-0.5-1.1c0-0.5,0.2-0.8,0.5-1.1c0.3-0.3,0.7-0.5,1.2-0.5s0.9,0.1,1.2,0.4
			c0.3,0.3,0.5,0.7,0.5,1.1c0,0.5-0.2,0.9-0.5,1.2c-0.3,0.3-0.7,0.5-1.2,0.5C476.4,341.5,476,341.4,475.7,341.1z M475.6,343.4h2.7
			v11.4h-2.7V343.4z"/>
	</g>
	<g>
		<path class="st0" d="M491.7,344.5c0.9,0.8,1.3,2.1,1.3,3.8v6.6h-2.7v-6.2c0-1-0.2-1.8-0.7-2.3c-0.5-0.5-1.1-0.8-2-0.8
			c-1,0-1.8,0.3-2.3,0.9c-0.6,0.6-0.9,1.4-0.9,2.6v5.8h-2.7v-11.4h2.6v1.5c0.4-0.5,1-0.9,1.7-1.2c0.7-0.3,1.4-0.4,2.3-0.4
			C489.7,343.3,490.8,343.7,491.7,344.5z"/>
	</g>
	<g>
		<path class="st0" d="M507.9,343.4v9.7c0,4-2.1,6-6.2,6c-1.1,0-2.1-0.1-3.1-0.4c-1-0.3-1.8-0.7-2.4-1.2l1.2-2
			c0.5,0.4,1.1,0.7,1.9,1c0.8,0.3,1.5,0.4,2.3,0.4c1.3,0,2.2-0.3,2.8-0.9s0.9-1.4,0.9-2.6v-0.6c-0.5,0.5-1,0.9-1.7,1.1
			c-0.7,0.3-1.4,0.4-2.2,0.4c-1.1,0-2.1-0.2-2.9-0.7c-0.9-0.5-1.6-1.1-2.1-2c-0.5-0.8-0.8-1.8-0.8-2.9s0.3-2,0.8-2.9
			c0.5-0.8,1.2-1.5,2.1-1.9c0.9-0.5,1.9-0.7,2.9-0.7c0.8,0,1.6,0.1,2.3,0.4c0.7,0.3,1.2,0.7,1.7,1.2v-1.5H507.9z M504.3,351.2
			c0.7-0.6,1-1.4,1-2.4c0-1-0.3-1.7-1-2.3c-0.7-0.6-1.5-0.9-2.5-0.9c-1,0-1.9,0.3-2.5,0.9c-0.7,0.6-1,1.4-1,2.3c0,1,0.3,1.8,1,2.4
			c0.7,0.6,1.5,0.9,2.5,0.9C502.8,352.1,503.6,351.8,504.3,351.2z"/>
	</g>
	<g>
		<path class="st0" d="M524.2,354.2c-0.3,0.3-0.7,0.5-1.1,0.6c-0.5,0.1-0.9,0.2-1.4,0.2c-1.3,0-2.2-0.3-2.9-1c-0.7-0.7-1-1.6-1-2.9
			v-5.5h-1.9v-2.1h1.9v-2.6h2.7v2.6h3.1v2.1h-3.1v5.4c0,0.6,0.1,1,0.4,1.3c0.3,0.3,0.7,0.4,1.2,0.4c0.6,0,1.1-0.2,1.5-0.5
			L524.2,354.2z"/>
	</g>
	<g>
		<path class="st0" d="M536.4,344.5c0.9,0.8,1.3,2.1,1.3,3.8v6.6H535v-6.2c0-1-0.2-1.8-0.7-2.3c-0.5-0.5-1.1-0.8-2-0.8
			c-1,0-1.8,0.3-2.3,0.9c-0.6,0.6-0.9,1.4-0.9,2.6v5.8h-2.7v-15.9h2.7v5.8c0.4-0.5,1-0.8,1.6-1.1c0.7-0.2,1.4-0.4,2.2-0.4
			C534.4,343.3,535.5,343.7,536.4,344.5z"/>
	</g>
	<g>
		<path class="st0" d="M551.9,350h-9c0.2,0.8,0.6,1.5,1.2,2c0.7,0.5,1.5,0.7,2.5,0.7c1.3,0,2.3-0.4,3.1-1.2l1.4,1.7
			c-0.5,0.6-1.2,1.1-2,1.4c-0.8,0.3-1.7,0.5-2.7,0.5c-1.3,0-2.4-0.2-3.3-0.7c-1-0.5-1.7-1.2-2.2-2.1c-0.5-0.9-0.8-1.9-0.8-3
			c0-1.1,0.3-2.1,0.8-3c0.5-0.9,1.2-1.6,2.1-2.1s1.9-0.8,3-0.8c1.1,0,2.1,0.2,3,0.7c0.9,0.5,1.6,1.2,2.1,2.1
			c0.5,0.9,0.7,1.9,0.7,3.1C552,349.4,552,349.6,551.9,350z M544,346.2c-0.6,0.5-1,1.2-1.1,2h6.5c-0.1-0.8-0.5-1.5-1-2
			c-0.6-0.5-1.3-0.8-2.2-0.8C545.3,345.4,544.6,345.7,544,346.2z"/>
	</g>
	<g>
		<path class="st0" d="M556.6,354.2c-0.9-0.5-1.7-1.2-2.2-2.1c-0.5-0.9-0.8-1.9-0.8-3c0-1.1,0.3-2.1,0.8-3c0.5-0.9,1.2-1.6,2.2-2.1
			s2-0.8,3.1-0.8c1.2,0,2.2,0.3,3.2,0.8s1.7,1.2,2.2,2.1c0.5,0.9,0.8,1.9,0.8,3c0,1.1-0.3,2.1-0.8,3c-0.5,0.9-1.2,1.6-2.2,2.1
			s-2,0.7-3.2,0.7C558.5,355,557.5,354.7,556.6,354.2z M562.1,351.7c0.6-0.7,1-1.5,1-2.6s-0.3-1.9-1-2.6c-0.6-0.7-1.5-1-2.4-1
			s-1.8,0.3-2.4,1c-0.6,0.7-1,1.5-1,2.6s0.3,1.9,1,2.6c0.6,0.7,1.4,1,2.4,1S561.5,352.4,562.1,351.7z"/>
	</g>
	<g>
		<path class="st0" d="M575,343.3v2.6c-0.2,0-0.4-0.1-0.6-0.1c-1,0-1.9,0.3-2.4,0.9c-0.6,0.6-0.9,1.5-0.9,2.6v5.6h-2.7v-11.4h2.6
			v1.7C571.7,343.9,573.1,343.3,575,343.3z"/>
	</g>
	<g>
		<path class="st0" d="M577.4,341.1c-0.3-0.3-0.5-0.7-0.5-1.1c0-0.5,0.2-0.8,0.5-1.1c0.3-0.3,0.7-0.5,1.2-0.5s0.9,0.1,1.2,0.4
			c0.3,0.3,0.5,0.7,0.5,1.1c0,0.5-0.2,0.9-0.5,1.2c-0.3,0.3-0.7,0.5-1.2,0.5C578.1,341.5,577.7,341.4,577.4,341.1z M577.3,343.4h2.7
			v11.4h-2.7V343.4z"/>
	</g>
	<g>
		<path class="st0" d="M594.2,350h-9c0.2,0.8,0.6,1.5,1.2,2c0.7,0.5,1.5,0.7,2.5,0.7c1.3,0,2.3-0.4,3.1-1.2l1.4,1.7
			c-0.5,0.6-1.2,1.1-2,1.4c-0.8,0.3-1.7,0.5-2.7,0.5c-1.3,0-2.4-0.2-3.3-0.7s-1.7-1.2-2.2-2.1c-0.5-0.9-0.8-1.9-0.8-3
			c0-1.1,0.3-2.1,0.8-3c0.5-0.9,1.2-1.6,2.1-2.1c0.9-0.5,1.9-0.8,3-0.8c1.1,0,2.1,0.2,3,0.7c0.9,0.5,1.6,1.2,2.1,2.1
			c0.5,0.9,0.7,1.9,0.7,3.1C594.2,349.4,594.2,349.6,594.2,350z M586.3,346.2c-0.6,0.5-1,1.2-1.1,2h6.5c-0.1-0.8-0.5-1.5-1.1-2
			c-0.6-0.5-1.3-0.8-2.2-0.8C587.6,345.4,586.9,345.7,586.3,346.2z"/>
	</g>
	<g>
		<path class="st0" d="M597.6,354.6c-0.9-0.2-1.6-0.5-2.1-0.9l1-2c0.5,0.3,1.1,0.6,1.9,0.8c0.7,0.2,1.4,0.3,2.1,0.3
			c1.6,0,2.4-0.4,2.4-1.3c0-0.4-0.2-0.7-0.6-0.8c-0.4-0.2-1.1-0.3-2-0.5c-0.9-0.1-1.7-0.3-2.3-0.5c-0.6-0.2-1.1-0.5-1.5-1
			c-0.4-0.5-0.7-1.1-0.7-1.9c0-1.1,0.5-2,1.4-2.6c0.9-0.6,2.1-1,3.7-1c0.8,0,1.6,0.1,2.4,0.3c0.8,0.2,1.4,0.4,1.9,0.7l-1,2
			c-1-0.6-2.1-0.9-3.3-0.9c-0.8,0-1.4,0.1-1.8,0.4c-0.4,0.2-0.6,0.5-0.6,0.9c0,0.4,0.2,0.7,0.7,0.9c0.4,0.2,1.1,0.3,2,0.5
			c0.9,0.1,1.7,0.3,2.3,0.5c0.6,0.2,1.1,0.5,1.5,0.9c0.4,0.4,0.6,1.1,0.6,1.9c0,1.1-0.5,1.9-1.4,2.6c-0.9,0.6-2.2,1-3.8,1
			C599.4,355,598.5,354.9,597.6,354.6z"/>
	</g>
	<g>
		<path class="st0" d="M421.5,370.2c0.9,0.8,1.3,2,1.3,3.7v6.7h-2.5v-1.4c-0.3,0.5-0.8,0.9-1.4,1.1c-0.6,0.3-1.3,0.4-2.2,0.4
			c-0.9,0-1.6-0.1-2.3-0.4c-0.6-0.3-1.1-0.7-1.5-1.2c-0.4-0.5-0.5-1.1-0.5-1.8c0-1,0.4-1.9,1.1-2.5c0.8-0.6,2-0.9,3.6-0.9h3v-0.2
			c0-0.8-0.2-1.4-0.7-1.8c-0.5-0.4-1.2-0.6-2.1-0.6c-0.6,0-1.3,0.1-1.9,0.3c-0.6,0.2-1.1,0.5-1.6,0.8l-1-2c0.6-0.5,1.3-0.8,2.2-1.1
			c0.8-0.2,1.7-0.4,2.7-0.4C419.3,369,420.6,369.4,421.5,370.2z M419.1,378.3c0.5-0.3,0.9-0.7,1.1-1.3v-1.3h-2.8
			c-1.5,0-2.3,0.5-2.3,1.5c0,0.5,0.2,0.9,0.6,1.2c0.4,0.3,0.9,0.4,1.6,0.4C417.9,378.8,418.5,378.6,419.1,378.3z"/>
	</g>
	<g>
		<path class="st0" d="M436.2,370.3c0.9,0.8,1.3,2.1,1.3,3.8v6.6h-2.7v-6.2c0-1-0.2-1.8-0.7-2.3c-0.5-0.5-1.1-0.8-2-0.8
			c-1,0-1.8,0.3-2.3,0.9c-0.6,0.6-0.9,1.4-0.9,2.6v5.8h-2.7v-11.4h2.5v1.5c0.4-0.5,1-0.9,1.7-1.2c0.7-0.3,1.4-0.4,2.3-0.4
			C434.2,369,435.4,369.4,436.2,370.3z"/>
	</g>
	<g>
		<path class="st0" d="M452.3,364.7v15.9h-2.6v-1.5c-0.4,0.5-1,1-1.6,1.2c-0.7,0.3-1.4,0.4-2.2,0.4c-1.1,0-2.1-0.2-3-0.7
			c-0.9-0.5-1.6-1.2-2.1-2.1c-0.5-0.9-0.7-1.9-0.7-3.1c0-1.2,0.2-2.2,0.7-3.1c0.5-0.9,1.2-1.6,2.1-2.1c0.9-0.5,1.9-0.7,3-0.7
			c0.8,0,1.4,0.1,2.1,0.4c0.6,0.3,1.2,0.6,1.6,1.2v-5.9H452.3z M448,378c0.5-0.3,0.9-0.7,1.2-1.3c0.3-0.5,0.5-1.2,0.5-1.9
			c0-0.7-0.1-1.3-0.5-1.9c-0.3-0.5-0.7-1-1.2-1.3c-0.5-0.3-1.1-0.4-1.7-0.4s-1.2,0.1-1.7,0.4c-0.5,0.3-0.9,0.7-1.2,1.3
			c-0.3,0.5-0.5,1.2-0.5,1.9c0,0.7,0.2,1.3,0.5,1.9c0.3,0.5,0.7,1,1.2,1.3c0.5,0.3,1.1,0.4,1.7,0.4S447.4,378.3,448,378z"/>
	</g>
	<g>
		<path class="st0" d="M471,369.7c0.9,0.5,1.6,1.2,2.1,2.1c0.5,0.9,0.8,1.9,0.8,3.1c0,1.2-0.3,2.2-0.8,3.1c-0.5,0.9-1.2,1.6-2.1,2.1
			c-0.9,0.5-1.9,0.7-3,0.7c-1.5,0-2.8-0.5-3.7-1.5v5.6h-2.7v-15.6h2.6v1.5c0.4-0.5,1-1,1.6-1.2c0.7-0.3,1.4-0.4,2.2-0.4
			C469.2,369,470.2,369.2,471,369.7z M470.2,377.4c0.6-0.7,1-1.5,1-2.6c0-1.1-0.3-1.9-1-2.6c-0.6-0.7-1.4-1-2.4-1
			c-0.6,0-1.2,0.1-1.7,0.4c-0.5,0.3-0.9,0.7-1.2,1.3c-0.3,0.5-0.5,1.2-0.5,1.9c0,0.7,0.2,1.3,0.5,1.9c0.3,0.5,0.7,1,1.2,1.3
			c0.5,0.3,1.1,0.4,1.7,0.4C468.7,378.4,469.5,378.1,470.2,377.4z"/>
	</g>
	<g>
		<path class="st0" d="M483,369v2.6c-0.2,0-0.4-0.1-0.6-0.1c-1,0-1.9,0.3-2.4,0.9s-0.9,1.5-0.9,2.6v5.6h-2.7v-11.4h2.6v1.7
			C479.7,369.6,481.1,369,483,369z"/>
	</g>
	<g>
		<path class="st0" d="M493.5,370.2c0.9,0.8,1.3,2,1.3,3.7v6.7h-2.5v-1.4c-0.3,0.5-0.8,0.9-1.4,1.1s-1.3,0.4-2.2,0.4
			c-0.9,0-1.6-0.1-2.3-0.4c-0.6-0.3-1.1-0.7-1.5-1.2c-0.4-0.5-0.5-1.1-0.5-1.8c0-1,0.4-1.9,1.1-2.5c0.8-0.6,2-0.9,3.6-0.9h3v-0.2
			c0-0.8-0.2-1.4-0.7-1.8c-0.5-0.4-1.2-0.6-2.1-0.6c-0.6,0-1.3,0.1-1.9,0.3c-0.6,0.2-1.1,0.5-1.6,0.8l-1-2c0.6-0.5,1.3-0.8,2.2-1.1
			s1.7-0.4,2.7-0.4C491.3,369,492.6,369.4,493.5,370.2z M491,378.3c0.5-0.3,0.9-0.7,1.1-1.3v-1.3h-2.8c-1.5,0-2.3,0.5-2.3,1.5
			c0,0.5,0.2,0.9,0.6,1.2c0.4,0.3,0.9,0.4,1.6,0.4C489.9,378.8,490.5,378.6,491,378.3z"/>
	</g>
	<g>
		<path class="st0" d="M500.4,380c-0.9-0.5-1.7-1.2-2.2-2.1c-0.5-0.9-0.8-1.9-0.8-3c0-1.1,0.3-2.1,0.8-3c0.5-0.9,1.3-1.6,2.2-2.1
			c0.9-0.5,2-0.8,3.2-0.8c1.1,0,2.1,0.2,3,0.7c0.9,0.5,1.5,1.1,1.9,2l-2.1,1.2c-0.3-0.5-0.7-0.9-1.2-1.2c-0.5-0.3-1-0.4-1.6-0.4
			c-1,0-1.8,0.3-2.5,1c-0.7,0.6-1,1.5-1,2.6s0.3,2,1,2.6c0.7,0.7,1.5,1,2.5,1c0.6,0,1.1-0.1,1.6-0.4c0.5-0.3,0.9-0.7,1.2-1.2
			l2.1,1.2c-0.4,0.9-1.1,1.5-1.9,2s-1.8,0.7-2.9,0.7C502.4,380.7,501.4,380.5,500.4,380z"/>
	</g>
	<g>
		<path class="st0" d="M517.8,380c-0.3,0.3-0.7,0.5-1.1,0.6c-0.5,0.1-0.9,0.2-1.4,0.2c-1.3,0-2.2-0.3-2.9-1c-0.7-0.7-1-1.6-1-2.9
			v-5.5h-1.9v-2.1h1.9v-2.6h2.7v2.6h3.1v2.1H514v5.4c0,0.6,0.1,1,0.4,1.3c0.3,0.3,0.7,0.4,1.2,0.4c0.6,0,1.1-0.2,1.5-0.5L517.8,380z
			"/>
	</g>
	<g>
		<path class="st0" d="M520.2,366.8c-0.3-0.3-0.5-0.7-0.5-1.1c0-0.5,0.2-0.8,0.5-1.1s0.7-0.5,1.2-0.5s0.9,0.1,1.2,0.4
			c0.3,0.3,0.5,0.7,0.5,1.1c0,0.5-0.2,0.9-0.5,1.2c-0.3,0.3-0.7,0.5-1.2,0.5C520.9,367.2,520.5,367.1,520.2,366.8z M520.1,369.1h2.7
			v11.4h-2.7V369.1z"/>
	</g>
	<g>
		<path class="st0" d="M528.3,380c-0.9-0.5-1.7-1.2-2.2-2.1c-0.5-0.9-0.8-1.9-0.8-3c0-1.1,0.3-2.1,0.8-3c0.5-0.9,1.3-1.6,2.2-2.1
			c0.9-0.5,2-0.8,3.2-0.8c1.1,0,2.1,0.2,3,0.7c0.9,0.5,1.5,1.1,1.9,2l-2.1,1.2c-0.3-0.5-0.7-0.9-1.2-1.2c-0.5-0.3-1-0.4-1.6-0.4
			c-1,0-1.8,0.3-2.5,1c-0.7,0.6-1,1.5-1,2.6s0.3,2,1,2.6c0.7,0.7,1.5,1,2.5,1c0.6,0,1.1-0.1,1.6-0.4c0.5-0.3,0.9-0.7,1.2-1.2
			l2.1,1.2c-0.4,0.9-1.1,1.5-1.9,2c-0.9,0.5-1.8,0.7-2.9,0.7C530.3,380.7,529.3,380.5,528.3,380z"/>
	</g>
	<g>
		<path class="st0" d="M549.3,375.7h-9c0.2,0.8,0.6,1.5,1.2,2c0.7,0.5,1.5,0.7,2.5,0.7c1.3,0,2.3-0.4,3.1-1.2l1.4,1.7
			c-0.5,0.6-1.2,1.1-2,1.4c-0.8,0.3-1.7,0.5-2.7,0.5c-1.3,0-2.4-0.2-3.3-0.7c-1-0.5-1.7-1.2-2.2-2.1c-0.5-0.9-0.8-1.9-0.8-3
			c0-1.1,0.3-2.1,0.8-3c0.5-0.9,1.2-1.6,2.1-2.1c0.9-0.5,1.9-0.8,3-0.8c1.1,0,2.1,0.2,3,0.7c0.9,0.5,1.6,1.2,2.1,2.1
			c0.5,0.9,0.7,1.9,0.7,3.1C549.3,375.1,549.3,375.4,549.3,375.7z M541.3,371.9c-0.6,0.5-1,1.2-1.1,2h6.5c-0.1-0.8-0.5-1.5-1.1-2
			c-0.6-0.5-1.3-0.8-2.2-0.8C542.7,371.1,541.9,371.4,541.3,371.9z"/>
	</g>
	<g>
		<path class="st0" d="M552.7,380.4c-0.9-0.2-1.6-0.5-2.1-0.9l1-2c0.5,0.3,1.1,0.6,1.9,0.8c0.7,0.2,1.4,0.3,2.1,0.3
			c1.6,0,2.4-0.4,2.4-1.3c0-0.4-0.2-0.7-0.6-0.8c-0.4-0.2-1.1-0.3-2-0.5c-0.9-0.1-1.7-0.3-2.3-0.5c-0.6-0.2-1.1-0.5-1.5-1
			c-0.4-0.5-0.7-1.1-0.7-1.9c0-1.1,0.5-2,1.4-2.6c0.9-0.6,2.1-1,3.7-1c0.8,0,1.6,0.1,2.4,0.3c0.8,0.2,1.4,0.4,1.9,0.7l-1,2
			c-1-0.6-2.1-0.9-3.3-0.9c-0.8,0-1.4,0.1-1.8,0.4c-0.4,0.2-0.6,0.5-0.6,0.9c0,0.4,0.2,0.7,0.7,0.9c0.4,0.2,1.1,0.3,2,0.5
			c0.9,0.1,1.7,0.3,2.3,0.5c0.6,0.2,1.1,0.5,1.5,0.9c0.4,0.4,0.6,1.1,0.6,1.9c0,1.1-0.5,1.9-1.4,2.6c-0.9,0.6-2.2,1-3.8,1
			C554.5,380.7,553.6,380.6,552.7,380.4z"/>
	</g>
</g>
<g>
	<path class="st0" d="M564,536.7H304.4c-15.6,0-28.4-12.7-28.4-28.4v-40.1c0-15.6,12.7-28.4,28.4-28.4H564
		c15.6,0,28.3,12.7,28.3,28.4v40.1C592.4,524,579.6,536.7,564,536.7z M304.4,448.5c-10.9,0-19.8,8.9-19.8,19.8v40.1
		c0,10.9,8.9,19.8,19.8,19.8H564c10.9,0,19.8-8.9,19.8-19.8v-40.1c0-10.9-8.9-19.8-19.8-19.8H304.4z"/>
</g>
<g>
	<g>
		<path class="st0" d="M320.8,478.6h-2.7v3.4h-2.7v-3.4h-8.2v-1.9l7.4-9.7h3l-7,9.2h4.9v-3h2.6v3h2.7V478.6z"/>
	</g>
	<g>
		<path class="st0" d="M322.9,481.7c-0.3-0.3-0.5-0.8-0.5-1.3c0-0.5,0.2-1,0.5-1.3c0.3-0.3,0.8-0.5,1.3-0.5c0.5,0,0.9,0.2,1.3,0.5
			c0.3,0.3,0.5,0.8,0.5,1.3c0,0.5-0.2,0.9-0.5,1.3c-0.3,0.3-0.8,0.5-1.2,0.5C323.6,482.2,323.2,482,322.9,481.7z"/>
	</g>
	<g>
		<path class="st0" d="M334.5,468.3c-0.3-0.3-0.5-0.7-0.5-1.1c0-0.5,0.2-0.8,0.5-1.1c0.3-0.3,0.7-0.5,1.2-0.5c0.5,0,0.9,0.1,1.2,0.4
			c0.3,0.3,0.5,0.7,0.5,1.1c0,0.5-0.2,0.9-0.5,1.2c-0.3,0.3-0.7,0.5-1.2,0.5C335.3,468.7,334.9,468.6,334.5,468.3z M334.4,470.6h2.7
			v11.4h-2.7V470.6z"/>
	</g>
	<g>
		<path class="st0" d="M350.6,471.7c0.9,0.8,1.3,2.1,1.3,3.8v6.6h-2.7v-6.2c0-1-0.2-1.8-0.7-2.3c-0.5-0.5-1.1-0.8-2-0.8
			c-1,0-1.8,0.3-2.3,0.9c-0.6,0.6-0.9,1.4-0.9,2.6v5.8h-2.7v-11.4h2.6v1.5c0.4-0.5,1-0.9,1.7-1.2c0.7-0.3,1.4-0.4,2.3-0.4
			C348.5,470.5,349.7,470.9,350.6,471.7z"/>
	</g>
	<g>
		<path class="st0" d="M362.2,481.4c-0.3,0.3-0.7,0.5-1.1,0.6c-0.5,0.1-0.9,0.2-1.4,0.2c-1.3,0-2.2-0.3-2.9-1c-0.7-0.7-1-1.6-1-2.9
			v-5.5h-1.9v-2.1h1.9v-2.6h2.7v2.6h3.1v2.1h-3.1v5.4c0,0.6,0.1,1,0.4,1.3c0.3,0.3,0.7,0.4,1.2,0.4c0.6,0,1.1-0.2,1.5-0.5
			L362.2,481.4z"/>
	</g>
	<g>
		<path class="st0" d="M374.7,477.2h-9c0.2,0.8,0.6,1.5,1.2,2c0.7,0.5,1.5,0.7,2.5,0.7c1.3,0,2.3-0.4,3.1-1.2l1.4,1.6
			c-0.5,0.6-1.2,1.1-2,1.4c-0.8,0.3-1.7,0.5-2.7,0.5c-1.3,0-2.4-0.2-3.3-0.7c-1-0.5-1.7-1.2-2.2-2.1c-0.5-0.9-0.8-1.9-0.8-3
			c0-1.1,0.3-2.1,0.8-3c0.5-0.9,1.2-1.6,2.1-2.1c0.9-0.5,1.9-0.7,3-0.7c1.1,0,2.1,0.2,3,0.7c0.9,0.5,1.6,1.2,2.1,2.1
			c0.5,0.9,0.7,1.9,0.7,3.1C374.8,476.6,374.7,476.8,374.7,477.2z M366.8,473.4c-0.6,0.5-1,1.2-1.1,2h6.5c-0.1-0.8-0.5-1.5-1-2
			c-0.6-0.5-1.3-0.8-2.2-0.8C368.1,472.6,367.4,472.9,366.8,473.4z"/>
	</g>
	<g>
		<path class="st0" d="M384,470.5v2.6c-0.2,0-0.4-0.1-0.6-0.1c-1,0-1.9,0.3-2.4,0.9s-0.9,1.5-0.9,2.6v5.6h-2.7v-11.4h2.6v1.7
			C380.7,471.1,382,470.5,384,470.5z"/>
	</g>
	<g>
		<path class="st0" d="M397.3,466.1v15.9h-2.6v-1.5c-0.4,0.5-1,1-1.6,1.2c-0.7,0.3-1.4,0.4-2.2,0.4c-1.1,0-2.1-0.2-3-0.7
			c-0.9-0.5-1.6-1.2-2.1-2.1c-0.5-0.9-0.8-1.9-0.8-3.1s0.3-2.2,0.8-3.1s1.2-1.6,2.1-2.1c0.9-0.5,1.9-0.7,3-0.7
			c0.8,0,1.4,0.1,2.1,0.4s1.2,0.6,1.6,1.2v-5.9H397.3z M393,479.5c0.5-0.3,0.9-0.7,1.2-1.3c0.3-0.5,0.5-1.2,0.5-1.9
			c0-0.7-0.1-1.3-0.5-1.9c-0.3-0.5-0.7-1-1.2-1.3c-0.5-0.3-1.1-0.4-1.7-0.4c-0.6,0-1.2,0.1-1.7,0.4c-0.5,0.3-0.9,0.7-1.2,1.3
			c-0.3,0.5-0.5,1.2-0.5,1.9c0,0.7,0.1,1.3,0.5,1.9c0.3,0.5,0.7,1,1.2,1.3c0.5,0.3,1.1,0.4,1.7,0.4
			C391.9,479.9,392.5,479.8,393,479.5z"/>
	</g>
	<g>
		<path class="st0" d="M401,468.3c-0.3-0.3-0.5-0.7-0.5-1.1c0-0.5,0.2-0.8,0.5-1.1c0.3-0.3,0.7-0.5,1.2-0.5c0.5,0,0.9,0.1,1.2,0.4
			c0.3,0.3,0.5,0.7,0.5,1.1c0,0.5-0.2,0.9-0.5,1.2c-0.3,0.3-0.7,0.5-1.2,0.5C401.7,468.7,401.3,468.6,401,468.3z M400.8,470.6h2.7
			v11.4h-2.7V470.6z"/>
	</g>
	<g>
		<path class="st0" d="M407.9,481.8c-0.9-0.2-1.6-0.6-2.1-0.9l1-2c0.5,0.3,1.1,0.6,1.9,0.8c0.7,0.2,1.4,0.3,2.1,0.3
			c1.6,0,2.4-0.4,2.4-1.3c0-0.4-0.2-0.7-0.6-0.8c-0.4-0.2-1.1-0.3-2-0.5c-0.9-0.1-1.7-0.3-2.3-0.5c-0.6-0.2-1.1-0.5-1.5-1
			c-0.4-0.5-0.7-1.1-0.7-1.9c0-1.1,0.5-2,1.4-2.6c0.9-0.7,2.1-1,3.7-1c0.8,0,1.6,0.1,2.4,0.3c0.8,0.2,1.4,0.4,1.9,0.7l-1,2
			c-1-0.6-2.1-0.9-3.3-0.9c-0.8,0-1.4,0.1-1.8,0.4c-0.4,0.2-0.6,0.5-0.6,0.9c0,0.4,0.2,0.7,0.7,0.9c0.4,0.2,1.1,0.3,2,0.5
			c0.9,0.1,1.7,0.3,2.3,0.5c0.6,0.2,1.1,0.5,1.5,0.9c0.4,0.4,0.6,1.1,0.6,1.9c0,1.1-0.5,1.9-1.4,2.6c-0.9,0.6-2.2,1-3.8,1
			C409.7,482.2,408.7,482.1,407.9,481.8z"/>
	</g>
	<g>
		<path class="st0" d="M420.1,481.5c-0.9-0.5-1.7-1.2-2.2-2.1c-0.5-0.9-0.8-1.9-0.8-3c0-1.1,0.3-2.1,0.8-3c0.5-0.9,1.3-1.6,2.2-2.1
			s2-0.7,3.2-0.7c1.1,0,2.1,0.2,3,0.7c0.9,0.5,1.5,1.1,1.9,2l-2.1,1.2c-0.3-0.5-0.7-0.9-1.2-1.2c-0.5-0.3-1-0.4-1.6-0.4
			c-1,0-1.8,0.3-2.5,1c-0.7,0.7-1,1.5-1,2.6s0.3,2,1,2.6c0.7,0.7,1.5,1,2.5,1c0.6,0,1.1-0.1,1.6-0.4c0.5-0.3,0.9-0.7,1.2-1.2
			l2.1,1.2c-0.4,0.9-1.1,1.5-1.9,2c-0.9,0.5-1.8,0.7-2.9,0.7C422.2,482.2,421.1,482,420.1,481.5z"/>
	</g>
	<g>
		<path class="st0" d="M430.7,468.3c-0.3-0.3-0.5-0.7-0.5-1.1c0-0.5,0.2-0.8,0.5-1.1c0.3-0.3,0.7-0.5,1.2-0.5c0.5,0,0.9,0.1,1.2,0.4
			c0.3,0.3,0.5,0.7,0.5,1.1c0,0.5-0.2,0.9-0.5,1.2c-0.3,0.3-0.7,0.5-1.2,0.5C431.4,468.7,431,468.6,430.7,468.3z M430.5,470.6h2.7
			v11.4h-2.7V470.6z"/>
	</g>
	<g>
		<path class="st0" d="M446.1,471.2c0.9,0.5,1.6,1.2,2.1,2.1s0.8,1.9,0.8,3.1s-0.3,2.2-0.8,3.1c-0.5,0.9-1.2,1.6-2.1,2.1
			c-0.9,0.5-1.9,0.7-3,0.7c-1.5,0-2.8-0.5-3.7-1.5v5.6h-2.7v-15.6h2.6v1.5c0.4-0.5,1-1,1.6-1.2c0.7-0.3,1.4-0.4,2.2-0.4
			C444.2,470.5,445.2,470.7,446.1,471.2z M445.2,478.9c0.6-0.7,1-1.5,1-2.6s-0.3-1.9-1-2.6c-0.6-0.7-1.4-1-2.4-1
			c-0.6,0-1.2,0.1-1.7,0.4c-0.5,0.3-0.9,0.7-1.2,1.3c-0.3,0.5-0.5,1.2-0.5,1.9c0,0.7,0.2,1.3,0.5,1.9c0.3,0.5,0.7,1,1.2,1.3
			c0.5,0.3,1.1,0.4,1.7,0.4C443.8,479.9,444.6,479.6,445.2,478.9z"/>
	</g>
	<g>
		<path class="st0" d="M451.4,466.1h2.7v15.9h-2.7V466.1z"/>
	</g>
	<g>
		<path class="st0" d="M457.8,468.3c-0.3-0.3-0.5-0.7-0.5-1.1c0-0.5,0.2-0.8,0.5-1.1c0.3-0.3,0.7-0.5,1.2-0.5c0.5,0,0.9,0.1,1.2,0.4
			c0.3,0.3,0.5,0.7,0.5,1.1c0,0.5-0.2,0.9-0.5,1.2c-0.3,0.3-0.7,0.5-1.2,0.5C458.5,468.7,458.1,468.6,457.8,468.3z M457.6,470.6h2.7
			v11.4h-2.7V470.6z"/>
	</g>
	<g>
		<path class="st0" d="M473.8,471.7c0.9,0.8,1.3,2.1,1.3,3.8v6.6h-2.7v-6.2c0-1-0.2-1.8-0.7-2.3c-0.5-0.5-1.1-0.8-2-0.8
			c-1,0-1.8,0.3-2.3,0.9c-0.6,0.6-0.9,1.4-0.9,2.6v5.8h-2.7v-11.4h2.6v1.5c0.4-0.5,1-0.9,1.7-1.2c0.7-0.3,1.4-0.4,2.3-0.4
			C471.8,470.5,472.9,470.9,473.8,471.7z"/>
	</g>
	<g>
		<path class="st0" d="M486.8,471.7c0.9,0.8,1.3,2,1.3,3.7v6.7h-2.5v-1.4c-0.3,0.5-0.8,0.9-1.4,1.1c-0.6,0.3-1.3,0.4-2.2,0.4
			c-0.9,0-1.6-0.1-2.3-0.4c-0.6-0.3-1.1-0.7-1.5-1.2c-0.4-0.5-0.5-1.1-0.5-1.8c0-1,0.4-1.9,1.1-2.5c0.8-0.6,2-0.9,3.6-0.9h3v-0.2
			c0-0.8-0.2-1.4-0.7-1.8c-0.5-0.4-1.2-0.6-2.1-0.6c-0.6,0-1.3,0.1-1.9,0.3s-1.1,0.5-1.6,0.8l-1-2c0.6-0.5,1.3-0.8,2.2-1
			s1.7-0.4,2.7-0.4C484.6,470.5,485.9,470.9,486.8,471.7z M484.3,479.8c0.5-0.3,0.9-0.7,1.1-1.3v-1.3h-2.8c-1.5,0-2.3,0.5-2.3,1.5
			c0,0.5,0.2,0.9,0.6,1.2c0.4,0.3,0.9,0.4,1.6,0.4C483.2,480.3,483.8,480.1,484.3,479.8z"/>
	</g>
	<g>
		<path class="st0" d="M498.2,470.5v2.6c-0.2,0-0.4-0.1-0.6-0.1c-1,0-1.9,0.3-2.4,0.9c-0.6,0.6-0.9,1.5-0.9,2.6v5.6h-2.7v-11.4h2.6
			v1.7C494.9,471.1,496.2,470.5,498.2,470.5z"/>
	</g>
	<g>
		<path class="st0" d="M500.6,468.3c-0.3-0.3-0.5-0.7-0.5-1.1c0-0.5,0.2-0.8,0.5-1.1c0.3-0.3,0.7-0.5,1.2-0.5s0.9,0.1,1.2,0.4
			c0.3,0.3,0.5,0.7,0.5,1.1c0,0.5-0.2,0.9-0.5,1.2c-0.3,0.3-0.7,0.5-1.2,0.5C501.3,468.7,500.9,468.6,500.6,468.3z M500.4,470.6h2.7
			v11.4h-2.7V470.6z"/>
	</g>
	<g>
		<path class="st0" d="M513.5,481.4c-0.3,0.3-0.7,0.5-1.1,0.6c-0.5,0.1-0.9,0.2-1.4,0.2c-1.3,0-2.2-0.3-2.9-1c-0.7-0.7-1-1.6-1-2.9
			v-5.5h-1.9v-2.1h1.9v-2.6h2.7v2.6h3.1v2.1h-3.1v5.4c0,0.6,0.1,1,0.4,1.3c0.3,0.3,0.7,0.4,1.2,0.4c0.6,0,1.1-0.2,1.5-0.5
			L513.5,481.4z"/>
	</g>
	<g>
		<path class="st0" d="M526.2,470.6l-5.4,12.4c-0.5,1.2-1.1,2.1-1.8,2.6c-0.7,0.5-1.6,0.8-2.6,0.8c-0.6,0-1.1-0.1-1.7-0.3
			c-0.6-0.2-1-0.4-1.4-0.8l1.1-2c0.3,0.2,0.6,0.4,0.9,0.6c0.4,0.1,0.7,0.2,1.1,0.2c0.5,0,0.9-0.1,1.2-0.4s0.6-0.6,0.8-1.2l0.2-0.5
			l-5-11.5h2.8l3.6,8.5l3.6-8.5H526.2z"/>
	</g>
	<g>
		<path class="st0" d="M533.9,468.3c-0.3-0.3-0.5-0.7-0.5-1.1c0-0.5,0.2-0.8,0.5-1.1c0.3-0.3,0.7-0.5,1.2-0.5c0.5,0,0.9,0.1,1.2,0.4
			c0.3,0.3,0.5,0.7,0.5,1.1c0,0.5-0.2,0.9-0.5,1.2c-0.3,0.3-0.7,0.5-1.2,0.5C534.7,468.7,534.3,468.6,533.9,468.3z M533.8,470.6h2.7
			v11.4h-2.7V470.6z"/>
	</g>
	<g>
		<path class="st0" d="M550,471.7c0.9,0.8,1.3,2.1,1.3,3.8v6.6h-2.7v-6.2c0-1-0.2-1.8-0.7-2.3c-0.5-0.5-1.1-0.8-2-0.8
			c-1,0-1.8,0.3-2.3,0.9c-0.6,0.6-0.9,1.4-0.9,2.6v5.8H540v-11.4h2.6v1.5c0.4-0.5,1-0.9,1.7-1.2c0.7-0.3,1.4-0.4,2.3-0.4
			C547.9,470.5,549.1,470.9,550,471.7z"/>
	</g>
	<g>
		<path class="st0" d="M341.9,497.5c0.9,0.8,1.3,2.1,1.3,3.8v6.6h-2.7v-6.2c0-1-0.2-1.8-0.7-2.3c-0.5-0.5-1.1-0.8-2-0.8
			c-1,0-1.8,0.3-2.3,0.9c-0.6,0.6-0.9,1.4-0.9,2.6v5.8h-2.7v-15.9h2.7v5.8c0.4-0.5,1-0.8,1.6-1.1c0.7-0.3,1.4-0.4,2.2-0.4
			C339.9,496.2,341,496.6,341.9,497.5z"/>
	</g>
	<g>
		<path class="st0" d="M346.8,494c-0.3-0.3-0.5-0.7-0.5-1.1c0-0.5,0.2-0.8,0.5-1.1c0.3-0.3,0.7-0.5,1.2-0.5c0.5,0,0.9,0.1,1.2,0.4
			c0.3,0.3,0.5,0.7,0.5,1.1c0,0.5-0.2,0.9-0.5,1.2c-0.3,0.3-0.7,0.5-1.2,0.5C347.5,494.4,347.1,494.3,346.8,494z M346.6,496.3h2.7
			v11.4h-2.7V496.3z"/>
	</g>
	<g>
		<path class="st0" d="M364.2,496.3v9.7c0,4-2.1,6-6.2,6c-1.1,0-2.1-0.1-3.1-0.4c-1-0.3-1.8-0.7-2.4-1.2l1.2-2
			c0.5,0.4,1.1,0.7,1.9,1c0.8,0.2,1.5,0.4,2.3,0.4c1.3,0,2.2-0.3,2.8-0.9c0.6-0.6,0.9-1.4,0.9-2.6v-0.6c-0.5,0.5-1,0.9-1.7,1.1
			c-0.7,0.3-1.4,0.4-2.2,0.4c-1.1,0-2.1-0.2-2.9-0.7s-1.6-1.1-2.1-2c-0.5-0.8-0.8-1.8-0.8-2.9c0-1.1,0.3-2,0.8-2.9
			c0.5-0.8,1.2-1.5,2.1-1.9c0.9-0.5,1.9-0.7,2.9-0.7c0.8,0,1.6,0.1,2.3,0.4c0.7,0.3,1.2,0.7,1.7,1.2v-1.5H364.2z M360.6,504.1
			c0.7-0.6,1-1.4,1-2.4c0-1-0.3-1.7-1-2.3c-0.7-0.6-1.5-0.9-2.5-0.9c-1,0-1.9,0.3-2.5,0.9c-0.7,0.6-1,1.4-1,2.3c0,1,0.3,1.8,1,2.4
			c0.7,0.6,1.5,0.9,2.5,0.9C359.1,505,359.9,504.7,360.6,504.1z"/>
	</g>
	<g>
		<path class="st0" d="M377.7,497.5c0.9,0.8,1.3,2.1,1.3,3.8v6.6h-2.7v-6.2c0-1-0.2-1.8-0.7-2.3c-0.5-0.5-1.1-0.8-2-0.8
			c-1,0-1.8,0.3-2.3,0.9c-0.6,0.6-0.9,1.4-0.9,2.6v5.8h-2.7v-15.9h2.7v5.8c0.4-0.5,1-0.8,1.6-1.1c0.7-0.3,1.4-0.4,2.2-0.4
			C375.6,496.2,376.8,496.6,377.7,497.5z"/>
	</g>
	<g>
		<path class="st0" d="M393.2,502.9h-9c0.2,0.8,0.6,1.5,1.2,2c0.7,0.5,1.5,0.7,2.5,0.7c1.3,0,2.3-0.4,3.1-1.2l1.4,1.6
			c-0.5,0.6-1.2,1.1-2,1.4c-0.8,0.3-1.7,0.5-2.7,0.5c-1.3,0-2.4-0.2-3.3-0.7c-1-0.5-1.7-1.2-2.2-2.1c-0.5-0.9-0.8-1.9-0.8-3
			c0-1.1,0.3-2.1,0.8-3c0.5-0.9,1.2-1.6,2.1-2.1c0.9-0.5,1.9-0.7,3-0.7c1.1,0,2.1,0.2,3,0.7c0.9,0.5,1.6,1.2,2.1,2.1
			c0.5,0.9,0.7,1.9,0.7,3.1C393.3,502.3,393.2,502.6,393.2,502.9z M385.3,499.1c-0.6,0.5-1,1.2-1.1,2h6.5c-0.1-0.8-0.5-1.5-1-2
			c-0.6-0.5-1.3-0.8-2.2-0.8C386.6,498.3,385.9,498.6,385.3,499.1z"/>
	</g>
	<g>
		<path class="st0" d="M402.5,496.2v2.6c-0.2,0-0.4-0.1-0.6-0.1c-1,0-1.9,0.3-2.4,0.9s-0.9,1.5-0.9,2.6v5.6h-2.7v-11.4h2.6v1.7
			C399.2,496.8,400.5,496.2,402.5,496.2z"/>
	</g>
	<g>
		<path class="st0" d="M421.5,502.9h-9c0.2,0.8,0.6,1.5,1.2,2c0.7,0.5,1.5,0.7,2.5,0.7c1.3,0,2.3-0.4,3.1-1.2l1.4,1.6
			c-0.5,0.6-1.2,1.1-2,1.4c-0.8,0.3-1.7,0.5-2.7,0.5c-1.3,0-2.4-0.2-3.3-0.7c-1-0.5-1.7-1.2-2.2-2.1c-0.5-0.9-0.8-1.9-0.8-3
			c0-1.1,0.3-2.1,0.8-3c0.5-0.9,1.2-1.6,2.1-2.1c0.9-0.5,1.9-0.7,3-0.7c1.1,0,2.1,0.2,3,0.7c0.9,0.5,1.6,1.2,2.1,2.1
			c0.5,0.9,0.7,1.9,0.7,3.1C421.5,502.3,421.5,502.6,421.5,502.9z M413.6,499.1c-0.6,0.5-1,1.2-1.1,2h6.5c-0.1-0.8-0.5-1.5-1-2
			c-0.6-0.5-1.3-0.8-2.2-0.8C414.9,498.3,414.1,498.6,413.6,499.1z"/>
	</g>
	<g>
		<path class="st0" d="M435.3,491.9v15.9h-2.6v-1.5c-0.4,0.5-1,1-1.6,1.2c-0.7,0.3-1.4,0.4-2.2,0.4c-1.1,0-2.1-0.2-3-0.7
			c-0.9-0.5-1.6-1.2-2.1-2.1c-0.5-0.9-0.7-1.9-0.7-3.1c0-1.2,0.2-2.2,0.7-3.1c0.5-0.9,1.2-1.6,2.1-2.1c0.9-0.5,1.9-0.7,3-0.7
			c0.8,0,1.4,0.1,2.1,0.4c0.6,0.3,1.2,0.6,1.6,1.2v-5.9H435.3z M431,505.2c0.5-0.3,0.9-0.7,1.2-1.3c0.3-0.5,0.5-1.2,0.5-1.9
			c0-0.7-0.1-1.3-0.5-1.9c-0.3-0.5-0.7-1-1.2-1.3c-0.5-0.3-1.1-0.4-1.7-0.4c-0.6,0-1.2,0.1-1.7,0.4c-0.5,0.3-0.9,0.7-1.2,1.3
			c-0.3,0.5-0.5,1.2-0.5,1.9c0,0.7,0.2,1.3,0.5,1.9c0.3,0.5,0.7,1,1.2,1.3c0.5,0.3,1.1,0.4,1.7,0.4
			C429.9,505.6,430.5,505.5,431,505.2z"/>
	</g>
	<g>
		<path class="st0" d="M449.9,496.3v11.4h-2.6v-1.5c-0.4,0.5-1,0.9-1.6,1.2s-1.3,0.4-2.1,0.4c-1.5,0-2.7-0.4-3.6-1.3
			c-0.9-0.9-1.3-2.1-1.3-3.8v-6.5h2.7v6.2c0,1,0.2,1.8,0.7,2.3s1.1,0.8,2,0.8c1,0,1.7-0.3,2.3-0.9c0.6-0.6,0.8-1.4,0.8-2.6v-5.8
			H449.9z"/>
	</g>
	<g>
		<path class="st0" d="M455.5,507.2c-0.9-0.5-1.7-1.2-2.2-2.1c-0.5-0.9-0.8-1.9-0.8-3c0-1.1,0.3-2.1,0.8-3c0.5-0.9,1.3-1.6,2.2-2.1
			c0.9-0.5,2-0.7,3.2-0.7c1.1,0,2.1,0.2,3,0.7c0.9,0.5,1.5,1.1,1.9,2l-2.1,1.2c-0.3-0.5-0.7-0.9-1.2-1.2c-0.5-0.3-1-0.4-1.6-0.4
			c-1,0-1.8,0.3-2.5,1c-0.7,0.7-1,1.5-1,2.6s0.3,2,1,2.6c0.6,0.7,1.5,1,2.5,1c0.6,0,1.1-0.1,1.6-0.4c0.5-0.3,0.9-0.7,1.2-1.2
			l2.1,1.2c-0.4,0.9-1.1,1.5-1.9,2c-0.9,0.5-1.8,0.7-2.9,0.7C457.5,507.9,456.4,507.7,455.5,507.2z"/>
	</g>
	<g>
		<path class="st0" d="M474.1,497.4c0.9,0.8,1.3,2,1.3,3.7v6.7h-2.5v-1.4c-0.3,0.5-0.8,0.9-1.4,1.1c-0.6,0.3-1.3,0.4-2.2,0.4
			c-0.9,0-1.6-0.1-2.3-0.4c-0.6-0.3-1.1-0.7-1.5-1.2c-0.3-0.5-0.5-1.1-0.5-1.8c0-1,0.4-1.9,1.1-2.5c0.8-0.6,2-0.9,3.6-0.9h3v-0.2
			c0-0.8-0.2-1.4-0.7-1.8c-0.5-0.4-1.2-0.6-2.1-0.6c-0.6,0-1.3,0.1-1.9,0.3s-1.1,0.5-1.6,0.8l-1.1-2c0.6-0.5,1.3-0.8,2.2-1
			c0.8-0.2,1.7-0.4,2.7-0.4C471.9,496.2,473.2,496.6,474.1,497.4z M471.7,505.5c0.5-0.3,0.9-0.7,1.1-1.3v-1.3H470
			c-1.5,0-2.3,0.5-2.3,1.5c0,0.5,0.2,0.9,0.6,1.2c0.4,0.3,0.9,0.4,1.6,0.4C470.6,506,471.1,505.8,471.7,505.5z"/>
	</g>
	<g>
		<path class="st0" d="M485.8,507.2c-0.3,0.3-0.7,0.5-1.1,0.6c-0.5,0.1-0.9,0.2-1.4,0.2c-1.3,0-2.2-0.3-2.9-1c-0.7-0.7-1-1.6-1-2.9
			v-5.5h-1.9v-2.1h1.9v-2.6h2.7v2.6h3.1v2.1h-3.1v5.4c0,0.6,0.1,1,0.4,1.3c0.3,0.3,0.7,0.4,1.2,0.4c0.6,0,1.1-0.2,1.5-0.5
			L485.8,507.2z"/>
	</g>
	<g>
		<path class="st0" d="M488.1,494c-0.3-0.3-0.5-0.7-0.5-1.1c0-0.5,0.2-0.8,0.5-1.1c0.3-0.3,0.7-0.5,1.2-0.5c0.5,0,0.9,0.1,1.2,0.4
			c0.3,0.3,0.5,0.7,0.5,1.1c0,0.5-0.2,0.9-0.5,1.2c-0.3,0.3-0.7,0.5-1.2,0.5C488.8,494.4,488.4,494.3,488.1,494z M488,496.3h2.7
			v11.4H488V496.3z"/>
	</g>
	<g>
		<path class="st0" d="M496.2,507.2c-0.9-0.5-1.7-1.2-2.2-2.1c-0.5-0.9-0.8-1.9-0.8-3c0-1.1,0.3-2.1,0.8-3c0.5-0.9,1.2-1.6,2.2-2.1
			c0.9-0.5,2-0.7,3.1-0.7c1.2,0,2.2,0.2,3.2,0.7c0.9,0.5,1.7,1.2,2.2,2.1c0.5,0.9,0.8,1.9,0.8,3c0,1.1-0.3,2.1-0.8,3
			c-0.5,0.9-1.2,1.6-2.2,2.1c-0.9,0.5-2,0.7-3.2,0.7C498.2,507.9,497.1,507.7,496.2,507.2z M501.8,504.6c0.6-0.7,1-1.5,1-2.6
			s-0.3-1.9-1-2.6c-0.6-0.7-1.5-1-2.4-1c-1,0-1.8,0.3-2.4,1c-0.6,0.7-1,1.5-1,2.6s0.3,1.9,1,2.6c0.6,0.7,1.4,1,2.4,1
			C500.3,505.6,501.1,505.3,501.8,504.6z"/>
	</g>
	<g>
		<path class="st0" d="M518,497.5c0.9,0.8,1.3,2.1,1.3,3.8v6.6h-2.7v-6.2c0-1-0.2-1.8-0.7-2.3c-0.5-0.5-1.1-0.8-2-0.8
			c-1,0-1.8,0.3-2.3,0.9c-0.6,0.6-0.9,1.4-0.9,2.6v5.8H508v-11.4h2.6v1.5c0.4-0.5,1-0.9,1.7-1.2c0.7-0.3,1.4-0.4,2.3-0.4
			C515.9,496.2,517.1,496.6,518,497.5z"/>
	</g>
</g>
<g>
	<path class="st0" d="M677.7,235.3H510.5c-2.4,0-4.3-1.9-4.3-4.3c0-2.4,1.9-4.3,4.3-4.3h167.1c12.5,0,22.7-10.2,22.7-22.7v-70.9
		c0-12.5-10.2-22.7-22.7-22.7h-19.2c-2.4,0-4.3-1.9-4.3-4.3c0-2.4,1.9-4.3,4.3-4.3h19.2c17.3,0,31.3,14,31.3,31.3V204
		C709,221.3,694.9,235.3,677.7,235.3z"/>
</g>
<g>
	<path class="st0" d="M341.1,363.5H177c-18.5,0-33.5-15-33.5-33.5v-69.7c0-18.5,15-33.5,33.5-33.5h18.9c2.4,0,4.3,1.9,4.3,4.3
		c0,2.4-1.9,4.3-4.3,4.3H177c-13.8,0-25,11.2-25,25V330c0,13.8,11.2,24.9,25,24.9h164.1c2.4,0,4.3,1.9,4.3,4.3
		S343.5,363.5,341.1,363.5z"/>
</g>
<g>
	<path class="st0" d="M677.9,492.6h-85.6c-2.4,0-4.3-1.9-4.3-4.3s1.9-4.3,4.3-4.3h85.6c12.4,0,22.5-10.1,22.5-22.5v-75.6
		c0-12.4-10.1-22.5-22.5-22.5h-26.1c-2.4,0-4.3-1.9-4.3-4.3s1.9-4.3,4.3-4.3h26.1c17.1,0,31,13.9,31,31v75.6
		C709,478.7,695,492.6,677.9,492.6z"/>
</g>
<g>
	<path class="st0" d="M350.7,114.8h-70.4c-2.4,0-4.3-1.9-4.3-4.3c0-2.4,1.9-4.3,4.3-4.3h70.4c2.4,0,4.3,1.9,4.3,4.3
		C355,112.9,353,114.8,350.7,114.8z"/>
</g>
<g>
	<path class="st0" d="M280.3,492.6h-60.6c-2.4,0-4.3-1.9-4.3-4.3s1.9-4.3,4.3-4.3h60.6c2.4,0,4.3,1.9,4.3,4.3
		S282.7,492.6,280.3,492.6z"/>
</g>
<g>
	<path class="st0" d="M216.7,532.3h-79.4c-2.4,0-4.3-1.9-4.3-4.3v-79.4c0-2.4,1.9-4.3,4.3-4.3h79.4c2.4,0,4.3,1.9,4.3,4.3V528
		C221,530.4,219.1,532.3,216.7,532.3z M141.6,523.7h70.8v-70.8h-70.8V523.7z"/>
</g>
<g>
	<path class="st0" d="M172.2,503.2c-1.1,0-2.2-0.4-3-1.3l-11.5-11.5c-1.7-1.7-1.7-4.4,0-6.1c1.7-1.7,4.4-1.7,6.1,0l8.5,8.5
		l18.2-18.2c1.7-1.7,4.4-1.7,6.1,0c1.7,1.7,1.7,4.4,0,6.1L175.2,502C174.4,502.8,173.3,503.2,172.2,503.2z"/>
</g>
</svg>
